G04 #@! TF.FileFunction,Soldermask,Top*
%FSLAX46Y46*%
G04 Gerber Fmt 4.6, Leading zero omitted, Abs format (unit mm)*
G04 Created by KiCad (PCBNEW 4.0.2-stable) date 06.12.2016 23:46:42*
%MOMM*%
G01*
G04 APERTURE LIST*
%ADD10C,0.100000*%
%ADD11C,6.800000*%
%ADD12C,1.000000*%
%ADD13C,1.700000*%
%ADD14R,1.700000X1.700000*%
%ADD15R,1.200000X1.150000*%
%ADD16R,1.400000X2.000000*%
%ADD17R,1.150000X1.200000*%
%ADD18R,2.000000X1.400000*%
%ADD19R,3.760000X5.260000*%
%ADD20R,1.790000X1.800000*%
%ADD21R,2.899360X3.699460*%
%ADD22R,1.500000X1.500000*%
%ADD23R,3.700000X4.460000*%
%ADD24R,1.400000X2.200000*%
%ADD25R,2.000000X6.100000*%
%ADD26R,2.940000X2.940000*%
%ADD27C,2.940000*%
%ADD28R,2.127200X2.127200*%
%ADD29O,2.127200X2.127200*%
%ADD30R,1.300000X0.900000*%
%ADD31R,0.900000X1.300000*%
%ADD32R,0.900000X1.200000*%
%ADD33R,0.800000X1.200000*%
%ADD34R,1.500000X1.000000*%
%ADD35O,1.200000X0.600000*%
%ADD36O,0.600000X1.200000*%
%ADD37R,1.800000X1.800000*%
%ADD38R,2.432000X2.432000*%
%ADD39O,2.432000X2.432000*%
G04 APERTURE END LIST*
D10*
D11*
X140000000Y-145000000D03*
D12*
X142400000Y-145000000D03*
X141697056Y-146697056D03*
X140000000Y-147400000D03*
X138302944Y-146697056D03*
X137600000Y-145000000D03*
X138302944Y-143302944D03*
X140000000Y-142600000D03*
X141697056Y-143302944D03*
D11*
X90000000Y-145000000D03*
D12*
X92400000Y-145000000D03*
X91697056Y-146697056D03*
X90000000Y-147400000D03*
X88302944Y-146697056D03*
X87600000Y-145000000D03*
X88302944Y-143302944D03*
X90000000Y-142600000D03*
X91697056Y-143302944D03*
D11*
X140000000Y-55000000D03*
D12*
X142400000Y-55000000D03*
X141697056Y-56697056D03*
X140000000Y-57400000D03*
X138302944Y-56697056D03*
X137600000Y-55000000D03*
X138302944Y-53302944D03*
X140000000Y-52600000D03*
X141697056Y-53302944D03*
D11*
X90100000Y-55000000D03*
D12*
X92500000Y-55000000D03*
X91797056Y-56697056D03*
X90100000Y-57400000D03*
X88402944Y-56697056D03*
X87700000Y-55000000D03*
X88402944Y-53302944D03*
X90100000Y-52600000D03*
X91797056Y-53302944D03*
D13*
X120150000Y-71000000D03*
D14*
X116650000Y-71000000D03*
D15*
X94100000Y-119800000D03*
X92600000Y-119800000D03*
D16*
X95750000Y-95325000D03*
X92750000Y-95325000D03*
D17*
X88250000Y-92175000D03*
X88250000Y-90675000D03*
D18*
X95550000Y-92125000D03*
X95550000Y-89125000D03*
D15*
X109500000Y-59200000D03*
X108000000Y-59200000D03*
X109500000Y-60900000D03*
X108000000Y-60900000D03*
D17*
X111200000Y-59300000D03*
X111200000Y-60800000D03*
X109800000Y-69300000D03*
X109800000Y-67800000D03*
X113400000Y-67800000D03*
X113400000Y-69300000D03*
X113400000Y-60850000D03*
X113400000Y-59350000D03*
D13*
X120100000Y-57600000D03*
D14*
X116600000Y-57600000D03*
D15*
X118250000Y-63000000D03*
X119750000Y-63000000D03*
X119750000Y-65600000D03*
X118250000Y-65600000D03*
D19*
X89300000Y-116000000D03*
D20*
X88380000Y-119982000D03*
X90220000Y-119982000D03*
D21*
X87198940Y-125500000D03*
X94001060Y-125500000D03*
D22*
X90350000Y-91925000D03*
X93150000Y-91925000D03*
D17*
X98400000Y-139500000D03*
X98400000Y-141000000D03*
D15*
X104700000Y-59200000D03*
X106200000Y-59200000D03*
D17*
X92800000Y-98750000D03*
X92800000Y-97250000D03*
D23*
X111890000Y-100000000D03*
X102110000Y-100000000D03*
D24*
X90350000Y-89525000D03*
X93350000Y-89525000D03*
D25*
X128550000Y-60200000D03*
X123850000Y-60200000D03*
X128550000Y-68400000D03*
X123850000Y-68400000D03*
D26*
X89900000Y-132760000D03*
D27*
X89900000Y-137840000D03*
D28*
X92500000Y-82620000D03*
D29*
X89960000Y-82620000D03*
X92500000Y-80080000D03*
X89960000Y-80080000D03*
X92500000Y-77540000D03*
X89960000Y-77540000D03*
X92500000Y-75000000D03*
X89960000Y-75000000D03*
X92500000Y-72460000D03*
X89960000Y-72460000D03*
X92500000Y-69920000D03*
X89960000Y-69920000D03*
X92500000Y-67380000D03*
X89960000Y-67380000D03*
X92500000Y-64840000D03*
X89960000Y-64840000D03*
D26*
X136700000Y-68540000D03*
D27*
X136700000Y-63460000D03*
D30*
X86450000Y-95925000D03*
X86450000Y-94425000D03*
X86450000Y-91675000D03*
X86450000Y-93175000D03*
X100325000Y-141000000D03*
X100325000Y-139500000D03*
D31*
X104700000Y-60900000D03*
X106200000Y-60900000D03*
D30*
X106200000Y-69300000D03*
X106200000Y-67800000D03*
X108000000Y-69300000D03*
X108000000Y-67800000D03*
D31*
X106450000Y-62900000D03*
X107950000Y-62900000D03*
D32*
X100000000Y-72500000D03*
D33*
X98400000Y-72500000D03*
X99200000Y-72500000D03*
D32*
X97600000Y-72500000D03*
D33*
X99200000Y-74300000D03*
D32*
X100000000Y-74300000D03*
D33*
X98400000Y-74300000D03*
D32*
X97600000Y-74300000D03*
D34*
X88250000Y-93875000D03*
X88250000Y-94825000D03*
X88250000Y-95775000D03*
X90950000Y-95775000D03*
X90950000Y-94825000D03*
X90950000Y-93875000D03*
D18*
X131000000Y-63400000D03*
X131000000Y-60400000D03*
X131000000Y-65200000D03*
X131000000Y-68200000D03*
D35*
X110500000Y-62900000D03*
X110500000Y-63300000D03*
X110500000Y-63700000D03*
X110500000Y-64100000D03*
X110500000Y-64500000D03*
X110500000Y-64900000D03*
X110500000Y-65300000D03*
X110500000Y-65700000D03*
D36*
X111100000Y-66300000D03*
X111500000Y-66300000D03*
X111900000Y-66300000D03*
X112300000Y-66300000D03*
X112700000Y-66300000D03*
X113100000Y-66300000D03*
X113500000Y-66300000D03*
X113900000Y-66300000D03*
D35*
X114500000Y-65700000D03*
X114500000Y-65300000D03*
X114500000Y-64900000D03*
X114500000Y-64500000D03*
X114500000Y-64100000D03*
X114500000Y-63700000D03*
X114500000Y-63300000D03*
X114500000Y-62900000D03*
D36*
X113900000Y-62300000D03*
X113500000Y-62300000D03*
X113100000Y-62300000D03*
X112700000Y-62300000D03*
X112300000Y-62300000D03*
X111900000Y-62300000D03*
X111500000Y-62300000D03*
X111100000Y-62300000D03*
D37*
X113200000Y-65000000D03*
X113200000Y-63600000D03*
X111800000Y-65000000D03*
X111800000Y-63600000D03*
D31*
X99340000Y-58610000D03*
X100840000Y-58610000D03*
D15*
X109500000Y-83100000D03*
X108000000Y-83100000D03*
X109500000Y-84800000D03*
X108000000Y-84800000D03*
D17*
X111200000Y-83200000D03*
X111200000Y-84700000D03*
X109800000Y-93150000D03*
X109800000Y-91650000D03*
X113400000Y-84700000D03*
X113400000Y-83200000D03*
X113400000Y-91700000D03*
X113400000Y-93200000D03*
D13*
X120100000Y-81500000D03*
D14*
X116600000Y-81500000D03*
D13*
X120100000Y-94900000D03*
D14*
X116600000Y-94900000D03*
D15*
X118200000Y-86900000D03*
X119700000Y-86900000D03*
X119700000Y-89500000D03*
X118200000Y-89500000D03*
D18*
X131000000Y-87300000D03*
X131000000Y-84300000D03*
X131000000Y-89100000D03*
X131000000Y-92100000D03*
D15*
X104700000Y-83100000D03*
X106200000Y-83100000D03*
D25*
X128550000Y-84100000D03*
X123850000Y-84100000D03*
X128550000Y-92300000D03*
X123850000Y-92300000D03*
D26*
X136700000Y-91540000D03*
D27*
X136700000Y-86460000D03*
D31*
X104700000Y-84800000D03*
X106200000Y-84800000D03*
D30*
X106200000Y-93150000D03*
X106200000Y-91650000D03*
D31*
X106450000Y-86800000D03*
X107950000Y-86800000D03*
D30*
X108000000Y-93150000D03*
X108000000Y-91650000D03*
X111950000Y-96150000D03*
X111950000Y-94650000D03*
D35*
X110500000Y-86800000D03*
X110500000Y-87200000D03*
X110500000Y-87600000D03*
X110500000Y-88000000D03*
X110500000Y-88400000D03*
X110500000Y-88800000D03*
X110500000Y-89200000D03*
X110500000Y-89600000D03*
D36*
X111100000Y-90200000D03*
X111500000Y-90200000D03*
X111900000Y-90200000D03*
X112300000Y-90200000D03*
X112700000Y-90200000D03*
X113100000Y-90200000D03*
X113500000Y-90200000D03*
X113900000Y-90200000D03*
D35*
X114500000Y-89600000D03*
X114500000Y-89200000D03*
X114500000Y-88800000D03*
X114500000Y-88400000D03*
X114500000Y-88000000D03*
X114500000Y-87600000D03*
X114500000Y-87200000D03*
X114500000Y-86800000D03*
D36*
X113900000Y-86200000D03*
X113500000Y-86200000D03*
X113100000Y-86200000D03*
X112700000Y-86200000D03*
X112300000Y-86200000D03*
X111900000Y-86200000D03*
X111500000Y-86200000D03*
X111100000Y-86200000D03*
D37*
X113200000Y-88900000D03*
X113200000Y-87500000D03*
X111800000Y-88900000D03*
X111800000Y-87500000D03*
D15*
X109500000Y-106700000D03*
X108000000Y-106700000D03*
X109500000Y-108400000D03*
X108000000Y-108400000D03*
D17*
X111200000Y-106800000D03*
X111200000Y-108300000D03*
X109800000Y-116775000D03*
X109800000Y-115275000D03*
X113400000Y-115300000D03*
X113400000Y-116800000D03*
X113400000Y-108300000D03*
X113400000Y-106800000D03*
D13*
X120100000Y-105100000D03*
D14*
X116600000Y-105100000D03*
D13*
X120100000Y-118500000D03*
D14*
X116600000Y-118500000D03*
D15*
X118200000Y-110500000D03*
X119700000Y-110500000D03*
X119700000Y-113100000D03*
X118200000Y-113100000D03*
D18*
X131000000Y-110900000D03*
X131000000Y-107900000D03*
X131000000Y-112700000D03*
X131000000Y-115700000D03*
D15*
X104700000Y-106700000D03*
X106200000Y-106700000D03*
D25*
X128550000Y-107700000D03*
X123850000Y-107700000D03*
X128550000Y-115900000D03*
X123850000Y-115900000D03*
D26*
X136700000Y-113540000D03*
D27*
X136700000Y-108460000D03*
D31*
X104700000Y-108400000D03*
X106200000Y-108400000D03*
D30*
X106200000Y-116750000D03*
X106200000Y-115250000D03*
D31*
X106450000Y-110400000D03*
X107950000Y-110400000D03*
D30*
X108000000Y-116750000D03*
X108000000Y-115250000D03*
X108000000Y-120000000D03*
X108000000Y-118500000D03*
D35*
X110500000Y-110400000D03*
X110500000Y-110800000D03*
X110500000Y-111200000D03*
X110500000Y-111600000D03*
X110500000Y-112000000D03*
X110500000Y-112400000D03*
X110500000Y-112800000D03*
X110500000Y-113200000D03*
D36*
X111100000Y-113800000D03*
X111500000Y-113800000D03*
X111900000Y-113800000D03*
X112300000Y-113800000D03*
X112700000Y-113800000D03*
X113100000Y-113800000D03*
X113500000Y-113800000D03*
X113900000Y-113800000D03*
D35*
X114500000Y-113200000D03*
X114500000Y-112800000D03*
X114500000Y-112400000D03*
X114500000Y-112000000D03*
X114500000Y-111600000D03*
X114500000Y-111200000D03*
X114500000Y-110800000D03*
X114500000Y-110400000D03*
D36*
X113900000Y-109800000D03*
X113500000Y-109800000D03*
X113100000Y-109800000D03*
X112700000Y-109800000D03*
X112300000Y-109800000D03*
X111900000Y-109800000D03*
X111500000Y-109800000D03*
X111100000Y-109800000D03*
D37*
X113200000Y-112500000D03*
X113200000Y-111100000D03*
X111800000Y-112500000D03*
X111800000Y-111100000D03*
D15*
X109500000Y-130700000D03*
X108000000Y-130700000D03*
X109500000Y-132400000D03*
X108000000Y-132400000D03*
D17*
X111200000Y-130800000D03*
X111200000Y-132300000D03*
X109800000Y-140800000D03*
X109800000Y-139300000D03*
X113400000Y-139300000D03*
X113400000Y-140800000D03*
X113400000Y-132300000D03*
X113400000Y-130800000D03*
D13*
X120100000Y-129000000D03*
D14*
X116600000Y-129000000D03*
D13*
X120100000Y-142600000D03*
D14*
X116600000Y-142600000D03*
D15*
X118200000Y-134500000D03*
X119700000Y-134500000D03*
X119700000Y-137100000D03*
X118200000Y-137100000D03*
D18*
X131000000Y-134900000D03*
X131000000Y-131900000D03*
X131000000Y-136700000D03*
X131000000Y-139700000D03*
D15*
X104700000Y-130700000D03*
X106200000Y-130700000D03*
D25*
X128550000Y-131700000D03*
X123850000Y-131700000D03*
X128550000Y-139900000D03*
X123850000Y-139900000D03*
D26*
X136700000Y-136540000D03*
D27*
X136700000Y-131460000D03*
D31*
X104700000Y-132400000D03*
X106200000Y-132400000D03*
D30*
X106200000Y-140750000D03*
X106200000Y-139250000D03*
D31*
X106450000Y-134400000D03*
X107950000Y-134400000D03*
D30*
X108000000Y-140750000D03*
X108000000Y-139250000D03*
D35*
X110500000Y-134400000D03*
X110500000Y-134800000D03*
X110500000Y-135200000D03*
X110500000Y-135600000D03*
X110500000Y-136000000D03*
X110500000Y-136400000D03*
X110500000Y-136800000D03*
X110500000Y-137200000D03*
D36*
X111100000Y-137800000D03*
X111500000Y-137800000D03*
X111900000Y-137800000D03*
X112300000Y-137800000D03*
X112700000Y-137800000D03*
X113100000Y-137800000D03*
X113500000Y-137800000D03*
X113900000Y-137800000D03*
D35*
X114500000Y-137200000D03*
X114500000Y-136800000D03*
X114500000Y-136400000D03*
X114500000Y-136000000D03*
X114500000Y-135600000D03*
X114500000Y-135200000D03*
X114500000Y-134800000D03*
X114500000Y-134400000D03*
D36*
X113900000Y-133800000D03*
X113500000Y-133800000D03*
X113100000Y-133800000D03*
X112700000Y-133800000D03*
X112300000Y-133800000D03*
X111900000Y-133800000D03*
X111500000Y-133800000D03*
X111100000Y-133800000D03*
D37*
X113200000Y-136500000D03*
X113200000Y-135100000D03*
X111800000Y-136500000D03*
X111800000Y-135100000D03*
D38*
X98300000Y-55775000D03*
D39*
X100840000Y-55775000D03*
M02*
