M48
;DRILL file {KiCad 4.0.2-stable} date 06.12.2016 23:46:47
;FORMAT={-:-/ absolute / metric / decimal}
FMAT,2
METRIC,TZ
T1C0.300
T2C0.500
T3C0.800
T4C1.016
T5C1.300
T6C3.200
%
G90
G05
M71
T1
X89.6Y-94.825
X93.45Y-93.575
X94.7Y-93.575
X95.95Y-93.575
X96.1Y-85.4
X96.5Y-67.5
X96.5Y-71.
X96.5Y-80.
X96.5Y-83.
X96.5Y-104.5
X96.5Y-108.
X96.5Y-111.
X96.5Y-114.
X96.5Y-117.
X96.5Y-120.
X96.5Y-123.
X96.5Y-126.
X96.5Y-129.
X96.5Y-132.
X97.Y-135.
X97.6Y-68.8
X97.6Y-78.7
X97.6Y-86.5
X97.6Y-94.3
X97.6Y-102.9
X97.6Y-110.1
X97.6Y-133.8
X97.8Y-58.6
X98.Y-65.
X98.4Y-69.6
X98.4Y-79.5
X98.4Y-87.5
X98.4Y-95.2
X98.4Y-103.7
X98.4Y-111.1
X98.4Y-134.8
X99.Y-137.5
X99.2Y-70.4
X99.2Y-80.3
X99.2Y-88.5
X99.2Y-96.1
X99.2Y-104.4
X99.2Y-112.1
X99.2Y-135.8
X100.Y-63.
X100.Y-71.2
X100.Y-81.
X100.Y-97.
X100.Y-105.1
X100.7Y-86.48
X100.7Y-87.48
X100.7Y-88.48
X100.7Y-110.083
X100.7Y-111.083
X100.7Y-112.083
X100.7Y-133.78
X100.7Y-134.78
X100.72Y-135.78
X101.Y-67.5
X101.Y-71.
X101.Y-74.
X101.Y-77.
X101.Y-80.
X101.Y-83.
X101.Y-90.
X101.Y-93.
X101.Y-96.
X101.Y-104.5
X101.Y-108.
X101.Y-114.
X101.Y-117.
X101.Y-120.
X101.Y-123.
X101.Y-126.
X101.Y-129.
X101.Y-132.
X102.1Y-62.9
X102.1Y-66.1
X102.1Y-86.8
X102.1Y-90.
X102.1Y-110.4
X102.1Y-113.5
X102.1Y-134.15
X102.1Y-137.55
X103.Y-62.2
X103.Y-67.
X103.Y-86.1
X103.Y-90.9
X103.05Y-109.7
X103.05Y-114.5
X103.05Y-133.5
X103.05Y-138.65
X104.Y-71.
X104.Y-77.
X104.Y-80.
X104.Y-117.
X104.Y-120.
X104.Y-123.
X104.Y-126.
X104.Y-129.
X104.2Y-94.6
X104.4Y-105.2
X104.6Y-142.2
X105.55Y-137.8
X105.6Y-66.3
X105.6Y-90.2
X105.6Y-113.85
X107.5Y-96.95
X107.5Y-100.
X107.5Y-103.2
X109.8Y-70.7
X109.8Y-94.6
X109.8Y-118.2
X109.8Y-142.2
X110.3Y-96.95
X111.5Y-63.3
X111.5Y-64.3
X111.5Y-65.3
X111.5Y-87.2
X111.5Y-88.2
X111.5Y-89.2
X111.5Y-110.8
X111.5Y-111.8
X111.5Y-112.8
X111.5Y-134.8
X111.5Y-135.8
X111.5Y-136.8
X112.5Y-63.3
X112.5Y-64.3
X112.5Y-65.3
X112.5Y-87.2
X112.5Y-88.2
X112.5Y-89.2
X112.5Y-110.8
X112.5Y-111.8
X112.5Y-112.8
X112.5Y-134.8
X112.5Y-135.8
X112.5Y-136.8
X113.4Y-57.9
X113.4Y-70.7
X113.4Y-81.7
X113.4Y-94.6
X113.4Y-105.3
X113.4Y-118.2
X113.4Y-129.3
X113.4Y-142.2
X113.5Y-63.3
X113.5Y-64.3
X113.5Y-65.3
X113.5Y-87.2
X113.5Y-88.2
X113.5Y-89.2
X113.5Y-110.8
X113.5Y-111.8
X113.5Y-112.8
X113.5Y-134.8
X113.5Y-135.8
X113.5Y-136.8
X115.15Y-54.25
X115.15Y-55.85
X115.15Y-72.75
X115.15Y-74.35
X115.15Y-78.15
X115.15Y-79.75
X115.15Y-96.65
X115.15Y-98.25
X115.15Y-99.2
X115.15Y-100.8
X115.15Y-101.75
X115.15Y-103.35
X115.15Y-120.25
X115.15Y-121.85
X115.15Y-125.75
X115.15Y-127.35
X115.15Y-144.25
X115.15Y-145.85
X115.95Y-55.05
X115.95Y-73.55
X115.95Y-78.95
X115.95Y-97.45
X115.95Y-100.
X115.95Y-102.55
X115.95Y-121.05
X115.95Y-126.55
X115.95Y-145.05
X116.75Y-54.25
X116.75Y-55.85
X116.75Y-72.75
X116.75Y-74.35
X116.75Y-78.15
X116.75Y-79.75
X116.75Y-96.65
X116.75Y-98.25
X116.75Y-99.2
X116.75Y-100.8
X116.75Y-101.75
X116.75Y-103.35
X116.75Y-120.25
X116.75Y-121.85
X116.75Y-125.75
X116.75Y-127.35
X116.75Y-144.25
X116.75Y-145.85
X116.8Y-63.8
X116.8Y-64.75
X116.8Y-87.7
X116.8Y-88.65
X116.8Y-111.3
X116.8Y-112.25
X116.8Y-135.3
X116.8Y-136.25
X119.05Y-111.8
X119.1Y-64.3
X119.1Y-88.2
X119.1Y-135.8
X129.15Y-64.3
X129.15Y-88.2
X129.15Y-111.8
X129.15Y-135.8
X132.85Y-64.3
X132.85Y-88.2
X132.85Y-111.8
X132.85Y-135.8
T2
X87.6Y-145.
X87.7Y-55.
X88.303Y-143.303
X88.303Y-146.697
X88.403Y-53.303
X88.403Y-56.697
X90.Y-142.6
X90.Y-147.4
X90.1Y-52.6
X90.1Y-57.4
X91.697Y-143.303
X91.697Y-146.697
X91.797Y-53.303
X91.797Y-56.697
X92.4Y-145.
X92.5Y-55.
X137.6Y-55.
X137.6Y-145.
X138.303Y-53.303
X138.303Y-56.697
X138.303Y-143.303
X138.303Y-146.697
X140.Y-52.6
X140.Y-57.4
X140.Y-142.6
X140.Y-147.4
X141.697Y-53.303
X141.697Y-56.697
X141.697Y-143.303
X141.697Y-146.697
X142.4Y-55.
X142.4Y-145.
T3
X116.6Y-57.6
X116.6Y-81.5
X116.6Y-94.9
X116.6Y-105.1
X116.6Y-118.5
X116.6Y-129.
X116.6Y-142.6
X116.65Y-71.
X120.1Y-57.6
X120.1Y-81.5
X120.1Y-94.9
X120.1Y-105.1
X120.1Y-118.5
X120.1Y-129.
X120.1Y-142.6
X120.15Y-71.
T4
X89.96Y-64.84
X89.96Y-67.38
X89.96Y-69.92
X89.96Y-72.46
X89.96Y-75.
X89.96Y-77.54
X89.96Y-80.08
X89.96Y-82.62
X92.5Y-64.84
X92.5Y-67.38
X92.5Y-69.92
X92.5Y-72.46
X92.5Y-75.
X92.5Y-77.54
X92.5Y-80.08
X92.5Y-82.62
X98.3Y-55.775
X100.84Y-55.775
T5
X89.9Y-132.76
X89.9Y-137.84
X136.7Y-63.46
X136.7Y-68.54
X136.7Y-86.46
X136.7Y-91.54
X136.7Y-108.46
X136.7Y-113.54
X136.7Y-131.46
X136.7Y-136.54
T6
X90.Y-145.
X90.1Y-55.
X140.Y-55.
X140.Y-145.
T0
M30
