G04 #@! TF.FileFunction,Copper,L2,Bot,Signal*
%FSLAX46Y46*%
G04 Gerber Fmt 4.6, Leading zero omitted, Abs format (unit mm)*
G04 Created by KiCad (PCBNEW 4.0.2-stable) date 06.12.2016 23:46:42*
%MOMM*%
G01*
G04 APERTURE LIST*
%ADD10C,0.100000*%
%ADD11C,0.800000*%
%ADD12C,6.400000*%
%ADD13C,0.600000*%
%ADD14C,1.300000*%
%ADD15R,1.300000X1.300000*%
%ADD16R,2.540000X2.540000*%
%ADD17C,2.540000*%
%ADD18R,1.727200X1.727200*%
%ADD19O,1.727200X1.727200*%
%ADD20R,2.032000X2.032000*%
%ADD21O,2.032000X2.032000*%
%ADD22C,0.500000*%
%ADD23C,3.000000*%
%ADD24C,0.200000*%
%ADD25C,0.254000*%
G04 APERTURE END LIST*
D10*
D11*
X119100000Y-64300000D03*
X119100000Y-88200000D03*
X119050000Y-111800000D03*
X119100000Y-135800000D03*
X104600000Y-142200000D03*
X104200000Y-94600000D03*
D12*
X140000000Y-145000000D03*
D13*
X142400000Y-145000000D03*
X141697056Y-146697056D03*
X140000000Y-147400000D03*
X138302944Y-146697056D03*
X137600000Y-145000000D03*
X138302944Y-143302944D03*
X140000000Y-142600000D03*
X141697056Y-143302944D03*
D12*
X90000000Y-145000000D03*
D13*
X92400000Y-145000000D03*
X91697056Y-146697056D03*
X90000000Y-147400000D03*
X88302944Y-146697056D03*
X87600000Y-145000000D03*
X88302944Y-143302944D03*
X90000000Y-142600000D03*
X91697056Y-143302944D03*
D12*
X140000000Y-55000000D03*
D13*
X142400000Y-55000000D03*
X141697056Y-56697056D03*
X140000000Y-57400000D03*
X138302944Y-56697056D03*
X137600000Y-55000000D03*
X138302944Y-53302944D03*
X140000000Y-52600000D03*
X141697056Y-53302944D03*
D11*
X97800000Y-58600000D03*
X104400000Y-105200000D03*
X107500000Y-103200000D03*
X107500000Y-100000000D03*
X107500000Y-96950000D03*
X98000000Y-65000000D03*
X100000000Y-63000000D03*
X96500000Y-67500000D03*
X96500000Y-71000000D03*
X96500000Y-80000000D03*
X96500000Y-83000000D03*
X104000000Y-117000000D03*
X104000000Y-120000000D03*
X104000000Y-123000000D03*
X104000000Y-129000000D03*
X104000000Y-126000000D03*
X104000000Y-80000000D03*
X104000000Y-77000000D03*
X104000000Y-71000000D03*
X101000000Y-67500000D03*
X101000000Y-71000000D03*
X101000000Y-74000000D03*
X105550000Y-137800000D03*
X99000000Y-137500000D03*
X97000000Y-135000000D03*
X96500000Y-104500000D03*
X96500000Y-108000000D03*
X96500000Y-111000000D03*
X105600000Y-113850000D03*
X110300000Y-96950000D03*
X105600000Y-90200000D03*
X105600000Y-66300000D03*
X96500000Y-132000000D03*
X96500000Y-114000000D03*
X96500000Y-123000000D03*
X96500000Y-126000000D03*
X96500000Y-129000000D03*
X96500000Y-120000000D03*
X96500000Y-117000000D03*
X101000000Y-77000000D03*
X101000000Y-80000000D03*
X101000000Y-83000000D03*
X101000000Y-90000000D03*
X101000000Y-93000000D03*
X101000000Y-96000000D03*
X101000000Y-104500000D03*
X101000000Y-108000000D03*
X101000000Y-132000000D03*
X101000000Y-129000000D03*
X101000000Y-126000000D03*
X101000000Y-123000000D03*
X101000000Y-120000000D03*
X101000000Y-117000000D03*
X101000000Y-114000000D03*
X109800000Y-142200000D03*
X109800000Y-118200000D03*
X109800000Y-94600000D03*
X109800000Y-70700000D03*
X116750000Y-100800000D03*
X115150000Y-99200000D03*
X115150000Y-100800000D03*
X116750000Y-99200000D03*
X115950000Y-100000000D03*
X113500000Y-134800000D03*
X111500000Y-135800000D03*
X111500000Y-134800000D03*
X112500000Y-134800000D03*
X115150000Y-127350000D03*
X116750000Y-127350000D03*
X116750000Y-125750000D03*
X115150000Y-125750000D03*
X115950000Y-126550000D03*
X113400000Y-129300000D03*
X113500000Y-136800000D03*
X112500000Y-135800000D03*
X113500000Y-135800000D03*
X111500000Y-136800000D03*
X112500000Y-136800000D03*
X116800000Y-135300000D03*
X129150000Y-135800000D03*
X132850000Y-135800000D03*
X116800000Y-136250000D03*
X113400000Y-142200000D03*
X116750000Y-145850000D03*
X115150000Y-144250000D03*
X115150000Y-145850000D03*
X115950000Y-145050000D03*
X116750000Y-144250000D03*
X132850000Y-111800000D03*
X129150000Y-111800000D03*
X116800000Y-112250000D03*
X116800000Y-111300000D03*
X113400000Y-118200000D03*
X112500000Y-112800000D03*
X112500000Y-111800000D03*
X111500000Y-112800000D03*
X111500000Y-111800000D03*
X113500000Y-111800000D03*
X112500000Y-110800000D03*
X111500000Y-110800000D03*
X113500000Y-112800000D03*
X115950000Y-102550000D03*
X116750000Y-103350000D03*
X115150000Y-101750000D03*
X116750000Y-101750000D03*
X115950000Y-121050000D03*
X116750000Y-121850000D03*
X115150000Y-121850000D03*
X115150000Y-120250000D03*
X116750000Y-120250000D03*
X113400000Y-105300000D03*
X113500000Y-110800000D03*
X115150000Y-103350000D03*
X113400000Y-94600000D03*
X113400000Y-81700000D03*
X113400000Y-57900000D03*
X113400000Y-70700000D03*
X132850000Y-88200000D03*
X115950000Y-78950000D03*
X116750000Y-78150000D03*
X115150000Y-78150000D03*
X129150000Y-88200000D03*
X116750000Y-79750000D03*
X116800000Y-87700000D03*
X116800000Y-88650000D03*
X115150000Y-79750000D03*
X112500000Y-87200000D03*
X113500000Y-87200000D03*
X112500000Y-89200000D03*
X113500000Y-89200000D03*
X111500000Y-89200000D03*
X115950000Y-97450000D03*
X116750000Y-96650000D03*
X115150000Y-98250000D03*
X115150000Y-96650000D03*
X116750000Y-98250000D03*
X111500000Y-87200000D03*
X111500000Y-88200000D03*
X112500000Y-88200000D03*
X113500000Y-88200000D03*
X115950000Y-73550000D03*
X115150000Y-72750000D03*
X116750000Y-74350000D03*
X115150000Y-74350000D03*
X116750000Y-72750000D03*
D12*
X90100000Y-55000000D03*
D13*
X92500000Y-55000000D03*
X91797056Y-56697056D03*
X90100000Y-57400000D03*
X88402944Y-56697056D03*
X87700000Y-55000000D03*
X88402944Y-53302944D03*
X90100000Y-52600000D03*
X91797056Y-53302944D03*
D11*
X129150000Y-64300000D03*
X132850000Y-64300000D03*
X115950000Y-55050000D03*
X116750000Y-55850000D03*
X115150000Y-55850000D03*
X116750000Y-54250000D03*
X115150000Y-54250000D03*
X89600000Y-94825000D03*
X93450000Y-93575000D03*
X94700000Y-93575000D03*
X95950000Y-93575000D03*
D14*
X120150000Y-71000000D03*
D15*
X116650000Y-71000000D03*
D11*
X116800000Y-64750000D03*
X116800000Y-63800000D03*
X113500000Y-64300000D03*
X113500000Y-63300000D03*
X113500000Y-65300000D03*
X112500000Y-64300000D03*
X112500000Y-63300000D03*
X112500000Y-65300000D03*
X111500000Y-65300000D03*
X111500000Y-64300000D03*
D14*
X120100000Y-57600000D03*
D15*
X116600000Y-57600000D03*
D16*
X89900000Y-132760000D03*
D17*
X89900000Y-137840000D03*
D18*
X92500000Y-82620000D03*
D19*
X89960000Y-82620000D03*
X92500000Y-80080000D03*
X89960000Y-80080000D03*
X92500000Y-77540000D03*
X89960000Y-77540000D03*
X92500000Y-75000000D03*
X89960000Y-75000000D03*
X92500000Y-72460000D03*
X89960000Y-72460000D03*
X92500000Y-69920000D03*
X89960000Y-69920000D03*
X92500000Y-67380000D03*
X89960000Y-67380000D03*
X92500000Y-64840000D03*
X89960000Y-64840000D03*
D16*
X136700000Y-68540000D03*
D17*
X136700000Y-63460000D03*
D11*
X111500000Y-63300000D03*
D14*
X120100000Y-81500000D03*
D15*
X116600000Y-81500000D03*
D14*
X120100000Y-94900000D03*
D15*
X116600000Y-94900000D03*
D16*
X136700000Y-91540000D03*
D17*
X136700000Y-86460000D03*
D14*
X120100000Y-105100000D03*
D15*
X116600000Y-105100000D03*
D14*
X120100000Y-118500000D03*
D15*
X116600000Y-118500000D03*
D16*
X136700000Y-113540000D03*
D17*
X136700000Y-108460000D03*
D14*
X120100000Y-129000000D03*
D15*
X116600000Y-129000000D03*
D14*
X120100000Y-142600000D03*
D15*
X116600000Y-142600000D03*
D16*
X136700000Y-136540000D03*
D17*
X136700000Y-131460000D03*
D20*
X98300000Y-55775000D03*
D21*
X100840000Y-55775000D03*
D11*
X102100000Y-137550000D03*
X102100000Y-134150000D03*
X102100000Y-110400000D03*
X96100000Y-85400000D03*
X102100000Y-86800000D03*
X102100000Y-62900000D03*
X102100000Y-66100000D03*
X102100000Y-113500010D03*
X102100000Y-90000000D03*
X100000000Y-105100000D03*
X100000000Y-97000000D03*
X100000000Y-81000000D03*
X100000000Y-71200000D03*
X97600000Y-133800000D03*
X100700010Y-133780220D03*
X97600000Y-110100000D03*
X100700010Y-110083055D03*
X97600000Y-102900000D03*
X97600000Y-94300000D03*
X97600000Y-86500000D03*
X100700010Y-86479686D03*
X97600000Y-78700000D03*
X97600000Y-68800000D03*
X99200000Y-135800000D03*
X100719987Y-135780023D03*
X99200000Y-112100000D03*
X100700010Y-112083057D03*
X99200000Y-104400000D03*
X99200000Y-96100000D03*
X99200000Y-88500000D03*
X100700010Y-88479688D03*
X99200000Y-80300000D03*
X99200000Y-70400000D03*
X98400000Y-134800000D03*
X100700010Y-134780221D03*
X98400000Y-111100000D03*
X100700010Y-111083056D03*
X98400000Y-103700000D03*
X98400000Y-95200000D03*
X98400000Y-87500000D03*
X100700010Y-87479687D03*
X98400000Y-79500000D03*
X98400000Y-69600000D03*
X103050000Y-138650000D03*
X103050000Y-133500000D03*
X103050000Y-114500000D03*
X103050000Y-109699990D03*
X103000000Y-90900000D03*
X103000000Y-86099990D03*
X103000000Y-67000000D03*
X103000000Y-62200000D03*
D22*
X102100000Y-134150000D02*
X102100000Y-137550000D01*
X102100000Y-90000000D02*
X102100000Y-86800000D01*
X102100000Y-113500010D02*
X102100000Y-110400000D01*
X97600000Y-85400000D02*
X96100000Y-85400000D01*
X101265685Y-85400000D02*
X97600000Y-85400000D01*
X102100000Y-86800000D02*
X102100000Y-86234315D01*
X102100000Y-86234315D02*
X101265685Y-85400000D01*
X102100000Y-63399990D02*
X102100000Y-62900000D01*
X102100000Y-66100000D02*
X102100000Y-63399990D01*
D23*
X116190000Y-99990000D02*
X140690000Y-99990000D01*
X140690000Y-99990000D02*
X140700000Y-100000000D01*
X140700000Y-132950000D02*
X140700000Y-139400000D01*
X140700000Y-123750000D02*
X140700000Y-132950000D01*
X140700000Y-63064398D02*
X140700000Y-76300000D01*
X140700000Y-61600000D02*
X140700000Y-63064398D01*
X140700000Y-123750000D02*
X140700000Y-100000000D01*
X115950000Y-123750000D02*
X140700000Y-123750000D01*
X115950000Y-76250000D02*
X140650000Y-76250000D01*
X140650000Y-76250000D02*
X140700000Y-76300000D01*
X140700000Y-76300000D02*
X140700000Y-100000000D01*
X130450000Y-145050000D02*
X134300000Y-145050000D01*
X115950000Y-55050000D02*
X134150000Y-55050000D01*
X115950000Y-145050000D02*
X130450000Y-145050000D01*
D24*
X100000000Y-97000000D02*
X100000000Y-105100000D01*
X100000000Y-71200000D02*
X100000000Y-81000000D01*
X100700010Y-133780220D02*
X97619780Y-133780220D01*
X97619780Y-133780220D02*
X97600000Y-133800000D01*
X100700010Y-110083055D02*
X97616945Y-110083055D01*
X97616945Y-110083055D02*
X97600000Y-110100000D01*
X97600000Y-94300000D02*
X97600000Y-102900000D01*
X100700010Y-86479686D02*
X97620314Y-86479686D01*
X97620314Y-86479686D02*
X97600000Y-86500000D01*
X97600000Y-68800000D02*
X97600000Y-78700000D01*
X100719987Y-135780023D02*
X99219977Y-135780023D01*
X99219977Y-135780023D02*
X99200000Y-135800000D01*
X100700010Y-112083057D02*
X99216943Y-112083057D01*
X99216943Y-112083057D02*
X99200000Y-112100000D01*
X99200000Y-104400000D02*
X99200000Y-96100000D01*
X100700010Y-88479688D02*
X99220312Y-88479688D01*
X99220312Y-88479688D02*
X99200000Y-88500000D01*
X99200000Y-70400000D02*
X99200000Y-80300000D01*
X100700010Y-134780221D02*
X98419779Y-134780221D01*
X98419779Y-134780221D02*
X98400000Y-134800000D01*
X100700010Y-111083056D02*
X98416944Y-111083056D01*
X98416944Y-111083056D02*
X98400000Y-111100000D01*
X98400000Y-95200000D02*
X98400000Y-103700000D01*
X100700010Y-87479687D02*
X98420313Y-87479687D01*
X98420313Y-87479687D02*
X98400000Y-87500000D01*
X98400000Y-69600000D02*
X98400000Y-79500000D01*
X103050000Y-114500000D02*
X103050000Y-113934315D01*
X103050000Y-113934315D02*
X103050000Y-109699990D01*
X103050000Y-133500000D02*
X103050000Y-138650000D01*
X103000000Y-86099990D02*
X103000000Y-90900000D01*
X103000000Y-62200000D02*
X103000000Y-67000000D01*
D25*
G36*
X144544000Y-149544000D02*
X85456000Y-149544000D01*
X85456000Y-145797506D01*
X85972302Y-145797506D01*
X86584085Y-147278132D01*
X87715909Y-148411934D01*
X89195466Y-149026300D01*
X90797506Y-149027698D01*
X92278132Y-148415915D01*
X93411934Y-147284091D01*
X94026300Y-145804534D01*
X94027698Y-144202494D01*
X93415915Y-142721868D01*
X92284091Y-141588066D01*
X90804534Y-140973700D01*
X89202494Y-140972302D01*
X87721868Y-141584085D01*
X86588066Y-142715909D01*
X85973700Y-144195466D01*
X85972302Y-145797506D01*
X85456000Y-145797506D01*
X85456000Y-131490000D01*
X88241536Y-131490000D01*
X88241536Y-134030000D01*
X88268103Y-134171190D01*
X88351546Y-134300865D01*
X88478866Y-134387859D01*
X88630000Y-134418464D01*
X91170000Y-134418464D01*
X91311190Y-134391897D01*
X91440865Y-134308454D01*
X91527859Y-134181134D01*
X91558464Y-134030000D01*
X91558464Y-133954669D01*
X96818864Y-133954669D01*
X96937514Y-134241823D01*
X97157021Y-134461714D01*
X97443968Y-134580864D01*
X97645266Y-134581040D01*
X97619136Y-134643968D01*
X97618864Y-134954669D01*
X97737514Y-135241823D01*
X97957021Y-135461714D01*
X98243968Y-135580864D01*
X98445266Y-135581040D01*
X98419136Y-135643968D01*
X98418864Y-135954669D01*
X98537514Y-136241823D01*
X98757021Y-136461714D01*
X99043968Y-136580864D01*
X99354669Y-136581136D01*
X99641823Y-136462486D01*
X99843638Y-136261023D01*
X100096610Y-136261023D01*
X100277008Y-136441737D01*
X100563955Y-136560887D01*
X100874656Y-136561159D01*
X101161810Y-136442509D01*
X101381701Y-136223002D01*
X101469000Y-136012761D01*
X101469000Y-137076361D01*
X101438286Y-137107021D01*
X101319136Y-137393968D01*
X101318864Y-137704669D01*
X101437514Y-137991823D01*
X101657021Y-138211714D01*
X101943968Y-138330864D01*
X102254669Y-138331136D01*
X102353749Y-138290197D01*
X102269136Y-138493968D01*
X102268864Y-138804669D01*
X102387514Y-139091823D01*
X102607021Y-139311714D01*
X102893968Y-139430864D01*
X103204669Y-139431136D01*
X103491823Y-139312486D01*
X103711714Y-139092979D01*
X103830864Y-138806032D01*
X103831136Y-138495331D01*
X103712486Y-138208177D01*
X103531000Y-138026374D01*
X103531000Y-134123377D01*
X103711714Y-133942979D01*
X103830864Y-133656032D01*
X103831136Y-133345331D01*
X103712486Y-133058177D01*
X103492979Y-132838286D01*
X103206032Y-132719136D01*
X102895331Y-132718864D01*
X102608177Y-132837514D01*
X102388286Y-133057021D01*
X102269136Y-133343968D01*
X102269109Y-133374566D01*
X102256032Y-133369136D01*
X101945331Y-133368864D01*
X101658177Y-133487514D01*
X101481112Y-133664270D01*
X101481146Y-133625551D01*
X101362496Y-133338397D01*
X101142989Y-133118506D01*
X100856042Y-132999356D01*
X100545341Y-132999084D01*
X100258187Y-133117734D01*
X100076384Y-133299220D01*
X98203632Y-133299220D01*
X98042979Y-133138286D01*
X97756032Y-133019136D01*
X97445331Y-133018864D01*
X97158177Y-133137514D01*
X96938286Y-133357021D01*
X96819136Y-133643968D01*
X96818864Y-133954669D01*
X91558464Y-133954669D01*
X91558464Y-131786963D01*
X135048714Y-131786963D01*
X135299534Y-132393995D01*
X135763563Y-132858834D01*
X136370155Y-133110713D01*
X137026963Y-133111286D01*
X137633995Y-132860466D01*
X138098834Y-132396437D01*
X138350713Y-131789845D01*
X138351286Y-131133037D01*
X138100466Y-130526005D01*
X137636437Y-130061166D01*
X137029845Y-129809287D01*
X136373037Y-129808714D01*
X135766005Y-130059534D01*
X135301166Y-130523563D01*
X135049287Y-131130155D01*
X135048714Y-131786963D01*
X91558464Y-131786963D01*
X91558464Y-131490000D01*
X91531897Y-131348810D01*
X91448454Y-131219135D01*
X91321134Y-131132141D01*
X91170000Y-131101536D01*
X88630000Y-131101536D01*
X88488810Y-131128103D01*
X88359135Y-131211546D01*
X88272141Y-131338866D01*
X88241536Y-131490000D01*
X85456000Y-131490000D01*
X85456000Y-110254669D01*
X96818864Y-110254669D01*
X96937514Y-110541823D01*
X97157021Y-110761714D01*
X97443968Y-110880864D01*
X97645266Y-110881040D01*
X97619136Y-110943968D01*
X97618864Y-111254669D01*
X97737514Y-111541823D01*
X97957021Y-111761714D01*
X98243968Y-111880864D01*
X98445266Y-111881040D01*
X98419136Y-111943968D01*
X98418864Y-112254669D01*
X98537514Y-112541823D01*
X98757021Y-112761714D01*
X99043968Y-112880864D01*
X99354669Y-112881136D01*
X99641823Y-112762486D01*
X99840599Y-112564057D01*
X100076633Y-112564057D01*
X100257031Y-112744771D01*
X100543978Y-112863921D01*
X100854679Y-112864193D01*
X101141833Y-112745543D01*
X101361724Y-112526036D01*
X101469000Y-112267685D01*
X101469000Y-113026371D01*
X101438286Y-113057031D01*
X101319136Y-113343978D01*
X101318864Y-113654679D01*
X101437514Y-113941833D01*
X101657021Y-114161724D01*
X101943968Y-114280874D01*
X102254669Y-114281146D01*
X102303620Y-114260920D01*
X102269136Y-114343968D01*
X102268864Y-114654669D01*
X102387514Y-114941823D01*
X102607021Y-115161714D01*
X102893968Y-115280864D01*
X103204669Y-115281136D01*
X103491823Y-115162486D01*
X103711714Y-114942979D01*
X103830864Y-114656032D01*
X103831136Y-114345331D01*
X103712486Y-114058177D01*
X103531000Y-113876374D01*
X103531000Y-112270000D01*
X135041536Y-112270000D01*
X135041536Y-114810000D01*
X135068103Y-114951190D01*
X135151546Y-115080865D01*
X135278866Y-115167859D01*
X135430000Y-115198464D01*
X137970000Y-115198464D01*
X138111190Y-115171897D01*
X138240865Y-115088454D01*
X138327859Y-114961134D01*
X138358464Y-114810000D01*
X138358464Y-112270000D01*
X138331897Y-112128810D01*
X138248454Y-111999135D01*
X138121134Y-111912141D01*
X137970000Y-111881536D01*
X135430000Y-111881536D01*
X135288810Y-111908103D01*
X135159135Y-111991546D01*
X135072141Y-112118866D01*
X135041536Y-112270000D01*
X103531000Y-112270000D01*
X103531000Y-110323367D01*
X103711714Y-110142969D01*
X103830864Y-109856022D01*
X103831136Y-109545321D01*
X103712486Y-109258167D01*
X103492979Y-109038276D01*
X103206032Y-108919126D01*
X102895331Y-108918854D01*
X102608177Y-109037504D01*
X102388286Y-109257011D01*
X102269136Y-109543958D01*
X102269065Y-109624548D01*
X102256032Y-109619136D01*
X101945331Y-109618864D01*
X101658177Y-109737514D01*
X101477007Y-109918368D01*
X101362496Y-109641232D01*
X101142989Y-109421341D01*
X100856042Y-109302191D01*
X100545341Y-109301919D01*
X100258187Y-109420569D01*
X100076384Y-109602055D01*
X98206462Y-109602055D01*
X98042979Y-109438286D01*
X97756032Y-109319136D01*
X97445331Y-109318864D01*
X97158177Y-109437514D01*
X96938286Y-109657021D01*
X96819136Y-109943968D01*
X96818864Y-110254669D01*
X85456000Y-110254669D01*
X85456000Y-108786963D01*
X135048714Y-108786963D01*
X135299534Y-109393995D01*
X135763563Y-109858834D01*
X136370155Y-110110713D01*
X137026963Y-110111286D01*
X137633995Y-109860466D01*
X138098834Y-109396437D01*
X138350713Y-108789845D01*
X138351286Y-108133037D01*
X138100466Y-107526005D01*
X137636437Y-107061166D01*
X137029845Y-106809287D01*
X136373037Y-106808714D01*
X135766005Y-107059534D01*
X135301166Y-107523563D01*
X135049287Y-108130155D01*
X135048714Y-108786963D01*
X85456000Y-108786963D01*
X85456000Y-94454669D01*
X96818864Y-94454669D01*
X96937514Y-94741823D01*
X97119000Y-94923626D01*
X97119000Y-102276623D01*
X96938286Y-102457021D01*
X96819136Y-102743968D01*
X96818864Y-103054669D01*
X96937514Y-103341823D01*
X97157021Y-103561714D01*
X97443968Y-103680864D01*
X97619016Y-103681017D01*
X97618864Y-103854669D01*
X97737514Y-104141823D01*
X97957021Y-104361714D01*
X98243968Y-104480864D01*
X98418928Y-104481017D01*
X98418864Y-104554669D01*
X98537514Y-104841823D01*
X98757021Y-105061714D01*
X99043968Y-105180864D01*
X99218928Y-105181017D01*
X99218864Y-105254669D01*
X99337514Y-105541823D01*
X99557021Y-105761714D01*
X99843968Y-105880864D01*
X100154669Y-105881136D01*
X100441823Y-105762486D01*
X100661714Y-105542979D01*
X100780864Y-105256032D01*
X100781136Y-104945331D01*
X100662486Y-104658177D01*
X100481000Y-104476374D01*
X100481000Y-97623377D01*
X100661714Y-97442979D01*
X100780864Y-97156032D01*
X100781136Y-96845331D01*
X100662486Y-96558177D01*
X100442979Y-96338286D01*
X100156032Y-96219136D01*
X99980896Y-96218983D01*
X99981136Y-95945331D01*
X99862486Y-95658177D01*
X99642979Y-95438286D01*
X99356032Y-95319136D01*
X99180896Y-95318983D01*
X99181136Y-95045331D01*
X99062486Y-94758177D01*
X98842979Y-94538286D01*
X98556032Y-94419136D01*
X98380896Y-94418983D01*
X98381136Y-94145331D01*
X98262486Y-93858177D01*
X98042979Y-93638286D01*
X97756032Y-93519136D01*
X97445331Y-93518864D01*
X97158177Y-93637514D01*
X96938286Y-93857021D01*
X96819136Y-94143968D01*
X96818864Y-94454669D01*
X85456000Y-94454669D01*
X85456000Y-85554669D01*
X95318864Y-85554669D01*
X95437514Y-85841823D01*
X95657021Y-86061714D01*
X95943968Y-86180864D01*
X96254669Y-86181136D01*
X96541823Y-86062486D01*
X96573364Y-86031000D01*
X96964353Y-86031000D01*
X96938286Y-86057021D01*
X96819136Y-86343968D01*
X96818864Y-86654669D01*
X96937514Y-86941823D01*
X97157021Y-87161714D01*
X97443968Y-87280864D01*
X97645266Y-87281040D01*
X97619136Y-87343968D01*
X97618864Y-87654669D01*
X97737514Y-87941823D01*
X97957021Y-88161714D01*
X98243968Y-88280864D01*
X98445266Y-88281040D01*
X98419136Y-88343968D01*
X98418864Y-88654669D01*
X98537514Y-88941823D01*
X98757021Y-89161714D01*
X99043968Y-89280864D01*
X99354669Y-89281136D01*
X99641823Y-89162486D01*
X99843974Y-88960688D01*
X100076633Y-88960688D01*
X100257031Y-89141402D01*
X100543978Y-89260552D01*
X100854679Y-89260824D01*
X101141833Y-89142174D01*
X101361724Y-88922667D01*
X101469000Y-88664316D01*
X101469000Y-89526361D01*
X101438286Y-89557021D01*
X101319136Y-89843968D01*
X101318864Y-90154669D01*
X101437514Y-90441823D01*
X101657021Y-90661714D01*
X101943968Y-90780864D01*
X102219103Y-90781105D01*
X102218864Y-91054669D01*
X102337514Y-91341823D01*
X102557021Y-91561714D01*
X102843968Y-91680864D01*
X103154669Y-91681136D01*
X103441823Y-91562486D01*
X103661714Y-91342979D01*
X103780864Y-91056032D01*
X103781136Y-90745331D01*
X103662486Y-90458177D01*
X103481000Y-90276374D01*
X103481000Y-90270000D01*
X135041536Y-90270000D01*
X135041536Y-92810000D01*
X135068103Y-92951190D01*
X135151546Y-93080865D01*
X135278866Y-93167859D01*
X135430000Y-93198464D01*
X137970000Y-93198464D01*
X138111190Y-93171897D01*
X138240865Y-93088454D01*
X138327859Y-92961134D01*
X138358464Y-92810000D01*
X138358464Y-90270000D01*
X138331897Y-90128810D01*
X138248454Y-89999135D01*
X138121134Y-89912141D01*
X137970000Y-89881536D01*
X135430000Y-89881536D01*
X135288810Y-89908103D01*
X135159135Y-89991546D01*
X135072141Y-90118866D01*
X135041536Y-90270000D01*
X103481000Y-90270000D01*
X103481000Y-86786963D01*
X135048714Y-86786963D01*
X135299534Y-87393995D01*
X135763563Y-87858834D01*
X136370155Y-88110713D01*
X137026963Y-88111286D01*
X137633995Y-87860466D01*
X138098834Y-87396437D01*
X138350713Y-86789845D01*
X138351286Y-86133037D01*
X138100466Y-85526005D01*
X137636437Y-85061166D01*
X137029845Y-84809287D01*
X136373037Y-84808714D01*
X135766005Y-85059534D01*
X135301166Y-85523563D01*
X135049287Y-86130155D01*
X135048714Y-86786963D01*
X103481000Y-86786963D01*
X103481000Y-86723367D01*
X103661714Y-86542969D01*
X103780864Y-86256022D01*
X103781136Y-85945321D01*
X103662486Y-85658167D01*
X103442979Y-85438276D01*
X103156032Y-85319126D01*
X102845331Y-85318854D01*
X102558177Y-85437504D01*
X102376709Y-85618655D01*
X101711869Y-84953816D01*
X101507158Y-84817032D01*
X101265685Y-84769000D01*
X96573639Y-84769000D01*
X96542979Y-84738286D01*
X96256032Y-84619136D01*
X95945331Y-84618864D01*
X95658177Y-84737514D01*
X95438286Y-84957021D01*
X95319136Y-85243968D01*
X95318864Y-85554669D01*
X85456000Y-85554669D01*
X85456000Y-81756400D01*
X91247936Y-81756400D01*
X91247936Y-83483600D01*
X91274503Y-83624790D01*
X91357946Y-83754465D01*
X91485266Y-83841459D01*
X91636400Y-83872064D01*
X93363600Y-83872064D01*
X93504790Y-83845497D01*
X93634465Y-83762054D01*
X93721459Y-83634734D01*
X93752064Y-83483600D01*
X93752064Y-81756400D01*
X93725497Y-81615210D01*
X93642054Y-81485535D01*
X93514734Y-81398541D01*
X93363600Y-81367936D01*
X91636400Y-81367936D01*
X91495210Y-81394503D01*
X91365535Y-81477946D01*
X91278541Y-81605266D01*
X91247936Y-81756400D01*
X85456000Y-81756400D01*
X85456000Y-80055617D01*
X91255400Y-80055617D01*
X91255400Y-80104383D01*
X91350140Y-80580671D01*
X91619935Y-80984448D01*
X92023712Y-81254243D01*
X92500000Y-81348983D01*
X92976288Y-81254243D01*
X93380065Y-80984448D01*
X93649860Y-80580671D01*
X93744600Y-80104383D01*
X93744600Y-80055617D01*
X93649860Y-79579329D01*
X93380065Y-79175552D01*
X92976288Y-78905757D01*
X92500000Y-78811017D01*
X92023712Y-78905757D01*
X91619935Y-79175552D01*
X91350140Y-79579329D01*
X91255400Y-80055617D01*
X85456000Y-80055617D01*
X85456000Y-77515617D01*
X91255400Y-77515617D01*
X91255400Y-77564383D01*
X91350140Y-78040671D01*
X91619935Y-78444448D01*
X92023712Y-78714243D01*
X92500000Y-78808983D01*
X92976288Y-78714243D01*
X93380065Y-78444448D01*
X93649860Y-78040671D01*
X93744600Y-77564383D01*
X93744600Y-77515617D01*
X93649860Y-77039329D01*
X93380065Y-76635552D01*
X92976288Y-76365757D01*
X92500000Y-76271017D01*
X92023712Y-76365757D01*
X91619935Y-76635552D01*
X91350140Y-77039329D01*
X91255400Y-77515617D01*
X85456000Y-77515617D01*
X85456000Y-74975617D01*
X91255400Y-74975617D01*
X91255400Y-75024383D01*
X91350140Y-75500671D01*
X91619935Y-75904448D01*
X92023712Y-76174243D01*
X92500000Y-76268983D01*
X92976288Y-76174243D01*
X93380065Y-75904448D01*
X93649860Y-75500671D01*
X93744600Y-75024383D01*
X93744600Y-74975617D01*
X93649860Y-74499329D01*
X93380065Y-74095552D01*
X92976288Y-73825757D01*
X92500000Y-73731017D01*
X92023712Y-73825757D01*
X91619935Y-74095552D01*
X91350140Y-74499329D01*
X91255400Y-74975617D01*
X85456000Y-74975617D01*
X85456000Y-72435617D01*
X91255400Y-72435617D01*
X91255400Y-72484383D01*
X91350140Y-72960671D01*
X91619935Y-73364448D01*
X92023712Y-73634243D01*
X92500000Y-73728983D01*
X92976288Y-73634243D01*
X93380065Y-73364448D01*
X93649860Y-72960671D01*
X93744600Y-72484383D01*
X93744600Y-72435617D01*
X93649860Y-71959329D01*
X93380065Y-71555552D01*
X92976288Y-71285757D01*
X92500000Y-71191017D01*
X92023712Y-71285757D01*
X91619935Y-71555552D01*
X91350140Y-71959329D01*
X91255400Y-72435617D01*
X85456000Y-72435617D01*
X85456000Y-69895617D01*
X91255400Y-69895617D01*
X91255400Y-69944383D01*
X91350140Y-70420671D01*
X91619935Y-70824448D01*
X92023712Y-71094243D01*
X92500000Y-71188983D01*
X92976288Y-71094243D01*
X93380065Y-70824448D01*
X93649860Y-70420671D01*
X93744600Y-69944383D01*
X93744600Y-69895617D01*
X93649860Y-69419329D01*
X93380065Y-69015552D01*
X93288948Y-68954669D01*
X96818864Y-68954669D01*
X96937514Y-69241823D01*
X97119000Y-69423626D01*
X97119000Y-78076623D01*
X96938286Y-78257021D01*
X96819136Y-78543968D01*
X96818864Y-78854669D01*
X96937514Y-79141823D01*
X97157021Y-79361714D01*
X97443968Y-79480864D01*
X97619016Y-79481017D01*
X97618864Y-79654669D01*
X97737514Y-79941823D01*
X97957021Y-80161714D01*
X98243968Y-80280864D01*
X98419016Y-80281017D01*
X98418864Y-80454669D01*
X98537514Y-80741823D01*
X98757021Y-80961714D01*
X99043968Y-81080864D01*
X99218928Y-81081017D01*
X99218864Y-81154669D01*
X99337514Y-81441823D01*
X99557021Y-81661714D01*
X99843968Y-81780864D01*
X100154669Y-81781136D01*
X100441823Y-81662486D01*
X100661714Y-81442979D01*
X100780864Y-81156032D01*
X100781136Y-80845331D01*
X100662486Y-80558177D01*
X100481000Y-80376374D01*
X100481000Y-71823377D01*
X100661714Y-71642979D01*
X100780864Y-71356032D01*
X100781136Y-71045331D01*
X100662486Y-70758177D01*
X100442979Y-70538286D01*
X100156032Y-70419136D01*
X99980984Y-70418983D01*
X99981136Y-70245331D01*
X99862486Y-69958177D01*
X99642979Y-69738286D01*
X99356032Y-69619136D01*
X99180984Y-69618983D01*
X99181136Y-69445331D01*
X99062486Y-69158177D01*
X98842979Y-68938286D01*
X98556032Y-68819136D01*
X98380984Y-68818983D01*
X98381136Y-68645331D01*
X98262486Y-68358177D01*
X98042979Y-68138286D01*
X97756032Y-68019136D01*
X97445331Y-68018864D01*
X97158177Y-68137514D01*
X96938286Y-68357021D01*
X96819136Y-68643968D01*
X96818864Y-68954669D01*
X93288948Y-68954669D01*
X92976288Y-68745757D01*
X92500000Y-68651017D01*
X92023712Y-68745757D01*
X91619935Y-69015552D01*
X91350140Y-69419329D01*
X91255400Y-69895617D01*
X85456000Y-69895617D01*
X85456000Y-67355617D01*
X91255400Y-67355617D01*
X91255400Y-67404383D01*
X91350140Y-67880671D01*
X91619935Y-68284448D01*
X92023712Y-68554243D01*
X92500000Y-68648983D01*
X92976288Y-68554243D01*
X93380065Y-68284448D01*
X93649860Y-67880671D01*
X93744600Y-67404383D01*
X93744600Y-67355617D01*
X93649860Y-66879329D01*
X93380065Y-66475552D01*
X92976288Y-66205757D01*
X92500000Y-66111017D01*
X92023712Y-66205757D01*
X91619935Y-66475552D01*
X91350140Y-66879329D01*
X91255400Y-67355617D01*
X85456000Y-67355617D01*
X85456000Y-64815617D01*
X91255400Y-64815617D01*
X91255400Y-64864383D01*
X91350140Y-65340671D01*
X91619935Y-65744448D01*
X92023712Y-66014243D01*
X92500000Y-66108983D01*
X92976288Y-66014243D01*
X93380065Y-65744448D01*
X93649860Y-65340671D01*
X93744600Y-64864383D01*
X93744600Y-64815617D01*
X93649860Y-64339329D01*
X93380065Y-63935552D01*
X92976288Y-63665757D01*
X92500000Y-63571017D01*
X92023712Y-63665757D01*
X91619935Y-63935552D01*
X91350140Y-64339329D01*
X91255400Y-64815617D01*
X85456000Y-64815617D01*
X85456000Y-63054669D01*
X101318864Y-63054669D01*
X101437514Y-63341823D01*
X101469000Y-63373364D01*
X101469000Y-65626361D01*
X101438286Y-65657021D01*
X101319136Y-65943968D01*
X101318864Y-66254669D01*
X101437514Y-66541823D01*
X101657021Y-66761714D01*
X101943968Y-66880864D01*
X102219103Y-66881105D01*
X102218864Y-67154669D01*
X102337514Y-67441823D01*
X102557021Y-67661714D01*
X102843968Y-67780864D01*
X103154669Y-67781136D01*
X103441823Y-67662486D01*
X103661714Y-67442979D01*
X103733540Y-67270000D01*
X135041536Y-67270000D01*
X135041536Y-69810000D01*
X135068103Y-69951190D01*
X135151546Y-70080865D01*
X135278866Y-70167859D01*
X135430000Y-70198464D01*
X137970000Y-70198464D01*
X138111190Y-70171897D01*
X138240865Y-70088454D01*
X138327859Y-69961134D01*
X138358464Y-69810000D01*
X138358464Y-67270000D01*
X138331897Y-67128810D01*
X138248454Y-66999135D01*
X138121134Y-66912141D01*
X137970000Y-66881536D01*
X135430000Y-66881536D01*
X135288810Y-66908103D01*
X135159135Y-66991546D01*
X135072141Y-67118866D01*
X135041536Y-67270000D01*
X103733540Y-67270000D01*
X103780864Y-67156032D01*
X103781136Y-66845331D01*
X103662486Y-66558177D01*
X103481000Y-66376374D01*
X103481000Y-63786963D01*
X135048714Y-63786963D01*
X135299534Y-64393995D01*
X135763563Y-64858834D01*
X136370155Y-65110713D01*
X137026963Y-65111286D01*
X137633995Y-64860466D01*
X138098834Y-64396437D01*
X138350713Y-63789845D01*
X138351286Y-63133037D01*
X138100466Y-62526005D01*
X137636437Y-62061166D01*
X137029845Y-61809287D01*
X136373037Y-61808714D01*
X135766005Y-62059534D01*
X135301166Y-62523563D01*
X135049287Y-63130155D01*
X135048714Y-63786963D01*
X103481000Y-63786963D01*
X103481000Y-62823377D01*
X103661714Y-62642979D01*
X103780864Y-62356032D01*
X103781136Y-62045331D01*
X103662486Y-61758177D01*
X103442979Y-61538286D01*
X103156032Y-61419136D01*
X102845331Y-61418864D01*
X102558177Y-61537514D01*
X102338286Y-61757021D01*
X102219136Y-62043968D01*
X102219070Y-62119104D01*
X101945331Y-62118864D01*
X101658177Y-62237514D01*
X101438286Y-62457021D01*
X101319136Y-62743968D01*
X101318864Y-63054669D01*
X85456000Y-63054669D01*
X85456000Y-55797506D01*
X86072302Y-55797506D01*
X86684085Y-57278132D01*
X87815909Y-58411934D01*
X89295466Y-59026300D01*
X90897506Y-59027698D01*
X92378132Y-58415915D01*
X93511934Y-57284091D01*
X94126300Y-55804534D01*
X94126349Y-55747631D01*
X99443000Y-55747631D01*
X99443000Y-55802369D01*
X99549340Y-56336978D01*
X99852172Y-56790197D01*
X100305391Y-57093029D01*
X100840000Y-57199369D01*
X101374609Y-57093029D01*
X101827828Y-56790197D01*
X102130660Y-56336978D01*
X102237000Y-55802369D01*
X102237000Y-55747631D01*
X102130660Y-55213022D01*
X102021732Y-55050000D01*
X114069000Y-55050000D01*
X114212183Y-55769828D01*
X114368864Y-56004318D01*
X114368864Y-56004669D01*
X114487514Y-56291823D01*
X114707021Y-56511714D01*
X114993968Y-56630864D01*
X114995277Y-56630865D01*
X115230172Y-56787817D01*
X115580276Y-56857457D01*
X115561536Y-56950000D01*
X115561536Y-58250000D01*
X115588103Y-58391190D01*
X115671546Y-58520865D01*
X115798866Y-58607859D01*
X115950000Y-58638464D01*
X117250000Y-58638464D01*
X117391190Y-58611897D01*
X117520865Y-58528454D01*
X117607859Y-58401134D01*
X117638464Y-58250000D01*
X117638464Y-56950000D01*
X117634889Y-56931000D01*
X132903218Y-56931000D01*
X133235848Y-58012047D01*
X133275518Y-58099681D01*
X134075518Y-59399681D01*
X134118083Y-59456288D01*
X135118083Y-60556288D01*
X135183131Y-60613255D01*
X136483131Y-61513255D01*
X136553462Y-61551692D01*
X137753462Y-62051692D01*
X137814329Y-62071243D01*
X138819000Y-62303090D01*
X138819000Y-74369000D01*
X122732245Y-74369000D01*
X117507165Y-72002926D01*
X117468202Y-71994515D01*
X117570865Y-71928454D01*
X117657859Y-71801134D01*
X117688464Y-71650000D01*
X117688464Y-70350000D01*
X117661897Y-70208810D01*
X117578454Y-70079135D01*
X117451134Y-69992141D01*
X117300000Y-69961536D01*
X116000000Y-69961536D01*
X115858810Y-69988103D01*
X115729135Y-70071546D01*
X115642141Y-70198866D01*
X115611536Y-70350000D01*
X115611536Y-71650000D01*
X115638103Y-71791190D01*
X115721546Y-71920865D01*
X115791994Y-71969000D01*
X115150681Y-71969000D01*
X114995331Y-71968864D01*
X114995002Y-71969000D01*
X114450000Y-71969000D01*
X114311523Y-71995056D01*
X114184340Y-72076896D01*
X114099017Y-72201770D01*
X114069000Y-72350000D01*
X114069000Y-80150000D01*
X114095056Y-80288477D01*
X114176896Y-80415660D01*
X114301770Y-80500983D01*
X114450000Y-80531000D01*
X115149318Y-80531000D01*
X115304669Y-80531136D01*
X115304998Y-80531000D01*
X115742146Y-80531000D01*
X115679135Y-80571546D01*
X115592141Y-80698866D01*
X115561536Y-80850000D01*
X115561536Y-82150000D01*
X115588103Y-82291190D01*
X115671546Y-82420865D01*
X115798866Y-82507859D01*
X115950000Y-82538464D01*
X117250000Y-82538464D01*
X117391190Y-82511897D01*
X117520865Y-82428454D01*
X117607859Y-82301134D01*
X117638464Y-82150000D01*
X117638464Y-80850000D01*
X117611897Y-80708810D01*
X117528454Y-80579135D01*
X117432076Y-80513283D01*
X117507165Y-80497074D01*
X122732245Y-78131000D01*
X138819000Y-78131000D01*
X138819000Y-98109000D01*
X122760162Y-98109000D01*
X117568854Y-95758219D01*
X117607859Y-95701134D01*
X117638464Y-95550000D01*
X117638464Y-94250000D01*
X117611897Y-94108810D01*
X117528454Y-93979135D01*
X117401134Y-93892141D01*
X117250000Y-93861536D01*
X115950000Y-93861536D01*
X115808810Y-93888103D01*
X115679135Y-93971546D01*
X115592141Y-94098866D01*
X115561536Y-94250000D01*
X115561536Y-95550000D01*
X115588103Y-95691190D01*
X115605998Y-95719000D01*
X114500000Y-95719000D01*
X114361523Y-95745056D01*
X114234340Y-95826896D01*
X114149017Y-95951770D01*
X114119000Y-96100000D01*
X114119000Y-103900000D01*
X114145056Y-104038477D01*
X114226896Y-104165660D01*
X114351770Y-104250983D01*
X114500000Y-104281000D01*
X115604348Y-104281000D01*
X115592141Y-104298866D01*
X115561536Y-104450000D01*
X115561536Y-105750000D01*
X115588103Y-105891190D01*
X115671546Y-106020865D01*
X115798866Y-106107859D01*
X115950000Y-106138464D01*
X117250000Y-106138464D01*
X117391190Y-106111897D01*
X117520865Y-106028454D01*
X117607859Y-105901134D01*
X117638464Y-105750000D01*
X117638464Y-104450000D01*
X117611897Y-104308810D01*
X117568785Y-104241812D01*
X122804328Y-101871000D01*
X138819000Y-101871000D01*
X138819000Y-121869000D01*
X122809346Y-121869000D01*
X117557165Y-119490654D01*
X117457602Y-119469162D01*
X117520865Y-119428454D01*
X117607859Y-119301134D01*
X117638464Y-119150000D01*
X117638464Y-117850000D01*
X117611897Y-117708810D01*
X117528454Y-117579135D01*
X117401134Y-117492141D01*
X117250000Y-117461536D01*
X115950000Y-117461536D01*
X115808810Y-117488103D01*
X115679135Y-117571546D01*
X115592141Y-117698866D01*
X115561536Y-117850000D01*
X115561536Y-119150000D01*
X115588103Y-119291190D01*
X115671546Y-119420865D01*
X115724033Y-119456728D01*
X114500000Y-119456728D01*
X114361523Y-119482784D01*
X114234340Y-119564624D01*
X114149017Y-119689498D01*
X114119000Y-119837728D01*
X114119000Y-123498634D01*
X114069000Y-123750000D01*
X114119000Y-124001366D01*
X114119000Y-127637728D01*
X114145056Y-127776205D01*
X114226896Y-127903388D01*
X114351770Y-127988711D01*
X114500000Y-128018728D01*
X114723913Y-128018728D01*
X114993968Y-128130864D01*
X115304669Y-128131136D01*
X115576716Y-128018728D01*
X115761217Y-128018728D01*
X115679135Y-128071546D01*
X115592141Y-128198866D01*
X115561536Y-128350000D01*
X115561536Y-129650000D01*
X115588103Y-129791190D01*
X115671546Y-129920865D01*
X115798866Y-130007859D01*
X115950000Y-130038464D01*
X117250000Y-130038464D01*
X117391190Y-130011897D01*
X117520865Y-129928454D01*
X117607859Y-129801134D01*
X117638464Y-129650000D01*
X117638464Y-128350000D01*
X117611897Y-128208810D01*
X117528454Y-128079135D01*
X117430431Y-128012159D01*
X117557165Y-127984802D01*
X122755144Y-125631000D01*
X138819000Y-125631000D01*
X138819000Y-137795969D01*
X138338868Y-137906769D01*
X138358464Y-137810000D01*
X138358464Y-135270000D01*
X138331897Y-135128810D01*
X138248454Y-134999135D01*
X138121134Y-134912141D01*
X137970000Y-134881536D01*
X135430000Y-134881536D01*
X135288810Y-134908103D01*
X135159135Y-134991546D01*
X135072141Y-135118866D01*
X135041536Y-135270000D01*
X135041536Y-137810000D01*
X135068103Y-137951190D01*
X135151546Y-138080865D01*
X135278866Y-138167859D01*
X135430000Y-138198464D01*
X137389012Y-138198464D01*
X136549386Y-138548308D01*
X136479055Y-138586745D01*
X135179055Y-139486745D01*
X135114007Y-139543712D01*
X134114007Y-140643712D01*
X134071442Y-140700319D01*
X133271442Y-142000319D01*
X133231772Y-142087953D01*
X132899142Y-143169000D01*
X117638464Y-143169000D01*
X117638464Y-141950000D01*
X117611897Y-141808810D01*
X117528454Y-141679135D01*
X117401134Y-141592141D01*
X117250000Y-141561536D01*
X115950000Y-141561536D01*
X115808810Y-141588103D01*
X115679135Y-141671546D01*
X115592141Y-141798866D01*
X115561536Y-141950000D01*
X115561536Y-143246270D01*
X115230172Y-143312183D01*
X114995682Y-143468864D01*
X114708177Y-143587514D01*
X114488286Y-143807021D01*
X114369136Y-144093968D01*
X114369135Y-144095277D01*
X114212183Y-144330172D01*
X114069000Y-145050000D01*
X114212183Y-145769828D01*
X114368864Y-146004318D01*
X114368864Y-146004669D01*
X114487514Y-146291823D01*
X114707021Y-146511714D01*
X114993968Y-146630864D01*
X114995277Y-146630865D01*
X115230172Y-146787817D01*
X115950000Y-146931000D01*
X134950000Y-146931000D01*
X135093367Y-146902997D01*
X135219408Y-146819408D01*
X136050955Y-145987861D01*
X136584085Y-147278132D01*
X137715909Y-148411934D01*
X139195466Y-149026300D01*
X140797506Y-149027698D01*
X142278132Y-148415915D01*
X143411934Y-147284091D01*
X144026300Y-145804534D01*
X144027698Y-144202494D01*
X143415915Y-142721868D01*
X142284091Y-141588066D01*
X141518607Y-141270209D01*
X142469408Y-140319408D01*
X142551292Y-140197496D01*
X142580999Y-140049204D01*
X142579656Y-139406756D01*
X142581000Y-139400000D01*
X142581000Y-62000318D01*
X142585075Y-60050796D01*
X142557073Y-59906633D01*
X142473484Y-59780592D01*
X141450697Y-58757805D01*
X142278132Y-58415915D01*
X143411934Y-57284091D01*
X144026300Y-55804534D01*
X144027698Y-54202494D01*
X143415915Y-52721868D01*
X142284091Y-51588066D01*
X140804534Y-50973700D01*
X139202494Y-50972302D01*
X137721868Y-51584085D01*
X136588066Y-52715909D01*
X136022011Y-54079119D01*
X135223484Y-53280592D01*
X135102306Y-53199017D01*
X134954076Y-53169000D01*
X115950000Y-53169000D01*
X115230172Y-53312183D01*
X114995682Y-53468864D01*
X114708177Y-53587514D01*
X114488286Y-53807021D01*
X114369136Y-54093968D01*
X114369135Y-54095277D01*
X114212183Y-54330172D01*
X114069000Y-55050000D01*
X102021732Y-55050000D01*
X101827828Y-54759803D01*
X101374609Y-54456971D01*
X100840000Y-54350631D01*
X100305391Y-54456971D01*
X99852172Y-54759803D01*
X99549340Y-55213022D01*
X99443000Y-55747631D01*
X94126349Y-55747631D01*
X94127698Y-54202494D01*
X93515915Y-52721868D01*
X92384091Y-51588066D01*
X90904534Y-50973700D01*
X89302494Y-50972302D01*
X87821868Y-51584085D01*
X86688066Y-52715909D01*
X86073700Y-54195466D01*
X86072302Y-55797506D01*
X85456000Y-55797506D01*
X85456000Y-50456000D01*
X144544000Y-50456000D01*
X144544000Y-149544000D01*
X144544000Y-149544000D01*
G37*
X144544000Y-149544000D02*
X85456000Y-149544000D01*
X85456000Y-145797506D01*
X85972302Y-145797506D01*
X86584085Y-147278132D01*
X87715909Y-148411934D01*
X89195466Y-149026300D01*
X90797506Y-149027698D01*
X92278132Y-148415915D01*
X93411934Y-147284091D01*
X94026300Y-145804534D01*
X94027698Y-144202494D01*
X93415915Y-142721868D01*
X92284091Y-141588066D01*
X90804534Y-140973700D01*
X89202494Y-140972302D01*
X87721868Y-141584085D01*
X86588066Y-142715909D01*
X85973700Y-144195466D01*
X85972302Y-145797506D01*
X85456000Y-145797506D01*
X85456000Y-131490000D01*
X88241536Y-131490000D01*
X88241536Y-134030000D01*
X88268103Y-134171190D01*
X88351546Y-134300865D01*
X88478866Y-134387859D01*
X88630000Y-134418464D01*
X91170000Y-134418464D01*
X91311190Y-134391897D01*
X91440865Y-134308454D01*
X91527859Y-134181134D01*
X91558464Y-134030000D01*
X91558464Y-133954669D01*
X96818864Y-133954669D01*
X96937514Y-134241823D01*
X97157021Y-134461714D01*
X97443968Y-134580864D01*
X97645266Y-134581040D01*
X97619136Y-134643968D01*
X97618864Y-134954669D01*
X97737514Y-135241823D01*
X97957021Y-135461714D01*
X98243968Y-135580864D01*
X98445266Y-135581040D01*
X98419136Y-135643968D01*
X98418864Y-135954669D01*
X98537514Y-136241823D01*
X98757021Y-136461714D01*
X99043968Y-136580864D01*
X99354669Y-136581136D01*
X99641823Y-136462486D01*
X99843638Y-136261023D01*
X100096610Y-136261023D01*
X100277008Y-136441737D01*
X100563955Y-136560887D01*
X100874656Y-136561159D01*
X101161810Y-136442509D01*
X101381701Y-136223002D01*
X101469000Y-136012761D01*
X101469000Y-137076361D01*
X101438286Y-137107021D01*
X101319136Y-137393968D01*
X101318864Y-137704669D01*
X101437514Y-137991823D01*
X101657021Y-138211714D01*
X101943968Y-138330864D01*
X102254669Y-138331136D01*
X102353749Y-138290197D01*
X102269136Y-138493968D01*
X102268864Y-138804669D01*
X102387514Y-139091823D01*
X102607021Y-139311714D01*
X102893968Y-139430864D01*
X103204669Y-139431136D01*
X103491823Y-139312486D01*
X103711714Y-139092979D01*
X103830864Y-138806032D01*
X103831136Y-138495331D01*
X103712486Y-138208177D01*
X103531000Y-138026374D01*
X103531000Y-134123377D01*
X103711714Y-133942979D01*
X103830864Y-133656032D01*
X103831136Y-133345331D01*
X103712486Y-133058177D01*
X103492979Y-132838286D01*
X103206032Y-132719136D01*
X102895331Y-132718864D01*
X102608177Y-132837514D01*
X102388286Y-133057021D01*
X102269136Y-133343968D01*
X102269109Y-133374566D01*
X102256032Y-133369136D01*
X101945331Y-133368864D01*
X101658177Y-133487514D01*
X101481112Y-133664270D01*
X101481146Y-133625551D01*
X101362496Y-133338397D01*
X101142989Y-133118506D01*
X100856042Y-132999356D01*
X100545341Y-132999084D01*
X100258187Y-133117734D01*
X100076384Y-133299220D01*
X98203632Y-133299220D01*
X98042979Y-133138286D01*
X97756032Y-133019136D01*
X97445331Y-133018864D01*
X97158177Y-133137514D01*
X96938286Y-133357021D01*
X96819136Y-133643968D01*
X96818864Y-133954669D01*
X91558464Y-133954669D01*
X91558464Y-131786963D01*
X135048714Y-131786963D01*
X135299534Y-132393995D01*
X135763563Y-132858834D01*
X136370155Y-133110713D01*
X137026963Y-133111286D01*
X137633995Y-132860466D01*
X138098834Y-132396437D01*
X138350713Y-131789845D01*
X138351286Y-131133037D01*
X138100466Y-130526005D01*
X137636437Y-130061166D01*
X137029845Y-129809287D01*
X136373037Y-129808714D01*
X135766005Y-130059534D01*
X135301166Y-130523563D01*
X135049287Y-131130155D01*
X135048714Y-131786963D01*
X91558464Y-131786963D01*
X91558464Y-131490000D01*
X91531897Y-131348810D01*
X91448454Y-131219135D01*
X91321134Y-131132141D01*
X91170000Y-131101536D01*
X88630000Y-131101536D01*
X88488810Y-131128103D01*
X88359135Y-131211546D01*
X88272141Y-131338866D01*
X88241536Y-131490000D01*
X85456000Y-131490000D01*
X85456000Y-110254669D01*
X96818864Y-110254669D01*
X96937514Y-110541823D01*
X97157021Y-110761714D01*
X97443968Y-110880864D01*
X97645266Y-110881040D01*
X97619136Y-110943968D01*
X97618864Y-111254669D01*
X97737514Y-111541823D01*
X97957021Y-111761714D01*
X98243968Y-111880864D01*
X98445266Y-111881040D01*
X98419136Y-111943968D01*
X98418864Y-112254669D01*
X98537514Y-112541823D01*
X98757021Y-112761714D01*
X99043968Y-112880864D01*
X99354669Y-112881136D01*
X99641823Y-112762486D01*
X99840599Y-112564057D01*
X100076633Y-112564057D01*
X100257031Y-112744771D01*
X100543978Y-112863921D01*
X100854679Y-112864193D01*
X101141833Y-112745543D01*
X101361724Y-112526036D01*
X101469000Y-112267685D01*
X101469000Y-113026371D01*
X101438286Y-113057031D01*
X101319136Y-113343978D01*
X101318864Y-113654679D01*
X101437514Y-113941833D01*
X101657021Y-114161724D01*
X101943968Y-114280874D01*
X102254669Y-114281146D01*
X102303620Y-114260920D01*
X102269136Y-114343968D01*
X102268864Y-114654669D01*
X102387514Y-114941823D01*
X102607021Y-115161714D01*
X102893968Y-115280864D01*
X103204669Y-115281136D01*
X103491823Y-115162486D01*
X103711714Y-114942979D01*
X103830864Y-114656032D01*
X103831136Y-114345331D01*
X103712486Y-114058177D01*
X103531000Y-113876374D01*
X103531000Y-112270000D01*
X135041536Y-112270000D01*
X135041536Y-114810000D01*
X135068103Y-114951190D01*
X135151546Y-115080865D01*
X135278866Y-115167859D01*
X135430000Y-115198464D01*
X137970000Y-115198464D01*
X138111190Y-115171897D01*
X138240865Y-115088454D01*
X138327859Y-114961134D01*
X138358464Y-114810000D01*
X138358464Y-112270000D01*
X138331897Y-112128810D01*
X138248454Y-111999135D01*
X138121134Y-111912141D01*
X137970000Y-111881536D01*
X135430000Y-111881536D01*
X135288810Y-111908103D01*
X135159135Y-111991546D01*
X135072141Y-112118866D01*
X135041536Y-112270000D01*
X103531000Y-112270000D01*
X103531000Y-110323367D01*
X103711714Y-110142969D01*
X103830864Y-109856022D01*
X103831136Y-109545321D01*
X103712486Y-109258167D01*
X103492979Y-109038276D01*
X103206032Y-108919126D01*
X102895331Y-108918854D01*
X102608177Y-109037504D01*
X102388286Y-109257011D01*
X102269136Y-109543958D01*
X102269065Y-109624548D01*
X102256032Y-109619136D01*
X101945331Y-109618864D01*
X101658177Y-109737514D01*
X101477007Y-109918368D01*
X101362496Y-109641232D01*
X101142989Y-109421341D01*
X100856042Y-109302191D01*
X100545341Y-109301919D01*
X100258187Y-109420569D01*
X100076384Y-109602055D01*
X98206462Y-109602055D01*
X98042979Y-109438286D01*
X97756032Y-109319136D01*
X97445331Y-109318864D01*
X97158177Y-109437514D01*
X96938286Y-109657021D01*
X96819136Y-109943968D01*
X96818864Y-110254669D01*
X85456000Y-110254669D01*
X85456000Y-108786963D01*
X135048714Y-108786963D01*
X135299534Y-109393995D01*
X135763563Y-109858834D01*
X136370155Y-110110713D01*
X137026963Y-110111286D01*
X137633995Y-109860466D01*
X138098834Y-109396437D01*
X138350713Y-108789845D01*
X138351286Y-108133037D01*
X138100466Y-107526005D01*
X137636437Y-107061166D01*
X137029845Y-106809287D01*
X136373037Y-106808714D01*
X135766005Y-107059534D01*
X135301166Y-107523563D01*
X135049287Y-108130155D01*
X135048714Y-108786963D01*
X85456000Y-108786963D01*
X85456000Y-94454669D01*
X96818864Y-94454669D01*
X96937514Y-94741823D01*
X97119000Y-94923626D01*
X97119000Y-102276623D01*
X96938286Y-102457021D01*
X96819136Y-102743968D01*
X96818864Y-103054669D01*
X96937514Y-103341823D01*
X97157021Y-103561714D01*
X97443968Y-103680864D01*
X97619016Y-103681017D01*
X97618864Y-103854669D01*
X97737514Y-104141823D01*
X97957021Y-104361714D01*
X98243968Y-104480864D01*
X98418928Y-104481017D01*
X98418864Y-104554669D01*
X98537514Y-104841823D01*
X98757021Y-105061714D01*
X99043968Y-105180864D01*
X99218928Y-105181017D01*
X99218864Y-105254669D01*
X99337514Y-105541823D01*
X99557021Y-105761714D01*
X99843968Y-105880864D01*
X100154669Y-105881136D01*
X100441823Y-105762486D01*
X100661714Y-105542979D01*
X100780864Y-105256032D01*
X100781136Y-104945331D01*
X100662486Y-104658177D01*
X100481000Y-104476374D01*
X100481000Y-97623377D01*
X100661714Y-97442979D01*
X100780864Y-97156032D01*
X100781136Y-96845331D01*
X100662486Y-96558177D01*
X100442979Y-96338286D01*
X100156032Y-96219136D01*
X99980896Y-96218983D01*
X99981136Y-95945331D01*
X99862486Y-95658177D01*
X99642979Y-95438286D01*
X99356032Y-95319136D01*
X99180896Y-95318983D01*
X99181136Y-95045331D01*
X99062486Y-94758177D01*
X98842979Y-94538286D01*
X98556032Y-94419136D01*
X98380896Y-94418983D01*
X98381136Y-94145331D01*
X98262486Y-93858177D01*
X98042979Y-93638286D01*
X97756032Y-93519136D01*
X97445331Y-93518864D01*
X97158177Y-93637514D01*
X96938286Y-93857021D01*
X96819136Y-94143968D01*
X96818864Y-94454669D01*
X85456000Y-94454669D01*
X85456000Y-85554669D01*
X95318864Y-85554669D01*
X95437514Y-85841823D01*
X95657021Y-86061714D01*
X95943968Y-86180864D01*
X96254669Y-86181136D01*
X96541823Y-86062486D01*
X96573364Y-86031000D01*
X96964353Y-86031000D01*
X96938286Y-86057021D01*
X96819136Y-86343968D01*
X96818864Y-86654669D01*
X96937514Y-86941823D01*
X97157021Y-87161714D01*
X97443968Y-87280864D01*
X97645266Y-87281040D01*
X97619136Y-87343968D01*
X97618864Y-87654669D01*
X97737514Y-87941823D01*
X97957021Y-88161714D01*
X98243968Y-88280864D01*
X98445266Y-88281040D01*
X98419136Y-88343968D01*
X98418864Y-88654669D01*
X98537514Y-88941823D01*
X98757021Y-89161714D01*
X99043968Y-89280864D01*
X99354669Y-89281136D01*
X99641823Y-89162486D01*
X99843974Y-88960688D01*
X100076633Y-88960688D01*
X100257031Y-89141402D01*
X100543978Y-89260552D01*
X100854679Y-89260824D01*
X101141833Y-89142174D01*
X101361724Y-88922667D01*
X101469000Y-88664316D01*
X101469000Y-89526361D01*
X101438286Y-89557021D01*
X101319136Y-89843968D01*
X101318864Y-90154669D01*
X101437514Y-90441823D01*
X101657021Y-90661714D01*
X101943968Y-90780864D01*
X102219103Y-90781105D01*
X102218864Y-91054669D01*
X102337514Y-91341823D01*
X102557021Y-91561714D01*
X102843968Y-91680864D01*
X103154669Y-91681136D01*
X103441823Y-91562486D01*
X103661714Y-91342979D01*
X103780864Y-91056032D01*
X103781136Y-90745331D01*
X103662486Y-90458177D01*
X103481000Y-90276374D01*
X103481000Y-90270000D01*
X135041536Y-90270000D01*
X135041536Y-92810000D01*
X135068103Y-92951190D01*
X135151546Y-93080865D01*
X135278866Y-93167859D01*
X135430000Y-93198464D01*
X137970000Y-93198464D01*
X138111190Y-93171897D01*
X138240865Y-93088454D01*
X138327859Y-92961134D01*
X138358464Y-92810000D01*
X138358464Y-90270000D01*
X138331897Y-90128810D01*
X138248454Y-89999135D01*
X138121134Y-89912141D01*
X137970000Y-89881536D01*
X135430000Y-89881536D01*
X135288810Y-89908103D01*
X135159135Y-89991546D01*
X135072141Y-90118866D01*
X135041536Y-90270000D01*
X103481000Y-90270000D01*
X103481000Y-86786963D01*
X135048714Y-86786963D01*
X135299534Y-87393995D01*
X135763563Y-87858834D01*
X136370155Y-88110713D01*
X137026963Y-88111286D01*
X137633995Y-87860466D01*
X138098834Y-87396437D01*
X138350713Y-86789845D01*
X138351286Y-86133037D01*
X138100466Y-85526005D01*
X137636437Y-85061166D01*
X137029845Y-84809287D01*
X136373037Y-84808714D01*
X135766005Y-85059534D01*
X135301166Y-85523563D01*
X135049287Y-86130155D01*
X135048714Y-86786963D01*
X103481000Y-86786963D01*
X103481000Y-86723367D01*
X103661714Y-86542969D01*
X103780864Y-86256022D01*
X103781136Y-85945321D01*
X103662486Y-85658167D01*
X103442979Y-85438276D01*
X103156032Y-85319126D01*
X102845331Y-85318854D01*
X102558177Y-85437504D01*
X102376709Y-85618655D01*
X101711869Y-84953816D01*
X101507158Y-84817032D01*
X101265685Y-84769000D01*
X96573639Y-84769000D01*
X96542979Y-84738286D01*
X96256032Y-84619136D01*
X95945331Y-84618864D01*
X95658177Y-84737514D01*
X95438286Y-84957021D01*
X95319136Y-85243968D01*
X95318864Y-85554669D01*
X85456000Y-85554669D01*
X85456000Y-81756400D01*
X91247936Y-81756400D01*
X91247936Y-83483600D01*
X91274503Y-83624790D01*
X91357946Y-83754465D01*
X91485266Y-83841459D01*
X91636400Y-83872064D01*
X93363600Y-83872064D01*
X93504790Y-83845497D01*
X93634465Y-83762054D01*
X93721459Y-83634734D01*
X93752064Y-83483600D01*
X93752064Y-81756400D01*
X93725497Y-81615210D01*
X93642054Y-81485535D01*
X93514734Y-81398541D01*
X93363600Y-81367936D01*
X91636400Y-81367936D01*
X91495210Y-81394503D01*
X91365535Y-81477946D01*
X91278541Y-81605266D01*
X91247936Y-81756400D01*
X85456000Y-81756400D01*
X85456000Y-80055617D01*
X91255400Y-80055617D01*
X91255400Y-80104383D01*
X91350140Y-80580671D01*
X91619935Y-80984448D01*
X92023712Y-81254243D01*
X92500000Y-81348983D01*
X92976288Y-81254243D01*
X93380065Y-80984448D01*
X93649860Y-80580671D01*
X93744600Y-80104383D01*
X93744600Y-80055617D01*
X93649860Y-79579329D01*
X93380065Y-79175552D01*
X92976288Y-78905757D01*
X92500000Y-78811017D01*
X92023712Y-78905757D01*
X91619935Y-79175552D01*
X91350140Y-79579329D01*
X91255400Y-80055617D01*
X85456000Y-80055617D01*
X85456000Y-77515617D01*
X91255400Y-77515617D01*
X91255400Y-77564383D01*
X91350140Y-78040671D01*
X91619935Y-78444448D01*
X92023712Y-78714243D01*
X92500000Y-78808983D01*
X92976288Y-78714243D01*
X93380065Y-78444448D01*
X93649860Y-78040671D01*
X93744600Y-77564383D01*
X93744600Y-77515617D01*
X93649860Y-77039329D01*
X93380065Y-76635552D01*
X92976288Y-76365757D01*
X92500000Y-76271017D01*
X92023712Y-76365757D01*
X91619935Y-76635552D01*
X91350140Y-77039329D01*
X91255400Y-77515617D01*
X85456000Y-77515617D01*
X85456000Y-74975617D01*
X91255400Y-74975617D01*
X91255400Y-75024383D01*
X91350140Y-75500671D01*
X91619935Y-75904448D01*
X92023712Y-76174243D01*
X92500000Y-76268983D01*
X92976288Y-76174243D01*
X93380065Y-75904448D01*
X93649860Y-75500671D01*
X93744600Y-75024383D01*
X93744600Y-74975617D01*
X93649860Y-74499329D01*
X93380065Y-74095552D01*
X92976288Y-73825757D01*
X92500000Y-73731017D01*
X92023712Y-73825757D01*
X91619935Y-74095552D01*
X91350140Y-74499329D01*
X91255400Y-74975617D01*
X85456000Y-74975617D01*
X85456000Y-72435617D01*
X91255400Y-72435617D01*
X91255400Y-72484383D01*
X91350140Y-72960671D01*
X91619935Y-73364448D01*
X92023712Y-73634243D01*
X92500000Y-73728983D01*
X92976288Y-73634243D01*
X93380065Y-73364448D01*
X93649860Y-72960671D01*
X93744600Y-72484383D01*
X93744600Y-72435617D01*
X93649860Y-71959329D01*
X93380065Y-71555552D01*
X92976288Y-71285757D01*
X92500000Y-71191017D01*
X92023712Y-71285757D01*
X91619935Y-71555552D01*
X91350140Y-71959329D01*
X91255400Y-72435617D01*
X85456000Y-72435617D01*
X85456000Y-69895617D01*
X91255400Y-69895617D01*
X91255400Y-69944383D01*
X91350140Y-70420671D01*
X91619935Y-70824448D01*
X92023712Y-71094243D01*
X92500000Y-71188983D01*
X92976288Y-71094243D01*
X93380065Y-70824448D01*
X93649860Y-70420671D01*
X93744600Y-69944383D01*
X93744600Y-69895617D01*
X93649860Y-69419329D01*
X93380065Y-69015552D01*
X93288948Y-68954669D01*
X96818864Y-68954669D01*
X96937514Y-69241823D01*
X97119000Y-69423626D01*
X97119000Y-78076623D01*
X96938286Y-78257021D01*
X96819136Y-78543968D01*
X96818864Y-78854669D01*
X96937514Y-79141823D01*
X97157021Y-79361714D01*
X97443968Y-79480864D01*
X97619016Y-79481017D01*
X97618864Y-79654669D01*
X97737514Y-79941823D01*
X97957021Y-80161714D01*
X98243968Y-80280864D01*
X98419016Y-80281017D01*
X98418864Y-80454669D01*
X98537514Y-80741823D01*
X98757021Y-80961714D01*
X99043968Y-81080864D01*
X99218928Y-81081017D01*
X99218864Y-81154669D01*
X99337514Y-81441823D01*
X99557021Y-81661714D01*
X99843968Y-81780864D01*
X100154669Y-81781136D01*
X100441823Y-81662486D01*
X100661714Y-81442979D01*
X100780864Y-81156032D01*
X100781136Y-80845331D01*
X100662486Y-80558177D01*
X100481000Y-80376374D01*
X100481000Y-71823377D01*
X100661714Y-71642979D01*
X100780864Y-71356032D01*
X100781136Y-71045331D01*
X100662486Y-70758177D01*
X100442979Y-70538286D01*
X100156032Y-70419136D01*
X99980984Y-70418983D01*
X99981136Y-70245331D01*
X99862486Y-69958177D01*
X99642979Y-69738286D01*
X99356032Y-69619136D01*
X99180984Y-69618983D01*
X99181136Y-69445331D01*
X99062486Y-69158177D01*
X98842979Y-68938286D01*
X98556032Y-68819136D01*
X98380984Y-68818983D01*
X98381136Y-68645331D01*
X98262486Y-68358177D01*
X98042979Y-68138286D01*
X97756032Y-68019136D01*
X97445331Y-68018864D01*
X97158177Y-68137514D01*
X96938286Y-68357021D01*
X96819136Y-68643968D01*
X96818864Y-68954669D01*
X93288948Y-68954669D01*
X92976288Y-68745757D01*
X92500000Y-68651017D01*
X92023712Y-68745757D01*
X91619935Y-69015552D01*
X91350140Y-69419329D01*
X91255400Y-69895617D01*
X85456000Y-69895617D01*
X85456000Y-67355617D01*
X91255400Y-67355617D01*
X91255400Y-67404383D01*
X91350140Y-67880671D01*
X91619935Y-68284448D01*
X92023712Y-68554243D01*
X92500000Y-68648983D01*
X92976288Y-68554243D01*
X93380065Y-68284448D01*
X93649860Y-67880671D01*
X93744600Y-67404383D01*
X93744600Y-67355617D01*
X93649860Y-66879329D01*
X93380065Y-66475552D01*
X92976288Y-66205757D01*
X92500000Y-66111017D01*
X92023712Y-66205757D01*
X91619935Y-66475552D01*
X91350140Y-66879329D01*
X91255400Y-67355617D01*
X85456000Y-67355617D01*
X85456000Y-64815617D01*
X91255400Y-64815617D01*
X91255400Y-64864383D01*
X91350140Y-65340671D01*
X91619935Y-65744448D01*
X92023712Y-66014243D01*
X92500000Y-66108983D01*
X92976288Y-66014243D01*
X93380065Y-65744448D01*
X93649860Y-65340671D01*
X93744600Y-64864383D01*
X93744600Y-64815617D01*
X93649860Y-64339329D01*
X93380065Y-63935552D01*
X92976288Y-63665757D01*
X92500000Y-63571017D01*
X92023712Y-63665757D01*
X91619935Y-63935552D01*
X91350140Y-64339329D01*
X91255400Y-64815617D01*
X85456000Y-64815617D01*
X85456000Y-63054669D01*
X101318864Y-63054669D01*
X101437514Y-63341823D01*
X101469000Y-63373364D01*
X101469000Y-65626361D01*
X101438286Y-65657021D01*
X101319136Y-65943968D01*
X101318864Y-66254669D01*
X101437514Y-66541823D01*
X101657021Y-66761714D01*
X101943968Y-66880864D01*
X102219103Y-66881105D01*
X102218864Y-67154669D01*
X102337514Y-67441823D01*
X102557021Y-67661714D01*
X102843968Y-67780864D01*
X103154669Y-67781136D01*
X103441823Y-67662486D01*
X103661714Y-67442979D01*
X103733540Y-67270000D01*
X135041536Y-67270000D01*
X135041536Y-69810000D01*
X135068103Y-69951190D01*
X135151546Y-70080865D01*
X135278866Y-70167859D01*
X135430000Y-70198464D01*
X137970000Y-70198464D01*
X138111190Y-70171897D01*
X138240865Y-70088454D01*
X138327859Y-69961134D01*
X138358464Y-69810000D01*
X138358464Y-67270000D01*
X138331897Y-67128810D01*
X138248454Y-66999135D01*
X138121134Y-66912141D01*
X137970000Y-66881536D01*
X135430000Y-66881536D01*
X135288810Y-66908103D01*
X135159135Y-66991546D01*
X135072141Y-67118866D01*
X135041536Y-67270000D01*
X103733540Y-67270000D01*
X103780864Y-67156032D01*
X103781136Y-66845331D01*
X103662486Y-66558177D01*
X103481000Y-66376374D01*
X103481000Y-63786963D01*
X135048714Y-63786963D01*
X135299534Y-64393995D01*
X135763563Y-64858834D01*
X136370155Y-65110713D01*
X137026963Y-65111286D01*
X137633995Y-64860466D01*
X138098834Y-64396437D01*
X138350713Y-63789845D01*
X138351286Y-63133037D01*
X138100466Y-62526005D01*
X137636437Y-62061166D01*
X137029845Y-61809287D01*
X136373037Y-61808714D01*
X135766005Y-62059534D01*
X135301166Y-62523563D01*
X135049287Y-63130155D01*
X135048714Y-63786963D01*
X103481000Y-63786963D01*
X103481000Y-62823377D01*
X103661714Y-62642979D01*
X103780864Y-62356032D01*
X103781136Y-62045331D01*
X103662486Y-61758177D01*
X103442979Y-61538286D01*
X103156032Y-61419136D01*
X102845331Y-61418864D01*
X102558177Y-61537514D01*
X102338286Y-61757021D01*
X102219136Y-62043968D01*
X102219070Y-62119104D01*
X101945331Y-62118864D01*
X101658177Y-62237514D01*
X101438286Y-62457021D01*
X101319136Y-62743968D01*
X101318864Y-63054669D01*
X85456000Y-63054669D01*
X85456000Y-55797506D01*
X86072302Y-55797506D01*
X86684085Y-57278132D01*
X87815909Y-58411934D01*
X89295466Y-59026300D01*
X90897506Y-59027698D01*
X92378132Y-58415915D01*
X93511934Y-57284091D01*
X94126300Y-55804534D01*
X94126349Y-55747631D01*
X99443000Y-55747631D01*
X99443000Y-55802369D01*
X99549340Y-56336978D01*
X99852172Y-56790197D01*
X100305391Y-57093029D01*
X100840000Y-57199369D01*
X101374609Y-57093029D01*
X101827828Y-56790197D01*
X102130660Y-56336978D01*
X102237000Y-55802369D01*
X102237000Y-55747631D01*
X102130660Y-55213022D01*
X102021732Y-55050000D01*
X114069000Y-55050000D01*
X114212183Y-55769828D01*
X114368864Y-56004318D01*
X114368864Y-56004669D01*
X114487514Y-56291823D01*
X114707021Y-56511714D01*
X114993968Y-56630864D01*
X114995277Y-56630865D01*
X115230172Y-56787817D01*
X115580276Y-56857457D01*
X115561536Y-56950000D01*
X115561536Y-58250000D01*
X115588103Y-58391190D01*
X115671546Y-58520865D01*
X115798866Y-58607859D01*
X115950000Y-58638464D01*
X117250000Y-58638464D01*
X117391190Y-58611897D01*
X117520865Y-58528454D01*
X117607859Y-58401134D01*
X117638464Y-58250000D01*
X117638464Y-56950000D01*
X117634889Y-56931000D01*
X132903218Y-56931000D01*
X133235848Y-58012047D01*
X133275518Y-58099681D01*
X134075518Y-59399681D01*
X134118083Y-59456288D01*
X135118083Y-60556288D01*
X135183131Y-60613255D01*
X136483131Y-61513255D01*
X136553462Y-61551692D01*
X137753462Y-62051692D01*
X137814329Y-62071243D01*
X138819000Y-62303090D01*
X138819000Y-74369000D01*
X122732245Y-74369000D01*
X117507165Y-72002926D01*
X117468202Y-71994515D01*
X117570865Y-71928454D01*
X117657859Y-71801134D01*
X117688464Y-71650000D01*
X117688464Y-70350000D01*
X117661897Y-70208810D01*
X117578454Y-70079135D01*
X117451134Y-69992141D01*
X117300000Y-69961536D01*
X116000000Y-69961536D01*
X115858810Y-69988103D01*
X115729135Y-70071546D01*
X115642141Y-70198866D01*
X115611536Y-70350000D01*
X115611536Y-71650000D01*
X115638103Y-71791190D01*
X115721546Y-71920865D01*
X115791994Y-71969000D01*
X115150681Y-71969000D01*
X114995331Y-71968864D01*
X114995002Y-71969000D01*
X114450000Y-71969000D01*
X114311523Y-71995056D01*
X114184340Y-72076896D01*
X114099017Y-72201770D01*
X114069000Y-72350000D01*
X114069000Y-80150000D01*
X114095056Y-80288477D01*
X114176896Y-80415660D01*
X114301770Y-80500983D01*
X114450000Y-80531000D01*
X115149318Y-80531000D01*
X115304669Y-80531136D01*
X115304998Y-80531000D01*
X115742146Y-80531000D01*
X115679135Y-80571546D01*
X115592141Y-80698866D01*
X115561536Y-80850000D01*
X115561536Y-82150000D01*
X115588103Y-82291190D01*
X115671546Y-82420865D01*
X115798866Y-82507859D01*
X115950000Y-82538464D01*
X117250000Y-82538464D01*
X117391190Y-82511897D01*
X117520865Y-82428454D01*
X117607859Y-82301134D01*
X117638464Y-82150000D01*
X117638464Y-80850000D01*
X117611897Y-80708810D01*
X117528454Y-80579135D01*
X117432076Y-80513283D01*
X117507165Y-80497074D01*
X122732245Y-78131000D01*
X138819000Y-78131000D01*
X138819000Y-98109000D01*
X122760162Y-98109000D01*
X117568854Y-95758219D01*
X117607859Y-95701134D01*
X117638464Y-95550000D01*
X117638464Y-94250000D01*
X117611897Y-94108810D01*
X117528454Y-93979135D01*
X117401134Y-93892141D01*
X117250000Y-93861536D01*
X115950000Y-93861536D01*
X115808810Y-93888103D01*
X115679135Y-93971546D01*
X115592141Y-94098866D01*
X115561536Y-94250000D01*
X115561536Y-95550000D01*
X115588103Y-95691190D01*
X115605998Y-95719000D01*
X114500000Y-95719000D01*
X114361523Y-95745056D01*
X114234340Y-95826896D01*
X114149017Y-95951770D01*
X114119000Y-96100000D01*
X114119000Y-103900000D01*
X114145056Y-104038477D01*
X114226896Y-104165660D01*
X114351770Y-104250983D01*
X114500000Y-104281000D01*
X115604348Y-104281000D01*
X115592141Y-104298866D01*
X115561536Y-104450000D01*
X115561536Y-105750000D01*
X115588103Y-105891190D01*
X115671546Y-106020865D01*
X115798866Y-106107859D01*
X115950000Y-106138464D01*
X117250000Y-106138464D01*
X117391190Y-106111897D01*
X117520865Y-106028454D01*
X117607859Y-105901134D01*
X117638464Y-105750000D01*
X117638464Y-104450000D01*
X117611897Y-104308810D01*
X117568785Y-104241812D01*
X122804328Y-101871000D01*
X138819000Y-101871000D01*
X138819000Y-121869000D01*
X122809346Y-121869000D01*
X117557165Y-119490654D01*
X117457602Y-119469162D01*
X117520865Y-119428454D01*
X117607859Y-119301134D01*
X117638464Y-119150000D01*
X117638464Y-117850000D01*
X117611897Y-117708810D01*
X117528454Y-117579135D01*
X117401134Y-117492141D01*
X117250000Y-117461536D01*
X115950000Y-117461536D01*
X115808810Y-117488103D01*
X115679135Y-117571546D01*
X115592141Y-117698866D01*
X115561536Y-117850000D01*
X115561536Y-119150000D01*
X115588103Y-119291190D01*
X115671546Y-119420865D01*
X115724033Y-119456728D01*
X114500000Y-119456728D01*
X114361523Y-119482784D01*
X114234340Y-119564624D01*
X114149017Y-119689498D01*
X114119000Y-119837728D01*
X114119000Y-123498634D01*
X114069000Y-123750000D01*
X114119000Y-124001366D01*
X114119000Y-127637728D01*
X114145056Y-127776205D01*
X114226896Y-127903388D01*
X114351770Y-127988711D01*
X114500000Y-128018728D01*
X114723913Y-128018728D01*
X114993968Y-128130864D01*
X115304669Y-128131136D01*
X115576716Y-128018728D01*
X115761217Y-128018728D01*
X115679135Y-128071546D01*
X115592141Y-128198866D01*
X115561536Y-128350000D01*
X115561536Y-129650000D01*
X115588103Y-129791190D01*
X115671546Y-129920865D01*
X115798866Y-130007859D01*
X115950000Y-130038464D01*
X117250000Y-130038464D01*
X117391190Y-130011897D01*
X117520865Y-129928454D01*
X117607859Y-129801134D01*
X117638464Y-129650000D01*
X117638464Y-128350000D01*
X117611897Y-128208810D01*
X117528454Y-128079135D01*
X117430431Y-128012159D01*
X117557165Y-127984802D01*
X122755144Y-125631000D01*
X138819000Y-125631000D01*
X138819000Y-137795969D01*
X138338868Y-137906769D01*
X138358464Y-137810000D01*
X138358464Y-135270000D01*
X138331897Y-135128810D01*
X138248454Y-134999135D01*
X138121134Y-134912141D01*
X137970000Y-134881536D01*
X135430000Y-134881536D01*
X135288810Y-134908103D01*
X135159135Y-134991546D01*
X135072141Y-135118866D01*
X135041536Y-135270000D01*
X135041536Y-137810000D01*
X135068103Y-137951190D01*
X135151546Y-138080865D01*
X135278866Y-138167859D01*
X135430000Y-138198464D01*
X137389012Y-138198464D01*
X136549386Y-138548308D01*
X136479055Y-138586745D01*
X135179055Y-139486745D01*
X135114007Y-139543712D01*
X134114007Y-140643712D01*
X134071442Y-140700319D01*
X133271442Y-142000319D01*
X133231772Y-142087953D01*
X132899142Y-143169000D01*
X117638464Y-143169000D01*
X117638464Y-141950000D01*
X117611897Y-141808810D01*
X117528454Y-141679135D01*
X117401134Y-141592141D01*
X117250000Y-141561536D01*
X115950000Y-141561536D01*
X115808810Y-141588103D01*
X115679135Y-141671546D01*
X115592141Y-141798866D01*
X115561536Y-141950000D01*
X115561536Y-143246270D01*
X115230172Y-143312183D01*
X114995682Y-143468864D01*
X114708177Y-143587514D01*
X114488286Y-143807021D01*
X114369136Y-144093968D01*
X114369135Y-144095277D01*
X114212183Y-144330172D01*
X114069000Y-145050000D01*
X114212183Y-145769828D01*
X114368864Y-146004318D01*
X114368864Y-146004669D01*
X114487514Y-146291823D01*
X114707021Y-146511714D01*
X114993968Y-146630864D01*
X114995277Y-146630865D01*
X115230172Y-146787817D01*
X115950000Y-146931000D01*
X134950000Y-146931000D01*
X135093367Y-146902997D01*
X135219408Y-146819408D01*
X136050955Y-145987861D01*
X136584085Y-147278132D01*
X137715909Y-148411934D01*
X139195466Y-149026300D01*
X140797506Y-149027698D01*
X142278132Y-148415915D01*
X143411934Y-147284091D01*
X144026300Y-145804534D01*
X144027698Y-144202494D01*
X143415915Y-142721868D01*
X142284091Y-141588066D01*
X141518607Y-141270209D01*
X142469408Y-140319408D01*
X142551292Y-140197496D01*
X142580999Y-140049204D01*
X142579656Y-139406756D01*
X142581000Y-139400000D01*
X142581000Y-62000318D01*
X142585075Y-60050796D01*
X142557073Y-59906633D01*
X142473484Y-59780592D01*
X141450697Y-58757805D01*
X142278132Y-58415915D01*
X143411934Y-57284091D01*
X144026300Y-55804534D01*
X144027698Y-54202494D01*
X143415915Y-52721868D01*
X142284091Y-51588066D01*
X140804534Y-50973700D01*
X139202494Y-50972302D01*
X137721868Y-51584085D01*
X136588066Y-52715909D01*
X136022011Y-54079119D01*
X135223484Y-53280592D01*
X135102306Y-53199017D01*
X134954076Y-53169000D01*
X115950000Y-53169000D01*
X115230172Y-53312183D01*
X114995682Y-53468864D01*
X114708177Y-53587514D01*
X114488286Y-53807021D01*
X114369136Y-54093968D01*
X114369135Y-54095277D01*
X114212183Y-54330172D01*
X114069000Y-55050000D01*
X102021732Y-55050000D01*
X101827828Y-54759803D01*
X101374609Y-54456971D01*
X100840000Y-54350631D01*
X100305391Y-54456971D01*
X99852172Y-54759803D01*
X99549340Y-55213022D01*
X99443000Y-55747631D01*
X94126349Y-55747631D01*
X94127698Y-54202494D01*
X93515915Y-52721868D01*
X92384091Y-51588066D01*
X90904534Y-50973700D01*
X89302494Y-50972302D01*
X87821868Y-51584085D01*
X86688066Y-52715909D01*
X86073700Y-54195466D01*
X86072302Y-55797506D01*
X85456000Y-55797506D01*
X85456000Y-50456000D01*
X144544000Y-50456000D01*
X144544000Y-149544000D01*
D24*
G36*
X142099913Y-140008665D02*
X141108578Y-141000000D01*
X140002344Y-141000000D01*
X139207841Y-140999307D01*
X138481823Y-141299291D01*
X138164301Y-141405132D01*
X138137800Y-141418627D01*
X138062038Y-141472743D01*
X137737142Y-141606987D01*
X136610942Y-142731223D01*
X136516829Y-142957872D01*
X136211124Y-143447000D01*
X136198910Y-143475746D01*
X136043256Y-144098361D01*
X136000695Y-144200860D01*
X136000636Y-144268843D01*
X135998910Y-144275746D01*
X135997285Y-144283560D01*
X135897285Y-144883560D01*
X135895926Y-144900679D01*
X135899718Y-145458860D01*
X134908578Y-146450000D01*
X133095924Y-146450000D01*
X133095924Y-144708274D01*
X133293465Y-143523031D01*
X133687760Y-142241572D01*
X134476199Y-140960358D01*
X135462235Y-139875718D01*
X136744146Y-138988241D01*
X137926617Y-138495545D01*
X139207312Y-138200000D01*
X142096133Y-138200000D01*
X142099913Y-140008665D01*
X142099913Y-140008665D01*
G37*
X142099913Y-140008665D02*
X141108578Y-141000000D01*
X140002344Y-141000000D01*
X139207841Y-140999307D01*
X138481823Y-141299291D01*
X138164301Y-141405132D01*
X138137800Y-141418627D01*
X138062038Y-141472743D01*
X137737142Y-141606987D01*
X136610942Y-142731223D01*
X136516829Y-142957872D01*
X136211124Y-143447000D01*
X136198910Y-143475746D01*
X136043256Y-144098361D01*
X136000695Y-144200860D01*
X136000636Y-144268843D01*
X135998910Y-144275746D01*
X135997285Y-144283560D01*
X135897285Y-144883560D01*
X135895926Y-144900679D01*
X135899718Y-145458860D01*
X134908578Y-146450000D01*
X133095924Y-146450000D01*
X133095924Y-144708274D01*
X133293465Y-143523031D01*
X133687760Y-142241572D01*
X134476199Y-140960358D01*
X135462235Y-139875718D01*
X136744146Y-138988241D01*
X137926617Y-138495545D01*
X139207312Y-138200000D01*
X142096133Y-138200000D01*
X142099913Y-140008665D01*
G36*
X122600000Y-98564492D02*
X122600000Y-101435508D01*
X117378414Y-103800000D01*
X114600000Y-103800000D01*
X114600000Y-96200000D01*
X117378414Y-96200000D01*
X122600000Y-98564492D01*
X122600000Y-98564492D01*
G37*
X122600000Y-98564492D02*
X122600000Y-101435508D01*
X117378414Y-103800000D01*
X114600000Y-103800000D01*
X114600000Y-96200000D01*
X117378414Y-96200000D01*
X122600000Y-98564492D01*
G36*
X122600000Y-122302220D02*
X122600000Y-125173236D01*
X117378414Y-127537728D01*
X114600000Y-127537728D01*
X114600000Y-119937728D01*
X117378414Y-119937728D01*
X122600000Y-122302220D01*
X122600000Y-122302220D01*
G37*
X122600000Y-122302220D02*
X122600000Y-125173236D01*
X117378414Y-127537728D01*
X114600000Y-127537728D01*
X114600000Y-119937728D01*
X117378414Y-119937728D01*
X122600000Y-122302220D01*
G36*
X122550000Y-74814492D02*
X122550000Y-77685508D01*
X117328414Y-80050000D01*
X114550000Y-80050000D01*
X114550000Y-72450000D01*
X117328414Y-72450000D01*
X122550000Y-74814492D01*
X122550000Y-74814492D01*
G37*
X122550000Y-74814492D02*
X122550000Y-77685508D01*
X117328414Y-80050000D01*
X114550000Y-80050000D01*
X114550000Y-72450000D01*
X117328414Y-72450000D01*
X122550000Y-74814492D01*
G36*
X135903794Y-54641140D02*
X135900002Y-55199321D01*
X135901361Y-55216440D01*
X136001361Y-55816440D01*
X136002986Y-55824254D01*
X136202986Y-56624254D01*
X136215200Y-56653000D01*
X136715200Y-57453000D01*
X136729289Y-57470711D01*
X137429289Y-58170711D01*
X137441876Y-58181373D01*
X137727714Y-58385543D01*
X137731223Y-58389058D01*
X137734596Y-58390458D01*
X138141876Y-58681373D01*
X138168377Y-58694868D01*
X139068377Y-58994868D01*
X139088957Y-58999388D01*
X139988957Y-59099388D01*
X140000000Y-59100000D01*
X141112654Y-59100000D01*
X142103989Y-60091335D01*
X142100209Y-61900000D01*
X139211388Y-61900000D01*
X137930693Y-61604455D01*
X136748222Y-61111759D01*
X135466311Y-60224282D01*
X134480275Y-59139642D01*
X133691836Y-57858428D01*
X133297541Y-56576969D01*
X133100000Y-55391726D01*
X133100000Y-53650000D01*
X134912654Y-53650000D01*
X135903794Y-54641140D01*
X135903794Y-54641140D01*
G37*
X135903794Y-54641140D02*
X135900002Y-55199321D01*
X135901361Y-55216440D01*
X136001361Y-55816440D01*
X136002986Y-55824254D01*
X136202986Y-56624254D01*
X136215200Y-56653000D01*
X136715200Y-57453000D01*
X136729289Y-57470711D01*
X137429289Y-58170711D01*
X137441876Y-58181373D01*
X137727714Y-58385543D01*
X137731223Y-58389058D01*
X137734596Y-58390458D01*
X138141876Y-58681373D01*
X138168377Y-58694868D01*
X139068377Y-58994868D01*
X139088957Y-58999388D01*
X139988957Y-59099388D01*
X140000000Y-59100000D01*
X141112654Y-59100000D01*
X142103989Y-60091335D01*
X142100209Y-61900000D01*
X139211388Y-61900000D01*
X137930693Y-61604455D01*
X136748222Y-61111759D01*
X135466311Y-60224282D01*
X134480275Y-59139642D01*
X133691836Y-57858428D01*
X133297541Y-56576969D01*
X133100000Y-55391726D01*
X133100000Y-53650000D01*
X134912654Y-53650000D01*
X135903794Y-54641140D01*
M02*
