G04 #@! TF.FileFunction,Paste,Top*
%FSLAX46Y46*%
G04 Gerber Fmt 4.6, Leading zero omitted, Abs format (unit mm)*
G04 Created by KiCad (PCBNEW 4.0.2-stable) date 06.12.2016 23:46:42*
%MOMM*%
G01*
G04 APERTURE LIST*
%ADD10C,0.100000*%
%ADD11R,0.768000X0.720000*%
%ADD12R,0.960000X1.536000*%
%ADD13R,0.720000X0.768000*%
%ADD14R,1.536000X0.960000*%
%ADD15R,3.225600X4.665600*%
%ADD16R,1.334400X1.344000*%
%ADD17R,2.399386X3.167482*%
%ADD18R,1.056000X1.056000*%
%ADD19R,3.168000X3.897600*%
%ADD20R,0.960000X1.728000*%
%ADD21R,1.536000X5.472000*%
%ADD22R,0.864000X0.480000*%
%ADD23R,0.480000X0.864000*%
%ADD24R,0.480000X0.768000*%
%ADD25R,0.384000X0.768000*%
%ADD26R,1.056000X0.576000*%
%ADD27O,0.768000X0.192000*%
%ADD28O,0.192000X0.768000*%
%ADD29R,1.044000X1.044000*%
G04 APERTURE END LIST*
D10*
D11*
X94100000Y-119800000D03*
X92600000Y-119800000D03*
D12*
X95750000Y-95325000D03*
X92750000Y-95325000D03*
D13*
X88250000Y-92175000D03*
X88250000Y-90675000D03*
D14*
X95550000Y-92125000D03*
X95550000Y-89125000D03*
D11*
X109500000Y-59200000D03*
X108000000Y-59200000D03*
X109500000Y-60900000D03*
X108000000Y-60900000D03*
D13*
X111200000Y-59300000D03*
X111200000Y-60800000D03*
X109800000Y-69300000D03*
X109800000Y-67800000D03*
X113400000Y-67800000D03*
X113400000Y-69300000D03*
X113400000Y-60850000D03*
X113400000Y-59350000D03*
D11*
X118250000Y-63000000D03*
X119750000Y-63000000D03*
X119750000Y-65600000D03*
X118250000Y-65600000D03*
D15*
X89300000Y-116000000D03*
D16*
X88380000Y-119982000D03*
X90220000Y-119982000D03*
D17*
X87198940Y-125500000D03*
X94001060Y-125500000D03*
D18*
X90350000Y-91925000D03*
X93150000Y-91925000D03*
D13*
X98400000Y-139500000D03*
X98400000Y-141000000D03*
D11*
X104700000Y-59200000D03*
X106200000Y-59200000D03*
D13*
X92800000Y-98750000D03*
X92800000Y-97250000D03*
D19*
X111890000Y-100000000D03*
X102110000Y-100000000D03*
D20*
X90350000Y-89525000D03*
X93350000Y-89525000D03*
D21*
X128550000Y-60200000D03*
X123850000Y-60200000D03*
X128550000Y-68400000D03*
X123850000Y-68400000D03*
D22*
X86450000Y-95925000D03*
X86450000Y-94425000D03*
X86450000Y-91675000D03*
X86450000Y-93175000D03*
X100325000Y-141000000D03*
X100325000Y-139500000D03*
D23*
X104700000Y-60900000D03*
X106200000Y-60900000D03*
D22*
X106200000Y-69300000D03*
X106200000Y-67800000D03*
X108000000Y-69300000D03*
X108000000Y-67800000D03*
D23*
X106450000Y-62900000D03*
X107950000Y-62900000D03*
D24*
X100000000Y-72500000D03*
D25*
X98400000Y-72500000D03*
X99200000Y-72500000D03*
D24*
X97600000Y-72500000D03*
D25*
X99200000Y-74300000D03*
D24*
X100000000Y-74300000D03*
D25*
X98400000Y-74300000D03*
D24*
X97600000Y-74300000D03*
D26*
X88250000Y-93875000D03*
X88250000Y-94825000D03*
X88250000Y-95775000D03*
X90950000Y-95775000D03*
X90950000Y-94825000D03*
X90950000Y-93875000D03*
D14*
X131000000Y-63400000D03*
X131000000Y-60400000D03*
X131000000Y-65200000D03*
X131000000Y-68200000D03*
D27*
X110500000Y-62900000D03*
X110500000Y-63300000D03*
X110500000Y-63700000D03*
X110500000Y-64100000D03*
X110500000Y-64500000D03*
X110500000Y-64900000D03*
X110500000Y-65300000D03*
X110500000Y-65700000D03*
D28*
X111100000Y-66300000D03*
X111500000Y-66300000D03*
X111900000Y-66300000D03*
X112300000Y-66300000D03*
X112700000Y-66300000D03*
X113100000Y-66300000D03*
X113500000Y-66300000D03*
X113900000Y-66300000D03*
D27*
X114500000Y-65700000D03*
X114500000Y-65300000D03*
X114500000Y-64900000D03*
X114500000Y-64500000D03*
X114500000Y-64100000D03*
X114500000Y-63700000D03*
X114500000Y-63300000D03*
X114500000Y-62900000D03*
D28*
X113900000Y-62300000D03*
X113500000Y-62300000D03*
X113100000Y-62300000D03*
X112700000Y-62300000D03*
X112300000Y-62300000D03*
X111900000Y-62300000D03*
X111500000Y-62300000D03*
X111100000Y-62300000D03*
D29*
X113200000Y-65000000D03*
X113200000Y-63600000D03*
X111800000Y-65000000D03*
X111800000Y-63600000D03*
D23*
X99340000Y-58610000D03*
X100840000Y-58610000D03*
D11*
X109500000Y-83100000D03*
X108000000Y-83100000D03*
X109500000Y-84800000D03*
X108000000Y-84800000D03*
D13*
X111200000Y-83200000D03*
X111200000Y-84700000D03*
X109800000Y-93150000D03*
X109800000Y-91650000D03*
X113400000Y-84700000D03*
X113400000Y-83200000D03*
X113400000Y-91700000D03*
X113400000Y-93200000D03*
D11*
X118200000Y-86900000D03*
X119700000Y-86900000D03*
X119700000Y-89500000D03*
X118200000Y-89500000D03*
D14*
X131000000Y-87300000D03*
X131000000Y-84300000D03*
X131000000Y-89100000D03*
X131000000Y-92100000D03*
D11*
X104700000Y-83100000D03*
X106200000Y-83100000D03*
D21*
X128550000Y-84100000D03*
X123850000Y-84100000D03*
X128550000Y-92300000D03*
X123850000Y-92300000D03*
D23*
X104700000Y-84800000D03*
X106200000Y-84800000D03*
D22*
X106200000Y-93150000D03*
X106200000Y-91650000D03*
D23*
X106450000Y-86800000D03*
X107950000Y-86800000D03*
D22*
X108000000Y-93150000D03*
X108000000Y-91650000D03*
X111950000Y-96150000D03*
X111950000Y-94650000D03*
D27*
X110500000Y-86800000D03*
X110500000Y-87200000D03*
X110500000Y-87600000D03*
X110500000Y-88000000D03*
X110500000Y-88400000D03*
X110500000Y-88800000D03*
X110500000Y-89200000D03*
X110500000Y-89600000D03*
D28*
X111100000Y-90200000D03*
X111500000Y-90200000D03*
X111900000Y-90200000D03*
X112300000Y-90200000D03*
X112700000Y-90200000D03*
X113100000Y-90200000D03*
X113500000Y-90200000D03*
X113900000Y-90200000D03*
D27*
X114500000Y-89600000D03*
X114500000Y-89200000D03*
X114500000Y-88800000D03*
X114500000Y-88400000D03*
X114500000Y-88000000D03*
X114500000Y-87600000D03*
X114500000Y-87200000D03*
X114500000Y-86800000D03*
D28*
X113900000Y-86200000D03*
X113500000Y-86200000D03*
X113100000Y-86200000D03*
X112700000Y-86200000D03*
X112300000Y-86200000D03*
X111900000Y-86200000D03*
X111500000Y-86200000D03*
X111100000Y-86200000D03*
D29*
X113200000Y-88900000D03*
X113200000Y-87500000D03*
X111800000Y-88900000D03*
X111800000Y-87500000D03*
D11*
X109500000Y-106700000D03*
X108000000Y-106700000D03*
X109500000Y-108400000D03*
X108000000Y-108400000D03*
D13*
X111200000Y-106800000D03*
X111200000Y-108300000D03*
X109800000Y-116775000D03*
X109800000Y-115275000D03*
X113400000Y-115300000D03*
X113400000Y-116800000D03*
X113400000Y-108300000D03*
X113400000Y-106800000D03*
D11*
X118200000Y-110500000D03*
X119700000Y-110500000D03*
X119700000Y-113100000D03*
X118200000Y-113100000D03*
D14*
X131000000Y-110900000D03*
X131000000Y-107900000D03*
X131000000Y-112700000D03*
X131000000Y-115700000D03*
D11*
X104700000Y-106700000D03*
X106200000Y-106700000D03*
D21*
X128550000Y-107700000D03*
X123850000Y-107700000D03*
X128550000Y-115900000D03*
X123850000Y-115900000D03*
D23*
X104700000Y-108400000D03*
X106200000Y-108400000D03*
D22*
X106200000Y-116750000D03*
X106200000Y-115250000D03*
D23*
X106450000Y-110400000D03*
X107950000Y-110400000D03*
D22*
X108000000Y-116750000D03*
X108000000Y-115250000D03*
X108000000Y-120000000D03*
X108000000Y-118500000D03*
D27*
X110500000Y-110400000D03*
X110500000Y-110800000D03*
X110500000Y-111200000D03*
X110500000Y-111600000D03*
X110500000Y-112000000D03*
X110500000Y-112400000D03*
X110500000Y-112800000D03*
X110500000Y-113200000D03*
D28*
X111100000Y-113800000D03*
X111500000Y-113800000D03*
X111900000Y-113800000D03*
X112300000Y-113800000D03*
X112700000Y-113800000D03*
X113100000Y-113800000D03*
X113500000Y-113800000D03*
X113900000Y-113800000D03*
D27*
X114500000Y-113200000D03*
X114500000Y-112800000D03*
X114500000Y-112400000D03*
X114500000Y-112000000D03*
X114500000Y-111600000D03*
X114500000Y-111200000D03*
X114500000Y-110800000D03*
X114500000Y-110400000D03*
D28*
X113900000Y-109800000D03*
X113500000Y-109800000D03*
X113100000Y-109800000D03*
X112700000Y-109800000D03*
X112300000Y-109800000D03*
X111900000Y-109800000D03*
X111500000Y-109800000D03*
X111100000Y-109800000D03*
D29*
X113200000Y-112500000D03*
X113200000Y-111100000D03*
X111800000Y-112500000D03*
X111800000Y-111100000D03*
D11*
X109500000Y-130700000D03*
X108000000Y-130700000D03*
X109500000Y-132400000D03*
X108000000Y-132400000D03*
D13*
X111200000Y-130800000D03*
X111200000Y-132300000D03*
X109800000Y-140800000D03*
X109800000Y-139300000D03*
X113400000Y-139300000D03*
X113400000Y-140800000D03*
X113400000Y-132300000D03*
X113400000Y-130800000D03*
D11*
X118200000Y-134500000D03*
X119700000Y-134500000D03*
X119700000Y-137100000D03*
X118200000Y-137100000D03*
D14*
X131000000Y-134900000D03*
X131000000Y-131900000D03*
X131000000Y-136700000D03*
X131000000Y-139700000D03*
D11*
X104700000Y-130700000D03*
X106200000Y-130700000D03*
D21*
X128550000Y-131700000D03*
X123850000Y-131700000D03*
X128550000Y-139900000D03*
X123850000Y-139900000D03*
D23*
X104700000Y-132400000D03*
X106200000Y-132400000D03*
D22*
X106200000Y-140750000D03*
X106200000Y-139250000D03*
D23*
X106450000Y-134400000D03*
X107950000Y-134400000D03*
D22*
X108000000Y-140750000D03*
X108000000Y-139250000D03*
D27*
X110500000Y-134400000D03*
X110500000Y-134800000D03*
X110500000Y-135200000D03*
X110500000Y-135600000D03*
X110500000Y-136000000D03*
X110500000Y-136400000D03*
X110500000Y-136800000D03*
X110500000Y-137200000D03*
D28*
X111100000Y-137800000D03*
X111500000Y-137800000D03*
X111900000Y-137800000D03*
X112300000Y-137800000D03*
X112700000Y-137800000D03*
X113100000Y-137800000D03*
X113500000Y-137800000D03*
X113900000Y-137800000D03*
D27*
X114500000Y-137200000D03*
X114500000Y-136800000D03*
X114500000Y-136400000D03*
X114500000Y-136000000D03*
X114500000Y-135600000D03*
X114500000Y-135200000D03*
X114500000Y-134800000D03*
X114500000Y-134400000D03*
D28*
X113900000Y-133800000D03*
X113500000Y-133800000D03*
X113100000Y-133800000D03*
X112700000Y-133800000D03*
X112300000Y-133800000D03*
X111900000Y-133800000D03*
X111500000Y-133800000D03*
X111100000Y-133800000D03*
D29*
X113200000Y-136500000D03*
X113200000Y-135100000D03*
X111800000Y-136500000D03*
X111800000Y-135100000D03*
M02*
