G04 #@! TF.FileFunction,Soldermask,Bot*
%FSLAX46Y46*%
G04 Gerber Fmt 4.6, Leading zero omitted, Abs format (unit mm)*
G04 Created by KiCad (PCBNEW 4.0.2-stable) date 06.12.2016 23:46:42*
%MOMM*%
G01*
G04 APERTURE LIST*
%ADD10C,0.100000*%
%ADD11C,6.800000*%
%ADD12C,1.000000*%
%ADD13C,1.700000*%
%ADD14R,1.700000X1.700000*%
%ADD15R,2.940000X2.940000*%
%ADD16C,2.940000*%
%ADD17R,2.127200X2.127200*%
%ADD18O,2.127200X2.127200*%
%ADD19R,2.432000X2.432000*%
%ADD20O,2.432000X2.432000*%
G04 APERTURE END LIST*
D10*
D11*
X140000000Y-145000000D03*
D12*
X142400000Y-145000000D03*
X141697056Y-146697056D03*
X140000000Y-147400000D03*
X138302944Y-146697056D03*
X137600000Y-145000000D03*
X138302944Y-143302944D03*
X140000000Y-142600000D03*
X141697056Y-143302944D03*
D11*
X90000000Y-145000000D03*
D12*
X92400000Y-145000000D03*
X91697056Y-146697056D03*
X90000000Y-147400000D03*
X88302944Y-146697056D03*
X87600000Y-145000000D03*
X88302944Y-143302944D03*
X90000000Y-142600000D03*
X91697056Y-143302944D03*
D11*
X140000000Y-55000000D03*
D12*
X142400000Y-55000000D03*
X141697056Y-56697056D03*
X140000000Y-57400000D03*
X138302944Y-56697056D03*
X137600000Y-55000000D03*
X138302944Y-53302944D03*
X140000000Y-52600000D03*
X141697056Y-53302944D03*
D11*
X90100000Y-55000000D03*
D12*
X92500000Y-55000000D03*
X91797056Y-56697056D03*
X90100000Y-57400000D03*
X88402944Y-56697056D03*
X87700000Y-55000000D03*
X88402944Y-53302944D03*
X90100000Y-52600000D03*
X91797056Y-53302944D03*
D13*
X120150000Y-71000000D03*
D14*
X116650000Y-71000000D03*
D13*
X120100000Y-57600000D03*
D14*
X116600000Y-57600000D03*
D15*
X89900000Y-132760000D03*
D16*
X89900000Y-137840000D03*
D17*
X92500000Y-82620000D03*
D18*
X89960000Y-82620000D03*
X92500000Y-80080000D03*
X89960000Y-80080000D03*
X92500000Y-77540000D03*
X89960000Y-77540000D03*
X92500000Y-75000000D03*
X89960000Y-75000000D03*
X92500000Y-72460000D03*
X89960000Y-72460000D03*
X92500000Y-69920000D03*
X89960000Y-69920000D03*
X92500000Y-67380000D03*
X89960000Y-67380000D03*
X92500000Y-64840000D03*
X89960000Y-64840000D03*
D15*
X136700000Y-68540000D03*
D16*
X136700000Y-63460000D03*
D13*
X120100000Y-81500000D03*
D14*
X116600000Y-81500000D03*
D13*
X120100000Y-94900000D03*
D14*
X116600000Y-94900000D03*
D15*
X136700000Y-91540000D03*
D16*
X136700000Y-86460000D03*
D13*
X120100000Y-105100000D03*
D14*
X116600000Y-105100000D03*
D13*
X120100000Y-118500000D03*
D14*
X116600000Y-118500000D03*
D15*
X136700000Y-113540000D03*
D16*
X136700000Y-108460000D03*
D13*
X120100000Y-129000000D03*
D14*
X116600000Y-129000000D03*
D13*
X120100000Y-142600000D03*
D14*
X116600000Y-142600000D03*
D15*
X136700000Y-136540000D03*
D16*
X136700000Y-131460000D03*
D19*
X98300000Y-55775000D03*
D20*
X100840000Y-55775000D03*
M02*
