G04 #@! TF.FileFunction,Legend,Top*
%FSLAX46Y46*%
G04 Gerber Fmt 4.6, Leading zero omitted, Abs format (unit mm)*
G04 Created by KiCad (PCBNEW 4.0.2-stable) date 06.12.2016 23:46:42*
%MOMM*%
G01*
G04 APERTURE LIST*
%ADD10C,0.100000*%
%ADD11C,0.200000*%
%ADD12C,0.300000*%
%ADD13C,0.150000*%
G04 APERTURE END LIST*
D10*
D11*
X109566667Y-51485714D02*
X109566667Y-52152381D01*
X109328571Y-51104762D02*
X109090476Y-51819048D01*
X109709524Y-51819048D01*
X110090476Y-51771429D02*
X110852381Y-51771429D01*
X111233333Y-51152381D02*
X111900000Y-51152381D01*
X111471428Y-52152381D01*
X109328571Y-52752381D02*
X109423810Y-52752381D01*
X109519048Y-52800000D01*
X109566667Y-52847619D01*
X109614286Y-52942857D01*
X109661905Y-53133333D01*
X109661905Y-53371429D01*
X109614286Y-53561905D01*
X109566667Y-53657143D01*
X109519048Y-53704762D01*
X109423810Y-53752381D01*
X109328571Y-53752381D01*
X109233333Y-53704762D01*
X109185714Y-53657143D01*
X109138095Y-53561905D01*
X109090476Y-53371429D01*
X109090476Y-53133333D01*
X109138095Y-52942857D01*
X109185714Y-52847619D01*
X109233333Y-52800000D01*
X109328571Y-52752381D01*
X110090476Y-53371429D02*
X110852381Y-53371429D01*
X111233333Y-52752381D02*
X111852381Y-52752381D01*
X111519047Y-53133333D01*
X111661905Y-53133333D01*
X111757143Y-53180952D01*
X111804762Y-53228571D01*
X111852381Y-53323810D01*
X111852381Y-53561905D01*
X111804762Y-53657143D01*
X111757143Y-53704762D01*
X111661905Y-53752381D01*
X111376190Y-53752381D01*
X111280952Y-53704762D01*
X111233333Y-53657143D01*
X103905952Y-52152381D02*
X103810714Y-52104762D01*
X103763095Y-52057143D01*
X103715476Y-51961905D01*
X103715476Y-51676190D01*
X103763095Y-51580952D01*
X103810714Y-51533333D01*
X103905952Y-51485714D01*
X104048810Y-51485714D01*
X104144048Y-51533333D01*
X104191667Y-51580952D01*
X104239286Y-51676190D01*
X104239286Y-51961905D01*
X104191667Y-52057143D01*
X104144048Y-52104762D01*
X104048810Y-52152381D01*
X103905952Y-52152381D01*
X104667857Y-51485714D02*
X104667857Y-52485714D01*
X104667857Y-51533333D02*
X104763095Y-51485714D01*
X104953572Y-51485714D01*
X105048810Y-51533333D01*
X105096429Y-51580952D01*
X105144048Y-51676190D01*
X105144048Y-51961905D01*
X105096429Y-52057143D01*
X105048810Y-52104762D01*
X104953572Y-52152381D01*
X104763095Y-52152381D01*
X104667857Y-52104762D01*
X105953572Y-52104762D02*
X105858334Y-52152381D01*
X105667857Y-52152381D01*
X105572619Y-52104762D01*
X105525000Y-52009524D01*
X105525000Y-51628571D01*
X105572619Y-51533333D01*
X105667857Y-51485714D01*
X105858334Y-51485714D01*
X105953572Y-51533333D01*
X106001191Y-51628571D01*
X106001191Y-51723810D01*
X105525000Y-51819048D01*
X106429762Y-51485714D02*
X106429762Y-52152381D01*
X106429762Y-51580952D02*
X106477381Y-51533333D01*
X106572619Y-51485714D01*
X106715477Y-51485714D01*
X106810715Y-51533333D01*
X106858334Y-51628571D01*
X106858334Y-52152381D01*
X104191667Y-53704762D02*
X104096429Y-53752381D01*
X103905952Y-53752381D01*
X103810714Y-53704762D01*
X103763095Y-53657143D01*
X103715476Y-53561905D01*
X103715476Y-53276190D01*
X103763095Y-53180952D01*
X103810714Y-53133333D01*
X103905952Y-53085714D01*
X104096429Y-53085714D01*
X104191667Y-53133333D01*
X104763095Y-53752381D02*
X104667857Y-53704762D01*
X104620238Y-53609524D01*
X104620238Y-52752381D01*
X105286905Y-53752381D02*
X105191667Y-53704762D01*
X105144048Y-53657143D01*
X105096429Y-53561905D01*
X105096429Y-53276190D01*
X105144048Y-53180952D01*
X105191667Y-53133333D01*
X105286905Y-53085714D01*
X105429763Y-53085714D01*
X105525001Y-53133333D01*
X105572620Y-53180952D01*
X105620239Y-53276190D01*
X105620239Y-53561905D01*
X105572620Y-53657143D01*
X105525001Y-53704762D01*
X105429763Y-53752381D01*
X105286905Y-53752381D01*
X106001191Y-53704762D02*
X106096429Y-53752381D01*
X106286905Y-53752381D01*
X106382144Y-53704762D01*
X106429763Y-53609524D01*
X106429763Y-53561905D01*
X106382144Y-53466667D01*
X106286905Y-53419048D01*
X106144048Y-53419048D01*
X106048810Y-53371429D01*
X106001191Y-53276190D01*
X106001191Y-53228571D01*
X106048810Y-53133333D01*
X106144048Y-53085714D01*
X106286905Y-53085714D01*
X106382144Y-53133333D01*
X107239287Y-53704762D02*
X107144049Y-53752381D01*
X106953572Y-53752381D01*
X106858334Y-53704762D01*
X106810715Y-53609524D01*
X106810715Y-53228571D01*
X106858334Y-53133333D01*
X106953572Y-53085714D01*
X107144049Y-53085714D01*
X107239287Y-53133333D01*
X107286906Y-53228571D01*
X107286906Y-53323810D01*
X106810715Y-53419048D01*
X108144049Y-53752381D02*
X108144049Y-52752381D01*
X108144049Y-53704762D02*
X108048811Y-53752381D01*
X107858334Y-53752381D01*
X107763096Y-53704762D01*
X107715477Y-53657143D01*
X107667858Y-53561905D01*
X107667858Y-53276190D01*
X107715477Y-53180952D01*
X107763096Y-53133333D01*
X107858334Y-53085714D01*
X108048811Y-53085714D01*
X108144049Y-53133333D01*
D12*
X143285714Y-137049999D02*
X143357143Y-137121428D01*
X143428571Y-137335714D01*
X143428571Y-137478571D01*
X143357143Y-137692856D01*
X143214286Y-137835714D01*
X143071429Y-137907142D01*
X142785714Y-137978571D01*
X142571429Y-137978571D01*
X142285714Y-137907142D01*
X142142857Y-137835714D01*
X142000000Y-137692856D01*
X141928571Y-137478571D01*
X141928571Y-137335714D01*
X142000000Y-137121428D01*
X142071429Y-137049999D01*
X143428571Y-136407142D02*
X141928571Y-136407142D01*
X143428571Y-135764285D02*
X142642857Y-135764285D01*
X142500000Y-135835714D01*
X142428571Y-135978571D01*
X142428571Y-136192856D01*
X142500000Y-136335714D01*
X142571429Y-136407142D01*
X141928571Y-134049999D02*
X141928571Y-133121428D01*
X142500000Y-133621428D01*
X142500000Y-133407142D01*
X142571429Y-133264285D01*
X142642857Y-133192856D01*
X142785714Y-133121428D01*
X143142857Y-133121428D01*
X143285714Y-133192856D01*
X143357143Y-133264285D01*
X143428571Y-133407142D01*
X143428571Y-133835714D01*
X143357143Y-133978571D01*
X143285714Y-134049999D01*
X141857143Y-131407143D02*
X143785714Y-132692857D01*
X141928571Y-131049999D02*
X141928571Y-130049999D01*
X143428571Y-130692856D01*
X143310714Y-113999999D02*
X143382143Y-114071428D01*
X143453571Y-114285714D01*
X143453571Y-114428571D01*
X143382143Y-114642856D01*
X143239286Y-114785714D01*
X143096429Y-114857142D01*
X142810714Y-114928571D01*
X142596429Y-114928571D01*
X142310714Y-114857142D01*
X142167857Y-114785714D01*
X142025000Y-114642856D01*
X141953571Y-114428571D01*
X141953571Y-114285714D01*
X142025000Y-114071428D01*
X142096429Y-113999999D01*
X143453571Y-113357142D02*
X141953571Y-113357142D01*
X143453571Y-112714285D02*
X142667857Y-112714285D01*
X142525000Y-112785714D01*
X142453571Y-112928571D01*
X142453571Y-113142856D01*
X142525000Y-113285714D01*
X142596429Y-113357142D01*
X142096429Y-110928571D02*
X142025000Y-110857142D01*
X141953571Y-110714285D01*
X141953571Y-110357142D01*
X142025000Y-110214285D01*
X142096429Y-110142856D01*
X142239286Y-110071428D01*
X142382143Y-110071428D01*
X142596429Y-110142856D01*
X143453571Y-110999999D01*
X143453571Y-110071428D01*
X141882143Y-108357143D02*
X143810714Y-109642857D01*
X141953571Y-107214285D02*
X141953571Y-107499999D01*
X142025000Y-107642856D01*
X142096429Y-107714285D01*
X142310714Y-107857142D01*
X142596429Y-107928571D01*
X143167857Y-107928571D01*
X143310714Y-107857142D01*
X143382143Y-107785714D01*
X143453571Y-107642856D01*
X143453571Y-107357142D01*
X143382143Y-107214285D01*
X143310714Y-107142856D01*
X143167857Y-107071428D01*
X142810714Y-107071428D01*
X142667857Y-107142856D01*
X142596429Y-107214285D01*
X142525000Y-107357142D01*
X142525000Y-107642856D01*
X142596429Y-107785714D01*
X142667857Y-107857142D01*
X142810714Y-107928571D01*
X143160714Y-91974999D02*
X143232143Y-92046428D01*
X143303571Y-92260714D01*
X143303571Y-92403571D01*
X143232143Y-92617856D01*
X143089286Y-92760714D01*
X142946429Y-92832142D01*
X142660714Y-92903571D01*
X142446429Y-92903571D01*
X142160714Y-92832142D01*
X142017857Y-92760714D01*
X141875000Y-92617856D01*
X141803571Y-92403571D01*
X141803571Y-92260714D01*
X141875000Y-92046428D01*
X141946429Y-91974999D01*
X143303571Y-91332142D02*
X141803571Y-91332142D01*
X143303571Y-90689285D02*
X142517857Y-90689285D01*
X142375000Y-90760714D01*
X142303571Y-90903571D01*
X142303571Y-91117856D01*
X142375000Y-91260714D01*
X142446429Y-91332142D01*
X143303571Y-88046428D02*
X143303571Y-88903571D01*
X143303571Y-88474999D02*
X141803571Y-88474999D01*
X142017857Y-88617856D01*
X142160714Y-88760714D01*
X142232143Y-88903571D01*
X141732143Y-86332143D02*
X143660714Y-87617857D01*
X141803571Y-85117856D02*
X141803571Y-85832142D01*
X142517857Y-85903571D01*
X142446429Y-85832142D01*
X142375000Y-85689285D01*
X142375000Y-85332142D01*
X142446429Y-85189285D01*
X142517857Y-85117856D01*
X142660714Y-85046428D01*
X143017857Y-85046428D01*
X143160714Y-85117856D01*
X143232143Y-85189285D01*
X143303571Y-85332142D01*
X143303571Y-85689285D01*
X143232143Y-85832142D01*
X143160714Y-85903571D01*
X143135714Y-68974999D02*
X143207143Y-69046428D01*
X143278571Y-69260714D01*
X143278571Y-69403571D01*
X143207143Y-69617856D01*
X143064286Y-69760714D01*
X142921429Y-69832142D01*
X142635714Y-69903571D01*
X142421429Y-69903571D01*
X142135714Y-69832142D01*
X141992857Y-69760714D01*
X141850000Y-69617856D01*
X141778571Y-69403571D01*
X141778571Y-69260714D01*
X141850000Y-69046428D01*
X141921429Y-68974999D01*
X143278571Y-68332142D02*
X141778571Y-68332142D01*
X143278571Y-67689285D02*
X142492857Y-67689285D01*
X142350000Y-67760714D01*
X142278571Y-67903571D01*
X142278571Y-68117856D01*
X142350000Y-68260714D01*
X142421429Y-68332142D01*
X141778571Y-65546428D02*
X141778571Y-65403571D01*
X141850000Y-65260714D01*
X141921429Y-65189285D01*
X142064286Y-65117856D01*
X142350000Y-65046428D01*
X142707143Y-65046428D01*
X142992857Y-65117856D01*
X143135714Y-65189285D01*
X143207143Y-65260714D01*
X143278571Y-65403571D01*
X143278571Y-65546428D01*
X143207143Y-65689285D01*
X143135714Y-65760714D01*
X142992857Y-65832142D01*
X142707143Y-65903571D01*
X142350000Y-65903571D01*
X142064286Y-65832142D01*
X141921429Y-65760714D01*
X141850000Y-65689285D01*
X141778571Y-65546428D01*
X141707143Y-63332143D02*
X143635714Y-64617857D01*
X142278571Y-62189285D02*
X143278571Y-62189285D01*
X141707143Y-62546428D02*
X142778571Y-62903571D01*
X142778571Y-61974999D01*
D13*
X87650000Y-108275000D02*
X85400000Y-108275000D01*
X97275000Y-108275000D02*
X95025000Y-108275000D01*
X97275000Y-96775000D02*
X95025000Y-96775000D01*
X87650000Y-96775000D02*
X85400000Y-96775000D01*
X85400000Y-88025000D02*
X97275000Y-88025000D01*
X85400000Y-99525000D02*
X97275000Y-99525000D01*
X97275000Y-99525000D02*
X97275000Y-108275000D01*
X85400000Y-108275000D02*
X85400000Y-99525000D01*
X85400000Y-96775000D02*
X85400000Y-88025000D01*
X97275000Y-88025000D02*
X97275000Y-96775000D01*
X89025000Y-103525000D02*
X89025000Y-102500000D01*
X87675000Y-103525000D02*
X87675000Y-102500000D01*
X88825000Y-107950000D02*
X90725000Y-107950000D01*
X88825000Y-104850000D02*
X90725000Y-104850000D01*
X87300000Y-104525000D02*
X87300000Y-103500000D01*
X85950000Y-104525000D02*
X85950000Y-103500000D01*
X85950000Y-107275000D02*
X85950000Y-106250000D01*
X87300000Y-107275000D02*
X87300000Y-106250000D01*
X89925000Y-104400000D02*
X92925000Y-104400000D01*
X89900000Y-102600000D02*
X92900000Y-102600000D01*
X91050000Y-102200000D02*
X92975000Y-102200000D01*
X91025000Y-100000000D02*
X93025000Y-100000000D01*
X96750000Y-103200000D02*
X96750000Y-101175000D01*
X94700000Y-103175000D02*
X94700000Y-101200000D01*
X93425000Y-105875000D02*
X95425000Y-105875000D01*
X93425000Y-107925000D02*
X95425000Y-107925000D01*
D11*
X97347619Y-60221429D02*
X97347619Y-60792858D01*
X96347619Y-60507143D02*
X97347619Y-60507143D01*
X96347619Y-61126191D02*
X97347619Y-61126191D01*
X97347619Y-61364286D01*
X97300000Y-61507144D01*
X97204762Y-61602382D01*
X97109524Y-61650001D01*
X96919048Y-61697620D01*
X96776190Y-61697620D01*
X96585714Y-61650001D01*
X96490476Y-61602382D01*
X96395238Y-61507144D01*
X96347619Y-61364286D01*
X96347619Y-61126191D01*
X96347619Y-62126191D02*
X97347619Y-62126191D01*
X96633333Y-62459525D01*
X97347619Y-62792858D01*
X96347619Y-62792858D01*
X96347619Y-64030953D02*
X97014286Y-64030953D01*
X97347619Y-64030953D02*
X97300000Y-63983334D01*
X97252381Y-64030953D01*
X97300000Y-64078572D01*
X97347619Y-64030953D01*
X97252381Y-64030953D01*
X97014286Y-64507143D02*
X96347619Y-64507143D01*
X96919048Y-64507143D02*
X96966667Y-64554762D01*
X97014286Y-64650000D01*
X97014286Y-64792858D01*
X96966667Y-64888096D01*
X96871429Y-64935715D01*
X96347619Y-64935715D01*
X96382142Y-51952381D02*
X96953571Y-51952381D01*
X96667856Y-52952381D02*
X96667856Y-51952381D01*
X97286904Y-52952381D02*
X97286904Y-51952381D01*
X97524999Y-51952381D01*
X97667857Y-52000000D01*
X97763095Y-52095238D01*
X97810714Y-52190476D01*
X97858333Y-52380952D01*
X97858333Y-52523810D01*
X97810714Y-52714286D01*
X97763095Y-52809524D01*
X97667857Y-52904762D01*
X97524999Y-52952381D01*
X97286904Y-52952381D01*
X98286904Y-52952381D02*
X98286904Y-51952381D01*
X98620238Y-52666667D01*
X98953571Y-51952381D01*
X98953571Y-52952381D01*
X100144047Y-52904762D02*
X100239285Y-52952381D01*
X100429761Y-52952381D01*
X100525000Y-52904762D01*
X100572619Y-52809524D01*
X100572619Y-52761905D01*
X100525000Y-52666667D01*
X100429761Y-52619048D01*
X100286904Y-52619048D01*
X100191666Y-52571429D01*
X100144047Y-52476190D01*
X100144047Y-52428571D01*
X100191666Y-52333333D01*
X100286904Y-52285714D01*
X100429761Y-52285714D01*
X100525000Y-52333333D01*
X101144047Y-52952381D02*
X101048809Y-52904762D01*
X101001190Y-52809524D01*
X101001190Y-51952381D01*
X101667857Y-52952381D02*
X101572619Y-52904762D01*
X101525000Y-52857143D01*
X101477381Y-52761905D01*
X101477381Y-52476190D01*
X101525000Y-52380952D01*
X101572619Y-52333333D01*
X101667857Y-52285714D01*
X101810715Y-52285714D01*
X101905953Y-52333333D01*
X101953572Y-52380952D01*
X102001191Y-52476190D01*
X102001191Y-52761905D01*
X101953572Y-52857143D01*
X101905953Y-52904762D01*
X101810715Y-52952381D01*
X101667857Y-52952381D01*
X102286905Y-52285714D02*
X102667857Y-52285714D01*
X102429762Y-51952381D02*
X102429762Y-52809524D01*
X102477381Y-52904762D01*
X102572619Y-52952381D01*
X102667857Y-52952381D01*
D12*
X95342857Y-130550000D02*
X95342857Y-131692857D01*
X94771429Y-131121428D02*
X95914286Y-131121428D01*
X94771429Y-133550000D02*
X96271429Y-133550000D01*
X96271429Y-134121428D01*
X96200000Y-134264286D01*
X96128571Y-134335714D01*
X95985714Y-134407143D01*
X95771429Y-134407143D01*
X95628571Y-134335714D01*
X95557143Y-134264286D01*
X95485714Y-134121428D01*
X95485714Y-133550000D01*
X96271429Y-134907143D02*
X94771429Y-135264286D01*
X95842857Y-135550000D01*
X94771429Y-135835714D01*
X96271429Y-136192857D01*
X94771429Y-137621429D02*
X95485714Y-137121429D01*
X94771429Y-136764286D02*
X96271429Y-136764286D01*
X96271429Y-137335714D01*
X96200000Y-137478572D01*
X96128571Y-137550000D01*
X95985714Y-137621429D01*
X95771429Y-137621429D01*
X95628571Y-137550000D01*
X95557143Y-137478572D01*
X95485714Y-137335714D01*
X95485714Y-136764286D01*
X95342857Y-139407143D02*
X95342857Y-140550000D01*
X136328572Y-127657143D02*
X137471429Y-127657143D01*
X136900000Y-128228571D02*
X136900000Y-127085714D01*
X137007143Y-140871428D02*
X137007143Y-139728571D01*
X136228572Y-104757143D02*
X137371429Y-104757143D01*
X136800000Y-105328571D02*
X136800000Y-104185714D01*
X136907143Y-117971428D02*
X136907143Y-116828571D01*
X136128572Y-82707143D02*
X137271429Y-82707143D01*
X136700000Y-83278571D02*
X136700000Y-82135714D01*
X136807143Y-95921428D02*
X136807143Y-94778571D01*
X136757143Y-72921428D02*
X136757143Y-71778571D01*
X136078572Y-59707143D02*
X137221429Y-59707143D01*
X136650000Y-60278571D02*
X136650000Y-59135714D01*
D13*
X118475000Y-67001000D02*
X118475000Y-74999000D01*
X118615000Y-67006000D02*
X118615000Y-74994000D01*
X118755000Y-67016000D02*
X118755000Y-74984000D01*
X118895000Y-67031000D02*
X118895000Y-74969000D01*
X119035000Y-67051000D02*
X119035000Y-74949000D01*
X119175000Y-67076000D02*
X119175000Y-70778000D01*
X119175000Y-71222000D02*
X119175000Y-74924000D01*
X119315000Y-67106000D02*
X119315000Y-70450000D01*
X119315000Y-71550000D02*
X119315000Y-74894000D01*
X119455000Y-67142000D02*
X119455000Y-70281000D01*
X119455000Y-71719000D02*
X119455000Y-74858000D01*
X119595000Y-67183000D02*
X119595000Y-70168000D01*
X119595000Y-71832000D02*
X119595000Y-74817000D01*
X119735000Y-67229000D02*
X119735000Y-70090000D01*
X119735000Y-71910000D02*
X119735000Y-74771000D01*
X119875000Y-67282000D02*
X119875000Y-70039000D01*
X119875000Y-71961000D02*
X119875000Y-74718000D01*
X120015000Y-67341000D02*
X120015000Y-70009000D01*
X120015000Y-71991000D02*
X120015000Y-74659000D01*
X120155000Y-67406000D02*
X120155000Y-70000000D01*
X120155000Y-72000000D02*
X120155000Y-74594000D01*
X120295000Y-67477000D02*
X120295000Y-70011000D01*
X120295000Y-71989000D02*
X120295000Y-74523000D01*
X120435000Y-67556000D02*
X120435000Y-70041000D01*
X120435000Y-71959000D02*
X120435000Y-74444000D01*
X120575000Y-67643000D02*
X120575000Y-70095000D01*
X120575000Y-71905000D02*
X120575000Y-74357000D01*
X120715000Y-67738000D02*
X120715000Y-70175000D01*
X120715000Y-71825000D02*
X120715000Y-74262000D01*
X120855000Y-67842000D02*
X120855000Y-70291000D01*
X120855000Y-71709000D02*
X120855000Y-74158000D01*
X120995000Y-67956000D02*
X120995000Y-70465000D01*
X120995000Y-71535000D02*
X120995000Y-74044000D01*
X121135000Y-68081000D02*
X121135000Y-70827000D01*
X121135000Y-71173000D02*
X121135000Y-73919000D01*
X121275000Y-68219000D02*
X121275000Y-73781000D01*
X121415000Y-68371000D02*
X121415000Y-73629000D01*
X121555000Y-68541000D02*
X121555000Y-73459000D01*
X121695000Y-68732000D02*
X121695000Y-73268000D01*
X121835000Y-68950000D02*
X121835000Y-73050000D01*
X121975000Y-69206000D02*
X121975000Y-72794000D01*
X122115000Y-69517000D02*
X122115000Y-72483000D01*
X122255000Y-69933000D02*
X122255000Y-72067000D01*
X122395000Y-70800000D02*
X122395000Y-71200000D01*
X121150000Y-71000000D02*
G75*
G03X121150000Y-71000000I-1000000J0D01*
G01*
X122437500Y-71000000D02*
G75*
G03X122437500Y-71000000I-4037500J0D01*
G01*
X93700000Y-120400000D02*
X93000000Y-120400000D01*
X93000000Y-119200000D02*
X93700000Y-119200000D01*
X93250000Y-96350000D02*
X95250000Y-96350000D01*
X95250000Y-94300000D02*
X93250000Y-94300000D01*
X87650000Y-91775000D02*
X87650000Y-91075000D01*
X88850000Y-91075000D02*
X88850000Y-91775000D01*
X94525000Y-89625000D02*
X94525000Y-91625000D01*
X96575000Y-91625000D02*
X96575000Y-89625000D01*
X109100000Y-59800000D02*
X108400000Y-59800000D01*
X108400000Y-58600000D02*
X109100000Y-58600000D01*
X109100000Y-61500000D02*
X108400000Y-61500000D01*
X108400000Y-60300000D02*
X109100000Y-60300000D01*
X111800000Y-59700000D02*
X111800000Y-60400000D01*
X110600000Y-60400000D02*
X110600000Y-59700000D01*
X109200000Y-68900000D02*
X109200000Y-68200000D01*
X110400000Y-68200000D02*
X110400000Y-68900000D01*
X114000000Y-68200000D02*
X114000000Y-68900000D01*
X112800000Y-68900000D02*
X112800000Y-68200000D01*
X112800000Y-60450000D02*
X112800000Y-59750000D01*
X114000000Y-59750000D02*
X114000000Y-60450000D01*
X118425000Y-53601000D02*
X118425000Y-61599000D01*
X118565000Y-53606000D02*
X118565000Y-61594000D01*
X118705000Y-53616000D02*
X118705000Y-61584000D01*
X118845000Y-53631000D02*
X118845000Y-61569000D01*
X118985000Y-53651000D02*
X118985000Y-61549000D01*
X119125000Y-53676000D02*
X119125000Y-57378000D01*
X119125000Y-57822000D02*
X119125000Y-61524000D01*
X119265000Y-53706000D02*
X119265000Y-57050000D01*
X119265000Y-58150000D02*
X119265000Y-61494000D01*
X119405000Y-53742000D02*
X119405000Y-56881000D01*
X119405000Y-58319000D02*
X119405000Y-61458000D01*
X119545000Y-53783000D02*
X119545000Y-56768000D01*
X119545000Y-58432000D02*
X119545000Y-61417000D01*
X119685000Y-53829000D02*
X119685000Y-56690000D01*
X119685000Y-58510000D02*
X119685000Y-61371000D01*
X119825000Y-53882000D02*
X119825000Y-56639000D01*
X119825000Y-58561000D02*
X119825000Y-61318000D01*
X119965000Y-53941000D02*
X119965000Y-56609000D01*
X119965000Y-58591000D02*
X119965000Y-61259000D01*
X120105000Y-54006000D02*
X120105000Y-56600000D01*
X120105000Y-58600000D02*
X120105000Y-61194000D01*
X120245000Y-54077000D02*
X120245000Y-56611000D01*
X120245000Y-58589000D02*
X120245000Y-61123000D01*
X120385000Y-54156000D02*
X120385000Y-56641000D01*
X120385000Y-58559000D02*
X120385000Y-61044000D01*
X120525000Y-54243000D02*
X120525000Y-56695000D01*
X120525000Y-58505000D02*
X120525000Y-60957000D01*
X120665000Y-54338000D02*
X120665000Y-56775000D01*
X120665000Y-58425000D02*
X120665000Y-60862000D01*
X120805000Y-54442000D02*
X120805000Y-56891000D01*
X120805000Y-58309000D02*
X120805000Y-60758000D01*
X120945000Y-54556000D02*
X120945000Y-57065000D01*
X120945000Y-58135000D02*
X120945000Y-60644000D01*
X121085000Y-54681000D02*
X121085000Y-57427000D01*
X121085000Y-57773000D02*
X121085000Y-60519000D01*
X121225000Y-54819000D02*
X121225000Y-60381000D01*
X121365000Y-54971000D02*
X121365000Y-60229000D01*
X121505000Y-55141000D02*
X121505000Y-60059000D01*
X121645000Y-55332000D02*
X121645000Y-59868000D01*
X121785000Y-55550000D02*
X121785000Y-59650000D01*
X121925000Y-55806000D02*
X121925000Y-59394000D01*
X122065000Y-56117000D02*
X122065000Y-59083000D01*
X122205000Y-56533000D02*
X122205000Y-58667000D01*
X122345000Y-57400000D02*
X122345000Y-57800000D01*
X121100000Y-57600000D02*
G75*
G03X121100000Y-57600000I-1000000J0D01*
G01*
X122387500Y-57600000D02*
G75*
G03X122387500Y-57600000I-4037500J0D01*
G01*
X118650000Y-62400000D02*
X119350000Y-62400000D01*
X119350000Y-63600000D02*
X118650000Y-63600000D01*
X119350000Y-66200000D02*
X118650000Y-66200000D01*
X118650000Y-65000000D02*
X119350000Y-65000000D01*
X91550000Y-120500000D02*
X91550000Y-113650000D01*
X87050000Y-120500000D02*
X87050000Y-113650000D01*
X87450540Y-128901060D02*
X87450540Y-127699640D01*
X87450540Y-122098940D02*
X87450540Y-123300360D01*
X94199180Y-128901060D02*
X94199180Y-127699640D01*
X94199180Y-122098940D02*
X94199180Y-123300360D01*
X87000820Y-128901060D02*
X87000820Y-127648840D01*
X87000820Y-122098940D02*
X87000820Y-123351160D01*
X87000820Y-128901060D02*
X94199180Y-128901060D01*
X87000820Y-122098940D02*
X94199180Y-122098940D01*
X89750000Y-92825000D02*
X92750000Y-92825000D01*
X89750000Y-91025000D02*
X92750000Y-91025000D01*
X99000000Y-139900000D02*
X99000000Y-140600000D01*
X97800000Y-140600000D02*
X97800000Y-139900000D01*
X105100000Y-58600000D02*
X105800000Y-58600000D01*
X105800000Y-59800000D02*
X105100000Y-59800000D01*
X92200000Y-98350000D02*
X92200000Y-97650000D01*
X93400000Y-97650000D02*
X93400000Y-98350000D01*
X104200000Y-102000000D02*
X109800000Y-102000000D01*
X104200000Y-98000000D02*
X109800000Y-98000000D01*
X92850000Y-88425000D02*
X90850000Y-88425000D01*
X90850000Y-90625000D02*
X92850000Y-90625000D01*
X123000000Y-63400000D02*
X129400000Y-63400000D01*
X123000000Y-57000000D02*
X129400000Y-57000000D01*
X125203405Y-62801307D02*
G75*
G03X127200000Y-62800000I996595J2601307D01*
G01*
X127196595Y-57598693D02*
G75*
G03X125200000Y-57600000I-996595J-2601307D01*
G01*
X123000000Y-71600000D02*
X129400000Y-71600000D01*
X123000000Y-65200000D02*
X129400000Y-65200000D01*
X125203405Y-71001307D02*
G75*
G03X127200000Y-71000000I996595J2601307D01*
G01*
X127196595Y-65798693D02*
G75*
G03X125200000Y-65800000I-996595J-2601307D01*
G01*
X87360000Y-140380000D02*
X87360000Y-130220000D01*
X85900000Y-140380000D02*
X93900000Y-140380000D01*
X93900000Y-140380000D02*
X93900000Y-130220000D01*
X93900000Y-130220000D02*
X85900000Y-130220000D01*
X85850000Y-130220000D02*
X85850000Y-140380000D01*
X86680000Y-87700000D02*
X86680000Y-59760000D01*
X87230000Y-87160000D02*
X87230000Y-60320000D01*
X95780000Y-87700000D02*
X95780000Y-59760000D01*
X95230000Y-87160000D02*
X95230000Y-75980000D01*
X95230000Y-71480000D02*
X95230000Y-60320000D01*
X95230000Y-75980000D02*
X95780000Y-75980000D01*
X95230000Y-71480000D02*
X95780000Y-71480000D01*
X86680000Y-87700000D02*
X95780000Y-87700000D01*
X87230000Y-87160000D02*
X95230000Y-87160000D01*
X86680000Y-59760000D02*
X95780000Y-59760000D01*
X87230000Y-60320000D02*
X95230000Y-60320000D01*
X86680000Y-87700000D02*
X87230000Y-87160000D01*
X86680000Y-59760000D02*
X87230000Y-60320000D01*
X95780000Y-87700000D02*
X95230000Y-87160000D01*
X95780000Y-59760000D02*
X95230000Y-60320000D01*
X139240000Y-60920000D02*
X139240000Y-71080000D01*
X140700000Y-60920000D02*
X132700000Y-60920000D01*
X132700000Y-60920000D02*
X132700000Y-71080000D01*
X132700000Y-71080000D02*
X140700000Y-71080000D01*
X140750000Y-71080000D02*
X140750000Y-60920000D01*
X87125000Y-94675000D02*
X87125000Y-95675000D01*
X85775000Y-95675000D02*
X85775000Y-94675000D01*
X85775000Y-92925000D02*
X85775000Y-91925000D01*
X87125000Y-91925000D02*
X87125000Y-92925000D01*
X101000000Y-139750000D02*
X101000000Y-140750000D01*
X99650000Y-140750000D02*
X99650000Y-139750000D01*
X105950000Y-61575000D02*
X104950000Y-61575000D01*
X104950000Y-60225000D02*
X105950000Y-60225000D01*
X106875000Y-68050000D02*
X106875000Y-69050000D01*
X105525000Y-69050000D02*
X105525000Y-68050000D01*
X108675000Y-68050000D02*
X108675000Y-69050000D01*
X107325000Y-69050000D02*
X107325000Y-68050000D01*
X107700000Y-63575000D02*
X106700000Y-63575000D01*
X106700000Y-62225000D02*
X107700000Y-62225000D01*
X97125000Y-73900000D02*
X97125000Y-72900000D01*
X100475000Y-73900000D02*
X100475000Y-72900000D01*
D10*
X88500000Y-93275000D02*
G75*
G03X88500000Y-93275000I-50000J0D01*
G01*
X88650000Y-96375000D02*
X90550000Y-96375000D01*
X88650000Y-93275000D02*
X90550000Y-93275000D01*
D13*
X129975000Y-60900000D02*
X129975000Y-62900000D01*
X132025000Y-62900000D02*
X132025000Y-60900000D01*
X132025000Y-67700000D02*
X132025000Y-65700000D01*
X129975000Y-65700000D02*
X129975000Y-67700000D01*
X110700000Y-62050000D02*
X110250000Y-62500000D01*
X114750000Y-62050000D02*
X114750000Y-62475000D01*
X110250000Y-66550000D02*
X110250000Y-66125000D01*
X114750000Y-66550000D02*
X114750000Y-66125000D01*
X110250000Y-66550000D02*
X110675000Y-66550000D01*
X114750000Y-66550000D02*
X114325000Y-66550000D01*
X114750000Y-62050000D02*
X114325000Y-62050000D01*
X100590000Y-59285000D02*
X99590000Y-59285000D01*
X99590000Y-57935000D02*
X100590000Y-57935000D01*
X109100000Y-83700000D02*
X108400000Y-83700000D01*
X108400000Y-82500000D02*
X109100000Y-82500000D01*
X109100000Y-85400000D02*
X108400000Y-85400000D01*
X108400000Y-84200000D02*
X109100000Y-84200000D01*
X111800000Y-83600000D02*
X111800000Y-84300000D01*
X110600000Y-84300000D02*
X110600000Y-83600000D01*
X109200000Y-92750000D02*
X109200000Y-92050000D01*
X110400000Y-92050000D02*
X110400000Y-92750000D01*
X112800000Y-84300000D02*
X112800000Y-83600000D01*
X114000000Y-83600000D02*
X114000000Y-84300000D01*
X114000000Y-92100000D02*
X114000000Y-92800000D01*
X112800000Y-92800000D02*
X112800000Y-92100000D01*
X118425000Y-77501000D02*
X118425000Y-85499000D01*
X118565000Y-77506000D02*
X118565000Y-85494000D01*
X118705000Y-77516000D02*
X118705000Y-85484000D01*
X118845000Y-77531000D02*
X118845000Y-85469000D01*
X118985000Y-77551000D02*
X118985000Y-85449000D01*
X119125000Y-77576000D02*
X119125000Y-81278000D01*
X119125000Y-81722000D02*
X119125000Y-85424000D01*
X119265000Y-77606000D02*
X119265000Y-80950000D01*
X119265000Y-82050000D02*
X119265000Y-85394000D01*
X119405000Y-77642000D02*
X119405000Y-80781000D01*
X119405000Y-82219000D02*
X119405000Y-85358000D01*
X119545000Y-77683000D02*
X119545000Y-80668000D01*
X119545000Y-82332000D02*
X119545000Y-85317000D01*
X119685000Y-77729000D02*
X119685000Y-80590000D01*
X119685000Y-82410000D02*
X119685000Y-85271000D01*
X119825000Y-77782000D02*
X119825000Y-80539000D01*
X119825000Y-82461000D02*
X119825000Y-85218000D01*
X119965000Y-77841000D02*
X119965000Y-80509000D01*
X119965000Y-82491000D02*
X119965000Y-85159000D01*
X120105000Y-77906000D02*
X120105000Y-80500000D01*
X120105000Y-82500000D02*
X120105000Y-85094000D01*
X120245000Y-77977000D02*
X120245000Y-80511000D01*
X120245000Y-82489000D02*
X120245000Y-85023000D01*
X120385000Y-78056000D02*
X120385000Y-80541000D01*
X120385000Y-82459000D02*
X120385000Y-84944000D01*
X120525000Y-78143000D02*
X120525000Y-80595000D01*
X120525000Y-82405000D02*
X120525000Y-84857000D01*
X120665000Y-78238000D02*
X120665000Y-80675000D01*
X120665000Y-82325000D02*
X120665000Y-84762000D01*
X120805000Y-78342000D02*
X120805000Y-80791000D01*
X120805000Y-82209000D02*
X120805000Y-84658000D01*
X120945000Y-78456000D02*
X120945000Y-80965000D01*
X120945000Y-82035000D02*
X120945000Y-84544000D01*
X121085000Y-78581000D02*
X121085000Y-81327000D01*
X121085000Y-81673000D02*
X121085000Y-84419000D01*
X121225000Y-78719000D02*
X121225000Y-84281000D01*
X121365000Y-78871000D02*
X121365000Y-84129000D01*
X121505000Y-79041000D02*
X121505000Y-83959000D01*
X121645000Y-79232000D02*
X121645000Y-83768000D01*
X121785000Y-79450000D02*
X121785000Y-83550000D01*
X121925000Y-79706000D02*
X121925000Y-83294000D01*
X122065000Y-80017000D02*
X122065000Y-82983000D01*
X122205000Y-80433000D02*
X122205000Y-82567000D01*
X122345000Y-81300000D02*
X122345000Y-81700000D01*
X121100000Y-81500000D02*
G75*
G03X121100000Y-81500000I-1000000J0D01*
G01*
X122387500Y-81500000D02*
G75*
G03X122387500Y-81500000I-4037500J0D01*
G01*
X118425000Y-90901000D02*
X118425000Y-98899000D01*
X118565000Y-90906000D02*
X118565000Y-98894000D01*
X118705000Y-90916000D02*
X118705000Y-98884000D01*
X118845000Y-90931000D02*
X118845000Y-98869000D01*
X118985000Y-90951000D02*
X118985000Y-98849000D01*
X119125000Y-90976000D02*
X119125000Y-94678000D01*
X119125000Y-95122000D02*
X119125000Y-98824000D01*
X119265000Y-91006000D02*
X119265000Y-94350000D01*
X119265000Y-95450000D02*
X119265000Y-98794000D01*
X119405000Y-91042000D02*
X119405000Y-94181000D01*
X119405000Y-95619000D02*
X119405000Y-98758000D01*
X119545000Y-91083000D02*
X119545000Y-94068000D01*
X119545000Y-95732000D02*
X119545000Y-98717000D01*
X119685000Y-91129000D02*
X119685000Y-93990000D01*
X119685000Y-95810000D02*
X119685000Y-98671000D01*
X119825000Y-91182000D02*
X119825000Y-93939000D01*
X119825000Y-95861000D02*
X119825000Y-98618000D01*
X119965000Y-91241000D02*
X119965000Y-93909000D01*
X119965000Y-95891000D02*
X119965000Y-98559000D01*
X120105000Y-91306000D02*
X120105000Y-93900000D01*
X120105000Y-95900000D02*
X120105000Y-98494000D01*
X120245000Y-91377000D02*
X120245000Y-93911000D01*
X120245000Y-95889000D02*
X120245000Y-98423000D01*
X120385000Y-91456000D02*
X120385000Y-93941000D01*
X120385000Y-95859000D02*
X120385000Y-98344000D01*
X120525000Y-91543000D02*
X120525000Y-93995000D01*
X120525000Y-95805000D02*
X120525000Y-98257000D01*
X120665000Y-91638000D02*
X120665000Y-94075000D01*
X120665000Y-95725000D02*
X120665000Y-98162000D01*
X120805000Y-91742000D02*
X120805000Y-94191000D01*
X120805000Y-95609000D02*
X120805000Y-98058000D01*
X120945000Y-91856000D02*
X120945000Y-94365000D01*
X120945000Y-95435000D02*
X120945000Y-97944000D01*
X121085000Y-91981000D02*
X121085000Y-94727000D01*
X121085000Y-95073000D02*
X121085000Y-97819000D01*
X121225000Y-92119000D02*
X121225000Y-97681000D01*
X121365000Y-92271000D02*
X121365000Y-97529000D01*
X121505000Y-92441000D02*
X121505000Y-97359000D01*
X121645000Y-92632000D02*
X121645000Y-97168000D01*
X121785000Y-92850000D02*
X121785000Y-96950000D01*
X121925000Y-93106000D02*
X121925000Y-96694000D01*
X122065000Y-93417000D02*
X122065000Y-96383000D01*
X122205000Y-93833000D02*
X122205000Y-95967000D01*
X122345000Y-94700000D02*
X122345000Y-95100000D01*
X121100000Y-94900000D02*
G75*
G03X121100000Y-94900000I-1000000J0D01*
G01*
X122387500Y-94900000D02*
G75*
G03X122387500Y-94900000I-4037500J0D01*
G01*
X118600000Y-86300000D02*
X119300000Y-86300000D01*
X119300000Y-87500000D02*
X118600000Y-87500000D01*
X119300000Y-90100000D02*
X118600000Y-90100000D01*
X118600000Y-88900000D02*
X119300000Y-88900000D01*
X129975000Y-84800000D02*
X129975000Y-86800000D01*
X132025000Y-86800000D02*
X132025000Y-84800000D01*
X132025000Y-91600000D02*
X132025000Y-89600000D01*
X129975000Y-89600000D02*
X129975000Y-91600000D01*
X105100000Y-82500000D02*
X105800000Y-82500000D01*
X105800000Y-83700000D02*
X105100000Y-83700000D01*
X123000000Y-87300000D02*
X129400000Y-87300000D01*
X123000000Y-80900000D02*
X129400000Y-80900000D01*
X125203405Y-86701307D02*
G75*
G03X127200000Y-86700000I996595J2601307D01*
G01*
X127196595Y-81498693D02*
G75*
G03X125200000Y-81500000I-996595J-2601307D01*
G01*
X123000000Y-95500000D02*
X129400000Y-95500000D01*
X123000000Y-89100000D02*
X129400000Y-89100000D01*
X125203405Y-94901307D02*
G75*
G03X127200000Y-94900000I996595J2601307D01*
G01*
X127196595Y-89698693D02*
G75*
G03X125200000Y-89700000I-996595J-2601307D01*
G01*
X139240000Y-83920000D02*
X139240000Y-94080000D01*
X140700000Y-83920000D02*
X132700000Y-83920000D01*
X132700000Y-83920000D02*
X132700000Y-94080000D01*
X132700000Y-94080000D02*
X140700000Y-94080000D01*
X140750000Y-94080000D02*
X140750000Y-83920000D01*
X105950000Y-85475000D02*
X104950000Y-85475000D01*
X104950000Y-84125000D02*
X105950000Y-84125000D01*
X106875000Y-91900000D02*
X106875000Y-92900000D01*
X105525000Y-92900000D02*
X105525000Y-91900000D01*
X107700000Y-87475000D02*
X106700000Y-87475000D01*
X106700000Y-86125000D02*
X107700000Y-86125000D01*
X108675000Y-91900000D02*
X108675000Y-92900000D01*
X107325000Y-92900000D02*
X107325000Y-91900000D01*
X112625000Y-94900000D02*
X112625000Y-95900000D01*
X111275000Y-95900000D02*
X111275000Y-94900000D01*
X110700000Y-85950000D02*
X110250000Y-86400000D01*
X114750000Y-85950000D02*
X114750000Y-86375000D01*
X110250000Y-90450000D02*
X110250000Y-90025000D01*
X114750000Y-90450000D02*
X114750000Y-90025000D01*
X110250000Y-90450000D02*
X110675000Y-90450000D01*
X114750000Y-90450000D02*
X114325000Y-90450000D01*
X114750000Y-85950000D02*
X114325000Y-85950000D01*
X109100000Y-107300000D02*
X108400000Y-107300000D01*
X108400000Y-106100000D02*
X109100000Y-106100000D01*
X109100000Y-109000000D02*
X108400000Y-109000000D01*
X108400000Y-107800000D02*
X109100000Y-107800000D01*
X111800000Y-107200000D02*
X111800000Y-107900000D01*
X110600000Y-107900000D02*
X110600000Y-107200000D01*
X109200000Y-116375000D02*
X109200000Y-115675000D01*
X110400000Y-115675000D02*
X110400000Y-116375000D01*
X114000000Y-115700000D02*
X114000000Y-116400000D01*
X112800000Y-116400000D02*
X112800000Y-115700000D01*
X112800000Y-107900000D02*
X112800000Y-107200000D01*
X114000000Y-107200000D02*
X114000000Y-107900000D01*
X118425000Y-101101000D02*
X118425000Y-109099000D01*
X118565000Y-101106000D02*
X118565000Y-109094000D01*
X118705000Y-101116000D02*
X118705000Y-109084000D01*
X118845000Y-101131000D02*
X118845000Y-109069000D01*
X118985000Y-101151000D02*
X118985000Y-109049000D01*
X119125000Y-101176000D02*
X119125000Y-104878000D01*
X119125000Y-105322000D02*
X119125000Y-109024000D01*
X119265000Y-101206000D02*
X119265000Y-104550000D01*
X119265000Y-105650000D02*
X119265000Y-108994000D01*
X119405000Y-101242000D02*
X119405000Y-104381000D01*
X119405000Y-105819000D02*
X119405000Y-108958000D01*
X119545000Y-101283000D02*
X119545000Y-104268000D01*
X119545000Y-105932000D02*
X119545000Y-108917000D01*
X119685000Y-101329000D02*
X119685000Y-104190000D01*
X119685000Y-106010000D02*
X119685000Y-108871000D01*
X119825000Y-101382000D02*
X119825000Y-104139000D01*
X119825000Y-106061000D02*
X119825000Y-108818000D01*
X119965000Y-101441000D02*
X119965000Y-104109000D01*
X119965000Y-106091000D02*
X119965000Y-108759000D01*
X120105000Y-101506000D02*
X120105000Y-104100000D01*
X120105000Y-106100000D02*
X120105000Y-108694000D01*
X120245000Y-101577000D02*
X120245000Y-104111000D01*
X120245000Y-106089000D02*
X120245000Y-108623000D01*
X120385000Y-101656000D02*
X120385000Y-104141000D01*
X120385000Y-106059000D02*
X120385000Y-108544000D01*
X120525000Y-101743000D02*
X120525000Y-104195000D01*
X120525000Y-106005000D02*
X120525000Y-108457000D01*
X120665000Y-101838000D02*
X120665000Y-104275000D01*
X120665000Y-105925000D02*
X120665000Y-108362000D01*
X120805000Y-101942000D02*
X120805000Y-104391000D01*
X120805000Y-105809000D02*
X120805000Y-108258000D01*
X120945000Y-102056000D02*
X120945000Y-104565000D01*
X120945000Y-105635000D02*
X120945000Y-108144000D01*
X121085000Y-102181000D02*
X121085000Y-104927000D01*
X121085000Y-105273000D02*
X121085000Y-108019000D01*
X121225000Y-102319000D02*
X121225000Y-107881000D01*
X121365000Y-102471000D02*
X121365000Y-107729000D01*
X121505000Y-102641000D02*
X121505000Y-107559000D01*
X121645000Y-102832000D02*
X121645000Y-107368000D01*
X121785000Y-103050000D02*
X121785000Y-107150000D01*
X121925000Y-103306000D02*
X121925000Y-106894000D01*
X122065000Y-103617000D02*
X122065000Y-106583000D01*
X122205000Y-104033000D02*
X122205000Y-106167000D01*
X122345000Y-104900000D02*
X122345000Y-105300000D01*
X121100000Y-105100000D02*
G75*
G03X121100000Y-105100000I-1000000J0D01*
G01*
X122387500Y-105100000D02*
G75*
G03X122387500Y-105100000I-4037500J0D01*
G01*
X118425000Y-114501000D02*
X118425000Y-122499000D01*
X118565000Y-114506000D02*
X118565000Y-122494000D01*
X118705000Y-114516000D02*
X118705000Y-122484000D01*
X118845000Y-114531000D02*
X118845000Y-122469000D01*
X118985000Y-114551000D02*
X118985000Y-122449000D01*
X119125000Y-114576000D02*
X119125000Y-118278000D01*
X119125000Y-118722000D02*
X119125000Y-122424000D01*
X119265000Y-114606000D02*
X119265000Y-117950000D01*
X119265000Y-119050000D02*
X119265000Y-122394000D01*
X119405000Y-114642000D02*
X119405000Y-117781000D01*
X119405000Y-119219000D02*
X119405000Y-122358000D01*
X119545000Y-114683000D02*
X119545000Y-117668000D01*
X119545000Y-119332000D02*
X119545000Y-122317000D01*
X119685000Y-114729000D02*
X119685000Y-117590000D01*
X119685000Y-119410000D02*
X119685000Y-122271000D01*
X119825000Y-114782000D02*
X119825000Y-117539000D01*
X119825000Y-119461000D02*
X119825000Y-122218000D01*
X119965000Y-114841000D02*
X119965000Y-117509000D01*
X119965000Y-119491000D02*
X119965000Y-122159000D01*
X120105000Y-114906000D02*
X120105000Y-117500000D01*
X120105000Y-119500000D02*
X120105000Y-122094000D01*
X120245000Y-114977000D02*
X120245000Y-117511000D01*
X120245000Y-119489000D02*
X120245000Y-122023000D01*
X120385000Y-115056000D02*
X120385000Y-117541000D01*
X120385000Y-119459000D02*
X120385000Y-121944000D01*
X120525000Y-115143000D02*
X120525000Y-117595000D01*
X120525000Y-119405000D02*
X120525000Y-121857000D01*
X120665000Y-115238000D02*
X120665000Y-117675000D01*
X120665000Y-119325000D02*
X120665000Y-121762000D01*
X120805000Y-115342000D02*
X120805000Y-117791000D01*
X120805000Y-119209000D02*
X120805000Y-121658000D01*
X120945000Y-115456000D02*
X120945000Y-117965000D01*
X120945000Y-119035000D02*
X120945000Y-121544000D01*
X121085000Y-115581000D02*
X121085000Y-118327000D01*
X121085000Y-118673000D02*
X121085000Y-121419000D01*
X121225000Y-115719000D02*
X121225000Y-121281000D01*
X121365000Y-115871000D02*
X121365000Y-121129000D01*
X121505000Y-116041000D02*
X121505000Y-120959000D01*
X121645000Y-116232000D02*
X121645000Y-120768000D01*
X121785000Y-116450000D02*
X121785000Y-120550000D01*
X121925000Y-116706000D02*
X121925000Y-120294000D01*
X122065000Y-117017000D02*
X122065000Y-119983000D01*
X122205000Y-117433000D02*
X122205000Y-119567000D01*
X122345000Y-118300000D02*
X122345000Y-118700000D01*
X121100000Y-118500000D02*
G75*
G03X121100000Y-118500000I-1000000J0D01*
G01*
X122387500Y-118500000D02*
G75*
G03X122387500Y-118500000I-4037500J0D01*
G01*
X118600000Y-109900000D02*
X119300000Y-109900000D01*
X119300000Y-111100000D02*
X118600000Y-111100000D01*
X119300000Y-113700000D02*
X118600000Y-113700000D01*
X118600000Y-112500000D02*
X119300000Y-112500000D01*
X129975000Y-108400000D02*
X129975000Y-110400000D01*
X132025000Y-110400000D02*
X132025000Y-108400000D01*
X132025000Y-115200000D02*
X132025000Y-113200000D01*
X129975000Y-113200000D02*
X129975000Y-115200000D01*
X105100000Y-106100000D02*
X105800000Y-106100000D01*
X105800000Y-107300000D02*
X105100000Y-107300000D01*
X123000000Y-110900000D02*
X129400000Y-110900000D01*
X123000000Y-104500000D02*
X129400000Y-104500000D01*
X125203405Y-110301307D02*
G75*
G03X127200000Y-110300000I996595J2601307D01*
G01*
X127196595Y-105098693D02*
G75*
G03X125200000Y-105100000I-996595J-2601307D01*
G01*
X123000000Y-119100000D02*
X129400000Y-119100000D01*
X123000000Y-112700000D02*
X129400000Y-112700000D01*
X125203405Y-118501307D02*
G75*
G03X127200000Y-118500000I996595J2601307D01*
G01*
X127196595Y-113298693D02*
G75*
G03X125200000Y-113300000I-996595J-2601307D01*
G01*
X139240000Y-105920000D02*
X139240000Y-116080000D01*
X140700000Y-105920000D02*
X132700000Y-105920000D01*
X132700000Y-105920000D02*
X132700000Y-116080000D01*
X132700000Y-116080000D02*
X140700000Y-116080000D01*
X140750000Y-116080000D02*
X140750000Y-105920000D01*
X105950000Y-109075000D02*
X104950000Y-109075000D01*
X104950000Y-107725000D02*
X105950000Y-107725000D01*
X106875000Y-115500000D02*
X106875000Y-116500000D01*
X105525000Y-116500000D02*
X105525000Y-115500000D01*
X107700000Y-111075000D02*
X106700000Y-111075000D01*
X106700000Y-109725000D02*
X107700000Y-109725000D01*
X108675000Y-115500000D02*
X108675000Y-116500000D01*
X107325000Y-116500000D02*
X107325000Y-115500000D01*
X108675000Y-118750000D02*
X108675000Y-119750000D01*
X107325000Y-119750000D02*
X107325000Y-118750000D01*
X110700000Y-109550000D02*
X110250000Y-110000000D01*
X114750000Y-109550000D02*
X114750000Y-109975000D01*
X110250000Y-114050000D02*
X110250000Y-113625000D01*
X114750000Y-114050000D02*
X114750000Y-113625000D01*
X110250000Y-114050000D02*
X110675000Y-114050000D01*
X114750000Y-114050000D02*
X114325000Y-114050000D01*
X114750000Y-109550000D02*
X114325000Y-109550000D01*
X109100000Y-131300000D02*
X108400000Y-131300000D01*
X108400000Y-130100000D02*
X109100000Y-130100000D01*
X109100000Y-133000000D02*
X108400000Y-133000000D01*
X108400000Y-131800000D02*
X109100000Y-131800000D01*
X111800000Y-131200000D02*
X111800000Y-131900000D01*
X110600000Y-131900000D02*
X110600000Y-131200000D01*
X109200000Y-140400000D02*
X109200000Y-139700000D01*
X110400000Y-139700000D02*
X110400000Y-140400000D01*
X114000000Y-139700000D02*
X114000000Y-140400000D01*
X112800000Y-140400000D02*
X112800000Y-139700000D01*
X112800000Y-131900000D02*
X112800000Y-131200000D01*
X114000000Y-131200000D02*
X114000000Y-131900000D01*
X118425000Y-125001000D02*
X118425000Y-132999000D01*
X118565000Y-125006000D02*
X118565000Y-132994000D01*
X118705000Y-125016000D02*
X118705000Y-132984000D01*
X118845000Y-125031000D02*
X118845000Y-132969000D01*
X118985000Y-125051000D02*
X118985000Y-132949000D01*
X119125000Y-125076000D02*
X119125000Y-128778000D01*
X119125000Y-129222000D02*
X119125000Y-132924000D01*
X119265000Y-125106000D02*
X119265000Y-128450000D01*
X119265000Y-129550000D02*
X119265000Y-132894000D01*
X119405000Y-125142000D02*
X119405000Y-128281000D01*
X119405000Y-129719000D02*
X119405000Y-132858000D01*
X119545000Y-125183000D02*
X119545000Y-128168000D01*
X119545000Y-129832000D02*
X119545000Y-132817000D01*
X119685000Y-125229000D02*
X119685000Y-128090000D01*
X119685000Y-129910000D02*
X119685000Y-132771000D01*
X119825000Y-125282000D02*
X119825000Y-128039000D01*
X119825000Y-129961000D02*
X119825000Y-132718000D01*
X119965000Y-125341000D02*
X119965000Y-128009000D01*
X119965000Y-129991000D02*
X119965000Y-132659000D01*
X120105000Y-125406000D02*
X120105000Y-128000000D01*
X120105000Y-130000000D02*
X120105000Y-132594000D01*
X120245000Y-125477000D02*
X120245000Y-128011000D01*
X120245000Y-129989000D02*
X120245000Y-132523000D01*
X120385000Y-125556000D02*
X120385000Y-128041000D01*
X120385000Y-129959000D02*
X120385000Y-132444000D01*
X120525000Y-125643000D02*
X120525000Y-128095000D01*
X120525000Y-129905000D02*
X120525000Y-132357000D01*
X120665000Y-125738000D02*
X120665000Y-128175000D01*
X120665000Y-129825000D02*
X120665000Y-132262000D01*
X120805000Y-125842000D02*
X120805000Y-128291000D01*
X120805000Y-129709000D02*
X120805000Y-132158000D01*
X120945000Y-125956000D02*
X120945000Y-128465000D01*
X120945000Y-129535000D02*
X120945000Y-132044000D01*
X121085000Y-126081000D02*
X121085000Y-128827000D01*
X121085000Y-129173000D02*
X121085000Y-131919000D01*
X121225000Y-126219000D02*
X121225000Y-131781000D01*
X121365000Y-126371000D02*
X121365000Y-131629000D01*
X121505000Y-126541000D02*
X121505000Y-131459000D01*
X121645000Y-126732000D02*
X121645000Y-131268000D01*
X121785000Y-126950000D02*
X121785000Y-131050000D01*
X121925000Y-127206000D02*
X121925000Y-130794000D01*
X122065000Y-127517000D02*
X122065000Y-130483000D01*
X122205000Y-127933000D02*
X122205000Y-130067000D01*
X122345000Y-128800000D02*
X122345000Y-129200000D01*
X121100000Y-129000000D02*
G75*
G03X121100000Y-129000000I-1000000J0D01*
G01*
X122387500Y-129000000D02*
G75*
G03X122387500Y-129000000I-4037500J0D01*
G01*
X118425000Y-138601000D02*
X118425000Y-146599000D01*
X118565000Y-138606000D02*
X118565000Y-146594000D01*
X118705000Y-138616000D02*
X118705000Y-146584000D01*
X118845000Y-138631000D02*
X118845000Y-146569000D01*
X118985000Y-138651000D02*
X118985000Y-146549000D01*
X119125000Y-138676000D02*
X119125000Y-142378000D01*
X119125000Y-142822000D02*
X119125000Y-146524000D01*
X119265000Y-138706000D02*
X119265000Y-142050000D01*
X119265000Y-143150000D02*
X119265000Y-146494000D01*
X119405000Y-138742000D02*
X119405000Y-141881000D01*
X119405000Y-143319000D02*
X119405000Y-146458000D01*
X119545000Y-138783000D02*
X119545000Y-141768000D01*
X119545000Y-143432000D02*
X119545000Y-146417000D01*
X119685000Y-138829000D02*
X119685000Y-141690000D01*
X119685000Y-143510000D02*
X119685000Y-146371000D01*
X119825000Y-138882000D02*
X119825000Y-141639000D01*
X119825000Y-143561000D02*
X119825000Y-146318000D01*
X119965000Y-138941000D02*
X119965000Y-141609000D01*
X119965000Y-143591000D02*
X119965000Y-146259000D01*
X120105000Y-139006000D02*
X120105000Y-141600000D01*
X120105000Y-143600000D02*
X120105000Y-146194000D01*
X120245000Y-139077000D02*
X120245000Y-141611000D01*
X120245000Y-143589000D02*
X120245000Y-146123000D01*
X120385000Y-139156000D02*
X120385000Y-141641000D01*
X120385000Y-143559000D02*
X120385000Y-146044000D01*
X120525000Y-139243000D02*
X120525000Y-141695000D01*
X120525000Y-143505000D02*
X120525000Y-145957000D01*
X120665000Y-139338000D02*
X120665000Y-141775000D01*
X120665000Y-143425000D02*
X120665000Y-145862000D01*
X120805000Y-139442000D02*
X120805000Y-141891000D01*
X120805000Y-143309000D02*
X120805000Y-145758000D01*
X120945000Y-139556000D02*
X120945000Y-142065000D01*
X120945000Y-143135000D02*
X120945000Y-145644000D01*
X121085000Y-139681000D02*
X121085000Y-142427000D01*
X121085000Y-142773000D02*
X121085000Y-145519000D01*
X121225000Y-139819000D02*
X121225000Y-145381000D01*
X121365000Y-139971000D02*
X121365000Y-145229000D01*
X121505000Y-140141000D02*
X121505000Y-145059000D01*
X121645000Y-140332000D02*
X121645000Y-144868000D01*
X121785000Y-140550000D02*
X121785000Y-144650000D01*
X121925000Y-140806000D02*
X121925000Y-144394000D01*
X122065000Y-141117000D02*
X122065000Y-144083000D01*
X122205000Y-141533000D02*
X122205000Y-143667000D01*
X122345000Y-142400000D02*
X122345000Y-142800000D01*
X121100000Y-142600000D02*
G75*
G03X121100000Y-142600000I-1000000J0D01*
G01*
X122387500Y-142600000D02*
G75*
G03X122387500Y-142600000I-4037500J0D01*
G01*
X118600000Y-133900000D02*
X119300000Y-133900000D01*
X119300000Y-135100000D02*
X118600000Y-135100000D01*
X119300000Y-137700000D02*
X118600000Y-137700000D01*
X118600000Y-136500000D02*
X119300000Y-136500000D01*
X129975000Y-132400000D02*
X129975000Y-134400000D01*
X132025000Y-134400000D02*
X132025000Y-132400000D01*
X132025000Y-139200000D02*
X132025000Y-137200000D01*
X129975000Y-137200000D02*
X129975000Y-139200000D01*
X105100000Y-130100000D02*
X105800000Y-130100000D01*
X105800000Y-131300000D02*
X105100000Y-131300000D01*
X123000000Y-134900000D02*
X129400000Y-134900000D01*
X123000000Y-128500000D02*
X129400000Y-128500000D01*
X125203405Y-134301307D02*
G75*
G03X127200000Y-134300000I996595J2601307D01*
G01*
X127196595Y-129098693D02*
G75*
G03X125200000Y-129100000I-996595J-2601307D01*
G01*
X123000000Y-143100000D02*
X129400000Y-143100000D01*
X123000000Y-136700000D02*
X129400000Y-136700000D01*
X125203405Y-142501307D02*
G75*
G03X127200000Y-142500000I996595J2601307D01*
G01*
X127196595Y-137298693D02*
G75*
G03X125200000Y-137300000I-996595J-2601307D01*
G01*
X139240000Y-128920000D02*
X139240000Y-139080000D01*
X140700000Y-128920000D02*
X132700000Y-128920000D01*
X132700000Y-128920000D02*
X132700000Y-139080000D01*
X132700000Y-139080000D02*
X140700000Y-139080000D01*
X140750000Y-139080000D02*
X140750000Y-128920000D01*
X105950000Y-133075000D02*
X104950000Y-133075000D01*
X104950000Y-131725000D02*
X105950000Y-131725000D01*
X106875000Y-139500000D02*
X106875000Y-140500000D01*
X105525000Y-140500000D02*
X105525000Y-139500000D01*
X107700000Y-135075000D02*
X106700000Y-135075000D01*
X106700000Y-133725000D02*
X107700000Y-133725000D01*
X108675000Y-139500000D02*
X108675000Y-140500000D01*
X107325000Y-140500000D02*
X107325000Y-139500000D01*
X110700000Y-133550000D02*
X110250000Y-134000000D01*
X114750000Y-133550000D02*
X114750000Y-133975000D01*
X110250000Y-138050000D02*
X110250000Y-137625000D01*
X114750000Y-138050000D02*
X114750000Y-137625000D01*
X110250000Y-138050000D02*
X110675000Y-138050000D01*
X114750000Y-138050000D02*
X114325000Y-138050000D01*
X114750000Y-133550000D02*
X114325000Y-133550000D01*
X99570000Y-54505000D02*
X102110000Y-54505000D01*
X96750000Y-54225000D02*
X98300000Y-54225000D01*
X99570000Y-54505000D02*
X99570000Y-57045000D01*
X98300000Y-57325000D02*
X96750000Y-57325000D01*
X96750000Y-57325000D02*
X96750000Y-54225000D01*
X99570000Y-57045000D02*
X102110000Y-57045000D01*
X102110000Y-57045000D02*
X102110000Y-54505000D01*
X122257143Y-75457143D02*
X122209524Y-75504762D01*
X122066667Y-75552381D01*
X121971429Y-75552381D01*
X121828571Y-75504762D01*
X121733333Y-75409524D01*
X121685714Y-75314286D01*
X121638095Y-75123810D01*
X121638095Y-74980952D01*
X121685714Y-74790476D01*
X121733333Y-74695238D01*
X121828571Y-74600000D01*
X121971429Y-74552381D01*
X122066667Y-74552381D01*
X122209524Y-74600000D01*
X122257143Y-74647619D01*
X123209524Y-75552381D02*
X122638095Y-75552381D01*
X122923809Y-75552381D02*
X122923809Y-74552381D01*
X122828571Y-74695238D01*
X122733333Y-74790476D01*
X122638095Y-74838095D01*
X123590476Y-74647619D02*
X123638095Y-74600000D01*
X123733333Y-74552381D01*
X123971429Y-74552381D01*
X124066667Y-74600000D01*
X124114286Y-74647619D01*
X124161905Y-74742857D01*
X124161905Y-74838095D01*
X124114286Y-74980952D01*
X123542857Y-75552381D01*
X124161905Y-75552381D01*
X93133334Y-118657143D02*
X93085715Y-118704762D01*
X92942858Y-118752381D01*
X92847620Y-118752381D01*
X92704762Y-118704762D01*
X92609524Y-118609524D01*
X92561905Y-118514286D01*
X92514286Y-118323810D01*
X92514286Y-118180952D01*
X92561905Y-117990476D01*
X92609524Y-117895238D01*
X92704762Y-117800000D01*
X92847620Y-117752381D01*
X92942858Y-117752381D01*
X93085715Y-117800000D01*
X93133334Y-117847619D01*
X94085715Y-118752381D02*
X93514286Y-118752381D01*
X93800000Y-118752381D02*
X93800000Y-117752381D01*
X93704762Y-117895238D01*
X93609524Y-117990476D01*
X93514286Y-118038095D01*
X94208334Y-107232143D02*
X94160715Y-107279762D01*
X94017858Y-107327381D01*
X93922620Y-107327381D01*
X93779762Y-107279762D01*
X93684524Y-107184524D01*
X93636905Y-107089286D01*
X93589286Y-106898810D01*
X93589286Y-106755952D01*
X93636905Y-106565476D01*
X93684524Y-106470238D01*
X93779762Y-106375000D01*
X93922620Y-106327381D01*
X94017858Y-106327381D01*
X94160715Y-106375000D01*
X94208334Y-106422619D01*
X94589286Y-106422619D02*
X94636905Y-106375000D01*
X94732143Y-106327381D01*
X94970239Y-106327381D01*
X95065477Y-106375000D01*
X95113096Y-106422619D01*
X95160715Y-106517857D01*
X95160715Y-106613095D01*
X95113096Y-106755952D01*
X94541667Y-107327381D01*
X95160715Y-107327381D01*
X88757143Y-103141666D02*
X88804762Y-103189285D01*
X88852381Y-103332142D01*
X88852381Y-103427380D01*
X88804762Y-103570238D01*
X88709524Y-103665476D01*
X88614286Y-103713095D01*
X88423810Y-103760714D01*
X88280952Y-103760714D01*
X88090476Y-103713095D01*
X87995238Y-103665476D01*
X87900000Y-103570238D01*
X87852381Y-103427380D01*
X87852381Y-103332142D01*
X87900000Y-103189285D01*
X87947619Y-103141666D01*
X87852381Y-102808333D02*
X87852381Y-102189285D01*
X88233333Y-102522619D01*
X88233333Y-102379761D01*
X88280952Y-102284523D01*
X88328571Y-102236904D01*
X88423810Y-102189285D01*
X88661905Y-102189285D01*
X88757143Y-102236904D01*
X88804762Y-102284523D01*
X88852381Y-102379761D01*
X88852381Y-102665476D01*
X88804762Y-102760714D01*
X88757143Y-102808333D01*
X96132143Y-102391666D02*
X96179762Y-102439285D01*
X96227381Y-102582142D01*
X96227381Y-102677380D01*
X96179762Y-102820238D01*
X96084524Y-102915476D01*
X95989286Y-102963095D01*
X95798810Y-103010714D01*
X95655952Y-103010714D01*
X95465476Y-102963095D01*
X95370238Y-102915476D01*
X95275000Y-102820238D01*
X95227381Y-102677380D01*
X95227381Y-102582142D01*
X95275000Y-102439285D01*
X95322619Y-102391666D01*
X95560714Y-101534523D02*
X96227381Y-101534523D01*
X95179762Y-101772619D02*
X95894048Y-102010714D01*
X95894048Y-101391666D01*
X108583334Y-56507143D02*
X108535715Y-56554762D01*
X108392858Y-56602381D01*
X108297620Y-56602381D01*
X108154762Y-56554762D01*
X108059524Y-56459524D01*
X108011905Y-56364286D01*
X107964286Y-56173810D01*
X107964286Y-56030952D01*
X108011905Y-55840476D01*
X108059524Y-55745238D01*
X108154762Y-55650000D01*
X108297620Y-55602381D01*
X108392858Y-55602381D01*
X108535715Y-55650000D01*
X108583334Y-55697619D01*
X109488096Y-55602381D02*
X109011905Y-55602381D01*
X108964286Y-56078571D01*
X109011905Y-56030952D01*
X109107143Y-55983333D01*
X109345239Y-55983333D01*
X109440477Y-56030952D01*
X109488096Y-56078571D01*
X109535715Y-56173810D01*
X109535715Y-56411905D01*
X109488096Y-56507143D01*
X109440477Y-56554762D01*
X109345239Y-56602381D01*
X109107143Y-56602381D01*
X109011905Y-56554762D01*
X108964286Y-56507143D01*
X108583334Y-58007143D02*
X108535715Y-58054762D01*
X108392858Y-58102381D01*
X108297620Y-58102381D01*
X108154762Y-58054762D01*
X108059524Y-57959524D01*
X108011905Y-57864286D01*
X107964286Y-57673810D01*
X107964286Y-57530952D01*
X108011905Y-57340476D01*
X108059524Y-57245238D01*
X108154762Y-57150000D01*
X108297620Y-57102381D01*
X108392858Y-57102381D01*
X108535715Y-57150000D01*
X108583334Y-57197619D01*
X109440477Y-57102381D02*
X109250000Y-57102381D01*
X109154762Y-57150000D01*
X109107143Y-57197619D01*
X109011905Y-57340476D01*
X108964286Y-57530952D01*
X108964286Y-57911905D01*
X109011905Y-58007143D01*
X109059524Y-58054762D01*
X109154762Y-58102381D01*
X109345239Y-58102381D01*
X109440477Y-58054762D01*
X109488096Y-58007143D01*
X109535715Y-57911905D01*
X109535715Y-57673810D01*
X109488096Y-57578571D01*
X109440477Y-57530952D01*
X109345239Y-57483333D01*
X109154762Y-57483333D01*
X109059524Y-57530952D01*
X109011905Y-57578571D01*
X108964286Y-57673810D01*
X111607143Y-57466666D02*
X111654762Y-57514285D01*
X111702381Y-57657142D01*
X111702381Y-57752380D01*
X111654762Y-57895238D01*
X111559524Y-57990476D01*
X111464286Y-58038095D01*
X111273810Y-58085714D01*
X111130952Y-58085714D01*
X110940476Y-58038095D01*
X110845238Y-57990476D01*
X110750000Y-57895238D01*
X110702381Y-57752380D01*
X110702381Y-57657142D01*
X110750000Y-57514285D01*
X110797619Y-57466666D01*
X110702381Y-57133333D02*
X110702381Y-56466666D01*
X111702381Y-56895238D01*
X110207143Y-72666666D02*
X110254762Y-72714285D01*
X110302381Y-72857142D01*
X110302381Y-72952380D01*
X110254762Y-73095238D01*
X110159524Y-73190476D01*
X110064286Y-73238095D01*
X109873810Y-73285714D01*
X109730952Y-73285714D01*
X109540476Y-73238095D01*
X109445238Y-73190476D01*
X109350000Y-73095238D01*
X109302381Y-72952380D01*
X109302381Y-72857142D01*
X109350000Y-72714285D01*
X109397619Y-72666666D01*
X109730952Y-72095238D02*
X109683333Y-72190476D01*
X109635714Y-72238095D01*
X109540476Y-72285714D01*
X109492857Y-72285714D01*
X109397619Y-72238095D01*
X109350000Y-72190476D01*
X109302381Y-72095238D01*
X109302381Y-71904761D01*
X109350000Y-71809523D01*
X109397619Y-71761904D01*
X109492857Y-71714285D01*
X109540476Y-71714285D01*
X109635714Y-71761904D01*
X109683333Y-71809523D01*
X109730952Y-71904761D01*
X109730952Y-72095238D01*
X109778571Y-72190476D01*
X109826190Y-72238095D01*
X109921429Y-72285714D01*
X110111905Y-72285714D01*
X110207143Y-72238095D01*
X110254762Y-72190476D01*
X110302381Y-72095238D01*
X110302381Y-71904761D01*
X110254762Y-71809523D01*
X110207143Y-71761904D01*
X110111905Y-71714285D01*
X109921429Y-71714285D01*
X109826190Y-71761904D01*
X109778571Y-71809523D01*
X109730952Y-71904761D01*
X113757143Y-72666666D02*
X113804762Y-72714285D01*
X113852381Y-72857142D01*
X113852381Y-72952380D01*
X113804762Y-73095238D01*
X113709524Y-73190476D01*
X113614286Y-73238095D01*
X113423810Y-73285714D01*
X113280952Y-73285714D01*
X113090476Y-73238095D01*
X112995238Y-73190476D01*
X112900000Y-73095238D01*
X112852381Y-72952380D01*
X112852381Y-72857142D01*
X112900000Y-72714285D01*
X112947619Y-72666666D01*
X113852381Y-72190476D02*
X113852381Y-72000000D01*
X113804762Y-71904761D01*
X113757143Y-71857142D01*
X113614286Y-71761904D01*
X113423810Y-71714285D01*
X113042857Y-71714285D01*
X112947619Y-71761904D01*
X112900000Y-71809523D01*
X112852381Y-71904761D01*
X112852381Y-72095238D01*
X112900000Y-72190476D01*
X112947619Y-72238095D01*
X113042857Y-72285714D01*
X113280952Y-72285714D01*
X113376190Y-72238095D01*
X113423810Y-72190476D01*
X113471429Y-72095238D01*
X113471429Y-71904761D01*
X113423810Y-71809523D01*
X113376190Y-71761904D01*
X113280952Y-71714285D01*
X113757143Y-56192857D02*
X113804762Y-56240476D01*
X113852381Y-56383333D01*
X113852381Y-56478571D01*
X113804762Y-56621429D01*
X113709524Y-56716667D01*
X113614286Y-56764286D01*
X113423810Y-56811905D01*
X113280952Y-56811905D01*
X113090476Y-56764286D01*
X112995238Y-56716667D01*
X112900000Y-56621429D01*
X112852381Y-56478571D01*
X112852381Y-56383333D01*
X112900000Y-56240476D01*
X112947619Y-56192857D01*
X113852381Y-55240476D02*
X113852381Y-55811905D01*
X113852381Y-55526191D02*
X112852381Y-55526191D01*
X112995238Y-55621429D01*
X113090476Y-55716667D01*
X113138095Y-55811905D01*
X112852381Y-54621429D02*
X112852381Y-54526190D01*
X112900000Y-54430952D01*
X112947619Y-54383333D01*
X113042857Y-54335714D01*
X113233333Y-54288095D01*
X113471429Y-54288095D01*
X113661905Y-54335714D01*
X113757143Y-54383333D01*
X113804762Y-54430952D01*
X113852381Y-54526190D01*
X113852381Y-54621429D01*
X113804762Y-54716667D01*
X113757143Y-54764286D01*
X113661905Y-54811905D01*
X113471429Y-54859524D01*
X113233333Y-54859524D01*
X113042857Y-54811905D01*
X112947619Y-54764286D01*
X112900000Y-54716667D01*
X112852381Y-54621429D01*
X122357143Y-54257143D02*
X122309524Y-54304762D01*
X122166667Y-54352381D01*
X122071429Y-54352381D01*
X121928571Y-54304762D01*
X121833333Y-54209524D01*
X121785714Y-54114286D01*
X121738095Y-53923810D01*
X121738095Y-53780952D01*
X121785714Y-53590476D01*
X121833333Y-53495238D01*
X121928571Y-53400000D01*
X122071429Y-53352381D01*
X122166667Y-53352381D01*
X122309524Y-53400000D01*
X122357143Y-53447619D01*
X123309524Y-54352381D02*
X122738095Y-54352381D01*
X123023809Y-54352381D02*
X123023809Y-53352381D01*
X122928571Y-53495238D01*
X122833333Y-53590476D01*
X122738095Y-53638095D01*
X124261905Y-54352381D02*
X123690476Y-54352381D01*
X123976190Y-54352381D02*
X123976190Y-53352381D01*
X123880952Y-53495238D01*
X123785714Y-53590476D01*
X123690476Y-53638095D01*
X122107143Y-63192857D02*
X122154762Y-63240476D01*
X122202381Y-63383333D01*
X122202381Y-63478571D01*
X122154762Y-63621429D01*
X122059524Y-63716667D01*
X121964286Y-63764286D01*
X121773810Y-63811905D01*
X121630952Y-63811905D01*
X121440476Y-63764286D01*
X121345238Y-63716667D01*
X121250000Y-63621429D01*
X121202381Y-63478571D01*
X121202381Y-63383333D01*
X121250000Y-63240476D01*
X121297619Y-63192857D01*
X122202381Y-62240476D02*
X122202381Y-62811905D01*
X122202381Y-62526191D02*
X121202381Y-62526191D01*
X121345238Y-62621429D01*
X121440476Y-62716667D01*
X121488095Y-62811905D01*
X121202381Y-61907143D02*
X121202381Y-61288095D01*
X121583333Y-61621429D01*
X121583333Y-61478571D01*
X121630952Y-61383333D01*
X121678571Y-61335714D01*
X121773810Y-61288095D01*
X122011905Y-61288095D01*
X122107143Y-61335714D01*
X122154762Y-61383333D01*
X122202381Y-61478571D01*
X122202381Y-61764286D01*
X122154762Y-61859524D01*
X122107143Y-61907143D01*
X122107143Y-66542857D02*
X122154762Y-66590476D01*
X122202381Y-66733333D01*
X122202381Y-66828571D01*
X122154762Y-66971429D01*
X122059524Y-67066667D01*
X121964286Y-67114286D01*
X121773810Y-67161905D01*
X121630952Y-67161905D01*
X121440476Y-67114286D01*
X121345238Y-67066667D01*
X121250000Y-66971429D01*
X121202381Y-66828571D01*
X121202381Y-66733333D01*
X121250000Y-66590476D01*
X121297619Y-66542857D01*
X122202381Y-65590476D02*
X122202381Y-66161905D01*
X122202381Y-65876191D02*
X121202381Y-65876191D01*
X121345238Y-65971429D01*
X121440476Y-66066667D01*
X121488095Y-66161905D01*
X121535714Y-64733333D02*
X122202381Y-64733333D01*
X121154762Y-64971429D02*
X121869048Y-65209524D01*
X121869048Y-64590476D01*
X88561905Y-112652381D02*
X88561905Y-111652381D01*
X88800000Y-111652381D01*
X88942858Y-111700000D01*
X89038096Y-111795238D01*
X89085715Y-111890476D01*
X89133334Y-112080952D01*
X89133334Y-112223810D01*
X89085715Y-112414286D01*
X89038096Y-112509524D01*
X88942858Y-112604762D01*
X88800000Y-112652381D01*
X88561905Y-112652381D01*
X90085715Y-112652381D02*
X89514286Y-112652381D01*
X89800000Y-112652381D02*
X89800000Y-111652381D01*
X89704762Y-111795238D01*
X89609524Y-111890476D01*
X89514286Y-111938095D01*
X92561905Y-121752381D02*
X92561905Y-120752381D01*
X92800000Y-120752381D01*
X92942858Y-120800000D01*
X93038096Y-120895238D01*
X93085715Y-120990476D01*
X93133334Y-121180952D01*
X93133334Y-121323810D01*
X93085715Y-121514286D01*
X93038096Y-121609524D01*
X92942858Y-121704762D01*
X92800000Y-121752381D01*
X92561905Y-121752381D01*
X93514286Y-120847619D02*
X93561905Y-120800000D01*
X93657143Y-120752381D01*
X93895239Y-120752381D01*
X93990477Y-120800000D01*
X94038096Y-120847619D01*
X94085715Y-120942857D01*
X94085715Y-121038095D01*
X94038096Y-121180952D01*
X93466667Y-121752381D01*
X94085715Y-121752381D01*
X91236905Y-103977381D02*
X91236905Y-102977381D01*
X91475000Y-102977381D01*
X91617858Y-103025000D01*
X91713096Y-103120238D01*
X91760715Y-103215476D01*
X91808334Y-103405952D01*
X91808334Y-103548810D01*
X91760715Y-103739286D01*
X91713096Y-103834524D01*
X91617858Y-103929762D01*
X91475000Y-103977381D01*
X91236905Y-103977381D01*
X92141667Y-102977381D02*
X92760715Y-102977381D01*
X92427381Y-103358333D01*
X92570239Y-103358333D01*
X92665477Y-103405952D01*
X92713096Y-103453571D01*
X92760715Y-103548810D01*
X92760715Y-103786905D01*
X92713096Y-103882143D01*
X92665477Y-103929762D01*
X92570239Y-103977381D01*
X92284524Y-103977381D01*
X92189286Y-103929762D01*
X92141667Y-103882143D01*
X98902381Y-143588095D02*
X97902381Y-143588095D01*
X97902381Y-143350000D01*
X97950000Y-143207142D01*
X98045238Y-143111904D01*
X98140476Y-143064285D01*
X98330952Y-143016666D01*
X98473810Y-143016666D01*
X98664286Y-143064285D01*
X98759524Y-143111904D01*
X98854762Y-143207142D01*
X98902381Y-143350000D01*
X98902381Y-143588095D01*
X98235714Y-142159523D02*
X98902381Y-142159523D01*
X97854762Y-142397619D02*
X98569048Y-142635714D01*
X98569048Y-142016666D01*
X104711905Y-56602381D02*
X104711905Y-55602381D01*
X104950000Y-55602381D01*
X105092858Y-55650000D01*
X105188096Y-55745238D01*
X105235715Y-55840476D01*
X105283334Y-56030952D01*
X105283334Y-56173810D01*
X105235715Y-56364286D01*
X105188096Y-56459524D01*
X105092858Y-56554762D01*
X104950000Y-56602381D01*
X104711905Y-56602381D01*
X106188096Y-55602381D02*
X105711905Y-55602381D01*
X105664286Y-56078571D01*
X105711905Y-56030952D01*
X105807143Y-55983333D01*
X106045239Y-55983333D01*
X106140477Y-56030952D01*
X106188096Y-56078571D01*
X106235715Y-56173810D01*
X106235715Y-56411905D01*
X106188096Y-56507143D01*
X106140477Y-56554762D01*
X106045239Y-56602381D01*
X105807143Y-56602381D01*
X105711905Y-56554762D01*
X105664286Y-56507143D01*
X91178571Y-98833333D02*
X91178571Y-99166667D01*
X91702381Y-99166667D02*
X90702381Y-99166667D01*
X90702381Y-98690476D01*
X91178571Y-97976190D02*
X91226190Y-97833333D01*
X91273810Y-97785714D01*
X91369048Y-97738095D01*
X91511905Y-97738095D01*
X91607143Y-97785714D01*
X91654762Y-97833333D01*
X91702381Y-97928571D01*
X91702381Y-98309524D01*
X90702381Y-98309524D01*
X90702381Y-97976190D01*
X90750000Y-97880952D01*
X90797619Y-97833333D01*
X90892857Y-97785714D01*
X90988095Y-97785714D01*
X91083333Y-97833333D01*
X91130952Y-97880952D01*
X91178571Y-97976190D01*
X91178571Y-98309524D01*
X91702381Y-96785714D02*
X91702381Y-97357143D01*
X91702381Y-97071429D02*
X90702381Y-97071429D01*
X90845238Y-97166667D01*
X90940476Y-97261905D01*
X90988095Y-97357143D01*
X103116667Y-96728571D02*
X102783333Y-96728571D01*
X102783333Y-97252381D02*
X102783333Y-96252381D01*
X103259524Y-96252381D01*
X103973810Y-96728571D02*
X104116667Y-96776190D01*
X104164286Y-96823810D01*
X104211905Y-96919048D01*
X104211905Y-97061905D01*
X104164286Y-97157143D01*
X104116667Y-97204762D01*
X104021429Y-97252381D01*
X103640476Y-97252381D01*
X103640476Y-96252381D01*
X103973810Y-96252381D01*
X104069048Y-96300000D01*
X104116667Y-96347619D01*
X104164286Y-96442857D01*
X104164286Y-96538095D01*
X104116667Y-96633333D01*
X104069048Y-96680952D01*
X103973810Y-96728571D01*
X103640476Y-96728571D01*
X104592857Y-96347619D02*
X104640476Y-96300000D01*
X104735714Y-96252381D01*
X104973810Y-96252381D01*
X105069048Y-96300000D01*
X105116667Y-96347619D01*
X105164286Y-96442857D01*
X105164286Y-96538095D01*
X105116667Y-96680952D01*
X104545238Y-97252381D01*
X105164286Y-97252381D01*
X91858334Y-101527381D02*
X91382143Y-101527381D01*
X91382143Y-100527381D01*
X92715477Y-101527381D02*
X92144048Y-101527381D01*
X92429762Y-101527381D02*
X92429762Y-100527381D01*
X92334524Y-100670238D01*
X92239286Y-100765476D01*
X92144048Y-100813095D01*
X126033334Y-56452381D02*
X125557143Y-56452381D01*
X125557143Y-55452381D01*
X126319048Y-55547619D02*
X126366667Y-55500000D01*
X126461905Y-55452381D01*
X126700001Y-55452381D01*
X126795239Y-55500000D01*
X126842858Y-55547619D01*
X126890477Y-55642857D01*
X126890477Y-55738095D01*
X126842858Y-55880952D01*
X126271429Y-56452381D01*
X126890477Y-56452381D01*
X126033334Y-73152381D02*
X125557143Y-73152381D01*
X125557143Y-72152381D01*
X126271429Y-72152381D02*
X126890477Y-72152381D01*
X126557143Y-72533333D01*
X126700001Y-72533333D01*
X126795239Y-72580952D01*
X126842858Y-72628571D01*
X126890477Y-72723810D01*
X126890477Y-72961905D01*
X126842858Y-73057143D01*
X126795239Y-73104762D01*
X126700001Y-73152381D01*
X126414286Y-73152381D01*
X126319048Y-73104762D01*
X126271429Y-73057143D01*
X92611905Y-141952381D02*
X92611905Y-140952381D01*
X92992858Y-140952381D01*
X93088096Y-141000000D01*
X93135715Y-141047619D01*
X93183334Y-141142857D01*
X93183334Y-141285714D01*
X93135715Y-141380952D01*
X93088096Y-141428571D01*
X92992858Y-141476190D01*
X92611905Y-141476190D01*
X94135715Y-141952381D02*
X93564286Y-141952381D01*
X93850000Y-141952381D02*
X93850000Y-140952381D01*
X93754762Y-141095238D01*
X93659524Y-141190476D01*
X93564286Y-141238095D01*
X94111905Y-59152381D02*
X94111905Y-58152381D01*
X94492858Y-58152381D01*
X94588096Y-58200000D01*
X94635715Y-58247619D01*
X94683334Y-58342857D01*
X94683334Y-58485714D01*
X94635715Y-58580952D01*
X94588096Y-58628571D01*
X94492858Y-58676190D01*
X94111905Y-58676190D01*
X95064286Y-58247619D02*
X95111905Y-58200000D01*
X95207143Y-58152381D01*
X95445239Y-58152381D01*
X95540477Y-58200000D01*
X95588096Y-58247619D01*
X95635715Y-58342857D01*
X95635715Y-58438095D01*
X95588096Y-58580952D01*
X95016667Y-59152381D01*
X95635715Y-59152381D01*
X87127381Y-106841666D02*
X86651190Y-107175000D01*
X87127381Y-107413095D02*
X86127381Y-107413095D01*
X86127381Y-107032142D01*
X86175000Y-106936904D01*
X86222619Y-106889285D01*
X86317857Y-106841666D01*
X86460714Y-106841666D01*
X86555952Y-106889285D01*
X86603571Y-106936904D01*
X86651190Y-107032142D01*
X86651190Y-107413095D01*
X87127381Y-105889285D02*
X87127381Y-106460714D01*
X87127381Y-106175000D02*
X86127381Y-106175000D01*
X86270238Y-106270238D01*
X86365476Y-106365476D01*
X86413095Y-106460714D01*
X87127381Y-104141666D02*
X86651190Y-104475000D01*
X87127381Y-104713095D02*
X86127381Y-104713095D01*
X86127381Y-104332142D01*
X86175000Y-104236904D01*
X86222619Y-104189285D01*
X86317857Y-104141666D01*
X86460714Y-104141666D01*
X86555952Y-104189285D01*
X86603571Y-104236904D01*
X86651190Y-104332142D01*
X86651190Y-104713095D01*
X86222619Y-103760714D02*
X86175000Y-103713095D01*
X86127381Y-103617857D01*
X86127381Y-103379761D01*
X86175000Y-103284523D01*
X86222619Y-103236904D01*
X86317857Y-103189285D01*
X86413095Y-103189285D01*
X86555952Y-103236904D01*
X87127381Y-103808333D01*
X87127381Y-103189285D01*
X100802381Y-143016666D02*
X100326190Y-143350000D01*
X100802381Y-143588095D02*
X99802381Y-143588095D01*
X99802381Y-143207142D01*
X99850000Y-143111904D01*
X99897619Y-143064285D01*
X99992857Y-143016666D01*
X100135714Y-143016666D01*
X100230952Y-143064285D01*
X100278571Y-143111904D01*
X100326190Y-143207142D01*
X100326190Y-143588095D01*
X99802381Y-142683333D02*
X99802381Y-142064285D01*
X100183333Y-142397619D01*
X100183333Y-142254761D01*
X100230952Y-142159523D01*
X100278571Y-142111904D01*
X100373810Y-142064285D01*
X100611905Y-142064285D01*
X100707143Y-142111904D01*
X100754762Y-142159523D01*
X100802381Y-142254761D01*
X100802381Y-142540476D01*
X100754762Y-142635714D01*
X100707143Y-142683333D01*
X105233334Y-58152381D02*
X104900000Y-57676190D01*
X104661905Y-58152381D02*
X104661905Y-57152381D01*
X105042858Y-57152381D01*
X105138096Y-57200000D01*
X105185715Y-57247619D01*
X105233334Y-57342857D01*
X105233334Y-57485714D01*
X105185715Y-57580952D01*
X105138096Y-57628571D01*
X105042858Y-57676190D01*
X104661905Y-57676190D01*
X106090477Y-57485714D02*
X106090477Y-58152381D01*
X105852381Y-57104762D02*
X105614286Y-57819048D01*
X106233334Y-57819048D01*
X106652381Y-71166666D02*
X106176190Y-71500000D01*
X106652381Y-71738095D02*
X105652381Y-71738095D01*
X105652381Y-71357142D01*
X105700000Y-71261904D01*
X105747619Y-71214285D01*
X105842857Y-71166666D01*
X105985714Y-71166666D01*
X106080952Y-71214285D01*
X106128571Y-71261904D01*
X106176190Y-71357142D01*
X106176190Y-71738095D01*
X105652381Y-70261904D02*
X105652381Y-70738095D01*
X106128571Y-70785714D01*
X106080952Y-70738095D01*
X106033333Y-70642857D01*
X106033333Y-70404761D01*
X106080952Y-70309523D01*
X106128571Y-70261904D01*
X106223810Y-70214285D01*
X106461905Y-70214285D01*
X106557143Y-70261904D01*
X106604762Y-70309523D01*
X106652381Y-70404761D01*
X106652381Y-70642857D01*
X106604762Y-70738095D01*
X106557143Y-70785714D01*
X108502381Y-71166666D02*
X108026190Y-71500000D01*
X108502381Y-71738095D02*
X107502381Y-71738095D01*
X107502381Y-71357142D01*
X107550000Y-71261904D01*
X107597619Y-71214285D01*
X107692857Y-71166666D01*
X107835714Y-71166666D01*
X107930952Y-71214285D01*
X107978571Y-71261904D01*
X108026190Y-71357142D01*
X108026190Y-71738095D01*
X107502381Y-70309523D02*
X107502381Y-70500000D01*
X107550000Y-70595238D01*
X107597619Y-70642857D01*
X107740476Y-70738095D01*
X107930952Y-70785714D01*
X108311905Y-70785714D01*
X108407143Y-70738095D01*
X108454762Y-70690476D01*
X108502381Y-70595238D01*
X108502381Y-70404761D01*
X108454762Y-70309523D01*
X108407143Y-70261904D01*
X108311905Y-70214285D01*
X108073810Y-70214285D01*
X107978571Y-70261904D01*
X107930952Y-70309523D01*
X107883333Y-70404761D01*
X107883333Y-70595238D01*
X107930952Y-70690476D01*
X107978571Y-70738095D01*
X108073810Y-70785714D01*
X107033334Y-64952381D02*
X106700000Y-64476190D01*
X106461905Y-64952381D02*
X106461905Y-63952381D01*
X106842858Y-63952381D01*
X106938096Y-64000000D01*
X106985715Y-64047619D01*
X107033334Y-64142857D01*
X107033334Y-64285714D01*
X106985715Y-64380952D01*
X106938096Y-64428571D01*
X106842858Y-64476190D01*
X106461905Y-64476190D01*
X107366667Y-63952381D02*
X108033334Y-63952381D01*
X107604762Y-64952381D01*
X102052381Y-74066666D02*
X101576190Y-74400000D01*
X102052381Y-74638095D02*
X101052381Y-74638095D01*
X101052381Y-74257142D01*
X101100000Y-74161904D01*
X101147619Y-74114285D01*
X101242857Y-74066666D01*
X101385714Y-74066666D01*
X101480952Y-74114285D01*
X101528571Y-74161904D01*
X101576190Y-74257142D01*
X101576190Y-74638095D01*
X102052381Y-73638095D02*
X101052381Y-73638095D01*
X101052381Y-73257142D01*
X101100000Y-73161904D01*
X101147619Y-73114285D01*
X101242857Y-73066666D01*
X101385714Y-73066666D01*
X101480952Y-73114285D01*
X101528571Y-73161904D01*
X101576190Y-73257142D01*
X101576190Y-73638095D01*
X102052381Y-72114285D02*
X102052381Y-72685714D01*
X102052381Y-72400000D02*
X101052381Y-72400000D01*
X101195238Y-72495238D01*
X101290476Y-72590476D01*
X101338095Y-72685714D01*
X89013095Y-105827381D02*
X89013095Y-106636905D01*
X89060714Y-106732143D01*
X89108333Y-106779762D01*
X89203571Y-106827381D01*
X89394048Y-106827381D01*
X89489286Y-106779762D01*
X89536905Y-106732143D01*
X89584524Y-106636905D01*
X89584524Y-105827381D01*
X90584524Y-106827381D02*
X90013095Y-106827381D01*
X90298809Y-106827381D02*
X90298809Y-105827381D01*
X90203571Y-105970238D01*
X90108333Y-106065476D01*
X90013095Y-106113095D01*
X130557143Y-58957143D02*
X130509524Y-59004762D01*
X130366667Y-59052381D01*
X130271429Y-59052381D01*
X130128571Y-59004762D01*
X130033333Y-58909524D01*
X129985714Y-58814286D01*
X129938095Y-58623810D01*
X129938095Y-58480952D01*
X129985714Y-58290476D01*
X130033333Y-58195238D01*
X130128571Y-58100000D01*
X130271429Y-58052381D01*
X130366667Y-58052381D01*
X130509524Y-58100000D01*
X130557143Y-58147619D01*
X131509524Y-59052381D02*
X130938095Y-59052381D01*
X131223809Y-59052381D02*
X131223809Y-58052381D01*
X131128571Y-58195238D01*
X131033333Y-58290476D01*
X130938095Y-58338095D01*
X132414286Y-58052381D02*
X131938095Y-58052381D01*
X131890476Y-58528571D01*
X131938095Y-58480952D01*
X132033333Y-58433333D01*
X132271429Y-58433333D01*
X132366667Y-58480952D01*
X132414286Y-58528571D01*
X132461905Y-58623810D01*
X132461905Y-58861905D01*
X132414286Y-58957143D01*
X132366667Y-59004762D01*
X132271429Y-59052381D01*
X132033333Y-59052381D01*
X131938095Y-59004762D01*
X131890476Y-58957143D01*
X130457143Y-70357143D02*
X130409524Y-70404762D01*
X130266667Y-70452381D01*
X130171429Y-70452381D01*
X130028571Y-70404762D01*
X129933333Y-70309524D01*
X129885714Y-70214286D01*
X129838095Y-70023810D01*
X129838095Y-69880952D01*
X129885714Y-69690476D01*
X129933333Y-69595238D01*
X130028571Y-69500000D01*
X130171429Y-69452381D01*
X130266667Y-69452381D01*
X130409524Y-69500000D01*
X130457143Y-69547619D01*
X131409524Y-70452381D02*
X130838095Y-70452381D01*
X131123809Y-70452381D02*
X131123809Y-69452381D01*
X131028571Y-69595238D01*
X130933333Y-69690476D01*
X130838095Y-69738095D01*
X132266667Y-69452381D02*
X132076190Y-69452381D01*
X131980952Y-69500000D01*
X131933333Y-69547619D01*
X131838095Y-69690476D01*
X131790476Y-69880952D01*
X131790476Y-70261905D01*
X131838095Y-70357143D01*
X131885714Y-70404762D01*
X131980952Y-70452381D01*
X132171429Y-70452381D01*
X132266667Y-70404762D01*
X132314286Y-70357143D01*
X132361905Y-70261905D01*
X132361905Y-70023810D01*
X132314286Y-69928571D01*
X132266667Y-69880952D01*
X132171429Y-69833333D01*
X131980952Y-69833333D01*
X131885714Y-69880952D01*
X131838095Y-69928571D01*
X131790476Y-70023810D01*
X108652381Y-65061905D02*
X109461905Y-65061905D01*
X109557143Y-65014286D01*
X109604762Y-64966667D01*
X109652381Y-64871429D01*
X109652381Y-64680952D01*
X109604762Y-64585714D01*
X109557143Y-64538095D01*
X109461905Y-64490476D01*
X108652381Y-64490476D01*
X108747619Y-64061905D02*
X108700000Y-64014286D01*
X108652381Y-63919048D01*
X108652381Y-63680952D01*
X108700000Y-63585714D01*
X108747619Y-63538095D01*
X108842857Y-63490476D01*
X108938095Y-63490476D01*
X109080952Y-63538095D01*
X109652381Y-64109524D01*
X109652381Y-63490476D01*
X99873334Y-60662381D02*
X99540000Y-60186190D01*
X99301905Y-60662381D02*
X99301905Y-59662381D01*
X99682858Y-59662381D01*
X99778096Y-59710000D01*
X99825715Y-59757619D01*
X99873334Y-59852857D01*
X99873334Y-59995714D01*
X99825715Y-60090952D01*
X99778096Y-60138571D01*
X99682858Y-60186190D01*
X99301905Y-60186190D01*
X100444762Y-60090952D02*
X100349524Y-60043333D01*
X100301905Y-59995714D01*
X100254286Y-59900476D01*
X100254286Y-59852857D01*
X100301905Y-59757619D01*
X100349524Y-59710000D01*
X100444762Y-59662381D01*
X100635239Y-59662381D01*
X100730477Y-59710000D01*
X100778096Y-59757619D01*
X100825715Y-59852857D01*
X100825715Y-59900476D01*
X100778096Y-59995714D01*
X100730477Y-60043333D01*
X100635239Y-60090952D01*
X100444762Y-60090952D01*
X100349524Y-60138571D01*
X100301905Y-60186190D01*
X100254286Y-60281429D01*
X100254286Y-60471905D01*
X100301905Y-60567143D01*
X100349524Y-60614762D01*
X100444762Y-60662381D01*
X100635239Y-60662381D01*
X100730477Y-60614762D01*
X100778096Y-60567143D01*
X100825715Y-60471905D01*
X100825715Y-60281429D01*
X100778096Y-60186190D01*
X100730477Y-60138571D01*
X100635239Y-60090952D01*
X108057143Y-80157143D02*
X108009524Y-80204762D01*
X107866667Y-80252381D01*
X107771429Y-80252381D01*
X107628571Y-80204762D01*
X107533333Y-80109524D01*
X107485714Y-80014286D01*
X107438095Y-79823810D01*
X107438095Y-79680952D01*
X107485714Y-79490476D01*
X107533333Y-79395238D01*
X107628571Y-79300000D01*
X107771429Y-79252381D01*
X107866667Y-79252381D01*
X108009524Y-79300000D01*
X108057143Y-79347619D01*
X109009524Y-80252381D02*
X108438095Y-80252381D01*
X108723809Y-80252381D02*
X108723809Y-79252381D01*
X108628571Y-79395238D01*
X108533333Y-79490476D01*
X108438095Y-79538095D01*
X109342857Y-79252381D02*
X110009524Y-79252381D01*
X109580952Y-80252381D01*
X108057143Y-81757143D02*
X108009524Y-81804762D01*
X107866667Y-81852381D01*
X107771429Y-81852381D01*
X107628571Y-81804762D01*
X107533333Y-81709524D01*
X107485714Y-81614286D01*
X107438095Y-81423810D01*
X107438095Y-81280952D01*
X107485714Y-81090476D01*
X107533333Y-80995238D01*
X107628571Y-80900000D01*
X107771429Y-80852381D01*
X107866667Y-80852381D01*
X108009524Y-80900000D01*
X108057143Y-80947619D01*
X109009524Y-81852381D02*
X108438095Y-81852381D01*
X108723809Y-81852381D02*
X108723809Y-80852381D01*
X108628571Y-80995238D01*
X108533333Y-81090476D01*
X108438095Y-81138095D01*
X109580952Y-81280952D02*
X109485714Y-81233333D01*
X109438095Y-81185714D01*
X109390476Y-81090476D01*
X109390476Y-81042857D01*
X109438095Y-80947619D01*
X109485714Y-80900000D01*
X109580952Y-80852381D01*
X109771429Y-80852381D01*
X109866667Y-80900000D01*
X109914286Y-80947619D01*
X109961905Y-81042857D01*
X109961905Y-81090476D01*
X109914286Y-81185714D01*
X109866667Y-81233333D01*
X109771429Y-81280952D01*
X109580952Y-81280952D01*
X109485714Y-81328571D01*
X109438095Y-81376190D01*
X109390476Y-81471429D01*
X109390476Y-81661905D01*
X109438095Y-81757143D01*
X109485714Y-81804762D01*
X109580952Y-81852381D01*
X109771429Y-81852381D01*
X109866667Y-81804762D01*
X109914286Y-81757143D01*
X109961905Y-81661905D01*
X109961905Y-81471429D01*
X109914286Y-81376190D01*
X109866667Y-81328571D01*
X109771429Y-81280952D01*
X111557143Y-81342857D02*
X111604762Y-81390476D01*
X111652381Y-81533333D01*
X111652381Y-81628571D01*
X111604762Y-81771429D01*
X111509524Y-81866667D01*
X111414286Y-81914286D01*
X111223810Y-81961905D01*
X111080952Y-81961905D01*
X110890476Y-81914286D01*
X110795238Y-81866667D01*
X110700000Y-81771429D01*
X110652381Y-81628571D01*
X110652381Y-81533333D01*
X110700000Y-81390476D01*
X110747619Y-81342857D01*
X111652381Y-80390476D02*
X111652381Y-80961905D01*
X111652381Y-80676191D02*
X110652381Y-80676191D01*
X110795238Y-80771429D01*
X110890476Y-80866667D01*
X110938095Y-80961905D01*
X111652381Y-79914286D02*
X111652381Y-79723810D01*
X111604762Y-79628571D01*
X111557143Y-79580952D01*
X111414286Y-79485714D01*
X111223810Y-79438095D01*
X110842857Y-79438095D01*
X110747619Y-79485714D01*
X110700000Y-79533333D01*
X110652381Y-79628571D01*
X110652381Y-79819048D01*
X110700000Y-79914286D01*
X110747619Y-79961905D01*
X110842857Y-80009524D01*
X111080952Y-80009524D01*
X111176190Y-79961905D01*
X111223810Y-79914286D01*
X111271429Y-79819048D01*
X111271429Y-79628571D01*
X111223810Y-79533333D01*
X111176190Y-79485714D01*
X111080952Y-79438095D01*
X110157143Y-96492857D02*
X110204762Y-96540476D01*
X110252381Y-96683333D01*
X110252381Y-96778571D01*
X110204762Y-96921429D01*
X110109524Y-97016667D01*
X110014286Y-97064286D01*
X109823810Y-97111905D01*
X109680952Y-97111905D01*
X109490476Y-97064286D01*
X109395238Y-97016667D01*
X109300000Y-96921429D01*
X109252381Y-96778571D01*
X109252381Y-96683333D01*
X109300000Y-96540476D01*
X109347619Y-96492857D01*
X109347619Y-96111905D02*
X109300000Y-96064286D01*
X109252381Y-95969048D01*
X109252381Y-95730952D01*
X109300000Y-95635714D01*
X109347619Y-95588095D01*
X109442857Y-95540476D01*
X109538095Y-95540476D01*
X109680952Y-95588095D01*
X110252381Y-96159524D01*
X110252381Y-95540476D01*
X109252381Y-94921429D02*
X109252381Y-94826190D01*
X109300000Y-94730952D01*
X109347619Y-94683333D01*
X109442857Y-94635714D01*
X109633333Y-94588095D01*
X109871429Y-94588095D01*
X110061905Y-94635714D01*
X110157143Y-94683333D01*
X110204762Y-94730952D01*
X110252381Y-94826190D01*
X110252381Y-94921429D01*
X110204762Y-95016667D01*
X110157143Y-95064286D01*
X110061905Y-95111905D01*
X109871429Y-95159524D01*
X109633333Y-95159524D01*
X109442857Y-95111905D01*
X109347619Y-95064286D01*
X109300000Y-95016667D01*
X109252381Y-94921429D01*
X113757143Y-80042857D02*
X113804762Y-80090476D01*
X113852381Y-80233333D01*
X113852381Y-80328571D01*
X113804762Y-80471429D01*
X113709524Y-80566667D01*
X113614286Y-80614286D01*
X113423810Y-80661905D01*
X113280952Y-80661905D01*
X113090476Y-80614286D01*
X112995238Y-80566667D01*
X112900000Y-80471429D01*
X112852381Y-80328571D01*
X112852381Y-80233333D01*
X112900000Y-80090476D01*
X112947619Y-80042857D01*
X112947619Y-79661905D02*
X112900000Y-79614286D01*
X112852381Y-79519048D01*
X112852381Y-79280952D01*
X112900000Y-79185714D01*
X112947619Y-79138095D01*
X113042857Y-79090476D01*
X113138095Y-79090476D01*
X113280952Y-79138095D01*
X113852381Y-79709524D01*
X113852381Y-79090476D01*
X113852381Y-78138095D02*
X113852381Y-78709524D01*
X113852381Y-78423810D02*
X112852381Y-78423810D01*
X112995238Y-78519048D01*
X113090476Y-78614286D01*
X113138095Y-78709524D01*
X113807143Y-96942857D02*
X113854762Y-96990476D01*
X113902381Y-97133333D01*
X113902381Y-97228571D01*
X113854762Y-97371429D01*
X113759524Y-97466667D01*
X113664286Y-97514286D01*
X113473810Y-97561905D01*
X113330952Y-97561905D01*
X113140476Y-97514286D01*
X113045238Y-97466667D01*
X112950000Y-97371429D01*
X112902381Y-97228571D01*
X112902381Y-97133333D01*
X112950000Y-96990476D01*
X112997619Y-96942857D01*
X112997619Y-96561905D02*
X112950000Y-96514286D01*
X112902381Y-96419048D01*
X112902381Y-96180952D01*
X112950000Y-96085714D01*
X112997619Y-96038095D01*
X113092857Y-95990476D01*
X113188095Y-95990476D01*
X113330952Y-96038095D01*
X113902381Y-96609524D01*
X113902381Y-95990476D01*
X112997619Y-95609524D02*
X112950000Y-95561905D01*
X112902381Y-95466667D01*
X112902381Y-95228571D01*
X112950000Y-95133333D01*
X112997619Y-95085714D01*
X113092857Y-95038095D01*
X113188095Y-95038095D01*
X113330952Y-95085714D01*
X113902381Y-95657143D01*
X113902381Y-95038095D01*
X122257143Y-77957143D02*
X122209524Y-78004762D01*
X122066667Y-78052381D01*
X121971429Y-78052381D01*
X121828571Y-78004762D01*
X121733333Y-77909524D01*
X121685714Y-77814286D01*
X121638095Y-77623810D01*
X121638095Y-77480952D01*
X121685714Y-77290476D01*
X121733333Y-77195238D01*
X121828571Y-77100000D01*
X121971429Y-77052381D01*
X122066667Y-77052381D01*
X122209524Y-77100000D01*
X122257143Y-77147619D01*
X122638095Y-77147619D02*
X122685714Y-77100000D01*
X122780952Y-77052381D01*
X123019048Y-77052381D01*
X123114286Y-77100000D01*
X123161905Y-77147619D01*
X123209524Y-77242857D01*
X123209524Y-77338095D01*
X123161905Y-77480952D01*
X122590476Y-78052381D01*
X123209524Y-78052381D01*
X123542857Y-77052381D02*
X124161905Y-77052381D01*
X123828571Y-77433333D01*
X123971429Y-77433333D01*
X124066667Y-77480952D01*
X124114286Y-77528571D01*
X124161905Y-77623810D01*
X124161905Y-77861905D01*
X124114286Y-77957143D01*
X124066667Y-78004762D01*
X123971429Y-78052381D01*
X123685714Y-78052381D01*
X123590476Y-78004762D01*
X123542857Y-77957143D01*
X122257143Y-99157143D02*
X122209524Y-99204762D01*
X122066667Y-99252381D01*
X121971429Y-99252381D01*
X121828571Y-99204762D01*
X121733333Y-99109524D01*
X121685714Y-99014286D01*
X121638095Y-98823810D01*
X121638095Y-98680952D01*
X121685714Y-98490476D01*
X121733333Y-98395238D01*
X121828571Y-98300000D01*
X121971429Y-98252381D01*
X122066667Y-98252381D01*
X122209524Y-98300000D01*
X122257143Y-98347619D01*
X122638095Y-98347619D02*
X122685714Y-98300000D01*
X122780952Y-98252381D01*
X123019048Y-98252381D01*
X123114286Y-98300000D01*
X123161905Y-98347619D01*
X123209524Y-98442857D01*
X123209524Y-98538095D01*
X123161905Y-98680952D01*
X122590476Y-99252381D01*
X123209524Y-99252381D01*
X124066667Y-98585714D02*
X124066667Y-99252381D01*
X123828571Y-98204762D02*
X123590476Y-98919048D01*
X124209524Y-98919048D01*
X122057143Y-87242857D02*
X122104762Y-87290476D01*
X122152381Y-87433333D01*
X122152381Y-87528571D01*
X122104762Y-87671429D01*
X122009524Y-87766667D01*
X121914286Y-87814286D01*
X121723810Y-87861905D01*
X121580952Y-87861905D01*
X121390476Y-87814286D01*
X121295238Y-87766667D01*
X121200000Y-87671429D01*
X121152381Y-87528571D01*
X121152381Y-87433333D01*
X121200000Y-87290476D01*
X121247619Y-87242857D01*
X121247619Y-86861905D02*
X121200000Y-86814286D01*
X121152381Y-86719048D01*
X121152381Y-86480952D01*
X121200000Y-86385714D01*
X121247619Y-86338095D01*
X121342857Y-86290476D01*
X121438095Y-86290476D01*
X121580952Y-86338095D01*
X122152381Y-86909524D01*
X122152381Y-86290476D01*
X121152381Y-85385714D02*
X121152381Y-85861905D01*
X121628571Y-85909524D01*
X121580952Y-85861905D01*
X121533333Y-85766667D01*
X121533333Y-85528571D01*
X121580952Y-85433333D01*
X121628571Y-85385714D01*
X121723810Y-85338095D01*
X121961905Y-85338095D01*
X122057143Y-85385714D01*
X122104762Y-85433333D01*
X122152381Y-85528571D01*
X122152381Y-85766667D01*
X122104762Y-85861905D01*
X122057143Y-85909524D01*
X122057143Y-90642857D02*
X122104762Y-90690476D01*
X122152381Y-90833333D01*
X122152381Y-90928571D01*
X122104762Y-91071429D01*
X122009524Y-91166667D01*
X121914286Y-91214286D01*
X121723810Y-91261905D01*
X121580952Y-91261905D01*
X121390476Y-91214286D01*
X121295238Y-91166667D01*
X121200000Y-91071429D01*
X121152381Y-90928571D01*
X121152381Y-90833333D01*
X121200000Y-90690476D01*
X121247619Y-90642857D01*
X121247619Y-90261905D02*
X121200000Y-90214286D01*
X121152381Y-90119048D01*
X121152381Y-89880952D01*
X121200000Y-89785714D01*
X121247619Y-89738095D01*
X121342857Y-89690476D01*
X121438095Y-89690476D01*
X121580952Y-89738095D01*
X122152381Y-90309524D01*
X122152381Y-89690476D01*
X121152381Y-88833333D02*
X121152381Y-89023810D01*
X121200000Y-89119048D01*
X121247619Y-89166667D01*
X121390476Y-89261905D01*
X121580952Y-89309524D01*
X121961905Y-89309524D01*
X122057143Y-89261905D01*
X122104762Y-89214286D01*
X122152381Y-89119048D01*
X122152381Y-88928571D01*
X122104762Y-88833333D01*
X122057143Y-88785714D01*
X121961905Y-88738095D01*
X121723810Y-88738095D01*
X121628571Y-88785714D01*
X121580952Y-88833333D01*
X121533333Y-88928571D01*
X121533333Y-89119048D01*
X121580952Y-89214286D01*
X121628571Y-89261905D01*
X121723810Y-89309524D01*
X130457143Y-82957143D02*
X130409524Y-83004762D01*
X130266667Y-83052381D01*
X130171429Y-83052381D01*
X130028571Y-83004762D01*
X129933333Y-82909524D01*
X129885714Y-82814286D01*
X129838095Y-82623810D01*
X129838095Y-82480952D01*
X129885714Y-82290476D01*
X129933333Y-82195238D01*
X130028571Y-82100000D01*
X130171429Y-82052381D01*
X130266667Y-82052381D01*
X130409524Y-82100000D01*
X130457143Y-82147619D01*
X130838095Y-82147619D02*
X130885714Y-82100000D01*
X130980952Y-82052381D01*
X131219048Y-82052381D01*
X131314286Y-82100000D01*
X131361905Y-82147619D01*
X131409524Y-82242857D01*
X131409524Y-82338095D01*
X131361905Y-82480952D01*
X130790476Y-83052381D01*
X131409524Y-83052381D01*
X131742857Y-82052381D02*
X132409524Y-82052381D01*
X131980952Y-83052381D01*
X130457143Y-94257143D02*
X130409524Y-94304762D01*
X130266667Y-94352381D01*
X130171429Y-94352381D01*
X130028571Y-94304762D01*
X129933333Y-94209524D01*
X129885714Y-94114286D01*
X129838095Y-93923810D01*
X129838095Y-93780952D01*
X129885714Y-93590476D01*
X129933333Y-93495238D01*
X130028571Y-93400000D01*
X130171429Y-93352381D01*
X130266667Y-93352381D01*
X130409524Y-93400000D01*
X130457143Y-93447619D01*
X130838095Y-93447619D02*
X130885714Y-93400000D01*
X130980952Y-93352381D01*
X131219048Y-93352381D01*
X131314286Y-93400000D01*
X131361905Y-93447619D01*
X131409524Y-93542857D01*
X131409524Y-93638095D01*
X131361905Y-93780952D01*
X130790476Y-94352381D01*
X131409524Y-94352381D01*
X131980952Y-93780952D02*
X131885714Y-93733333D01*
X131838095Y-93685714D01*
X131790476Y-93590476D01*
X131790476Y-93542857D01*
X131838095Y-93447619D01*
X131885714Y-93400000D01*
X131980952Y-93352381D01*
X132171429Y-93352381D01*
X132266667Y-93400000D01*
X132314286Y-93447619D01*
X132361905Y-93542857D01*
X132361905Y-93590476D01*
X132314286Y-93685714D01*
X132266667Y-93733333D01*
X132171429Y-93780952D01*
X131980952Y-93780952D01*
X131885714Y-93828571D01*
X131838095Y-93876190D01*
X131790476Y-93971429D01*
X131790476Y-94161905D01*
X131838095Y-94257143D01*
X131885714Y-94304762D01*
X131980952Y-94352381D01*
X132171429Y-94352381D01*
X132266667Y-94304762D01*
X132314286Y-94257143D01*
X132361905Y-94161905D01*
X132361905Y-93971429D01*
X132314286Y-93876190D01*
X132266667Y-93828571D01*
X132171429Y-93780952D01*
X104661905Y-80252381D02*
X104661905Y-79252381D01*
X104900000Y-79252381D01*
X105042858Y-79300000D01*
X105138096Y-79395238D01*
X105185715Y-79490476D01*
X105233334Y-79680952D01*
X105233334Y-79823810D01*
X105185715Y-80014286D01*
X105138096Y-80109524D01*
X105042858Y-80204762D01*
X104900000Y-80252381D01*
X104661905Y-80252381D01*
X106090477Y-79252381D02*
X105900000Y-79252381D01*
X105804762Y-79300000D01*
X105757143Y-79347619D01*
X105661905Y-79490476D01*
X105614286Y-79680952D01*
X105614286Y-80061905D01*
X105661905Y-80157143D01*
X105709524Y-80204762D01*
X105804762Y-80252381D01*
X105995239Y-80252381D01*
X106090477Y-80204762D01*
X106138096Y-80157143D01*
X106185715Y-80061905D01*
X106185715Y-79823810D01*
X106138096Y-79728571D01*
X106090477Y-79680952D01*
X105995239Y-79633333D01*
X105804762Y-79633333D01*
X105709524Y-79680952D01*
X105661905Y-79728571D01*
X105614286Y-79823810D01*
X126033334Y-80352381D02*
X125557143Y-80352381D01*
X125557143Y-79352381D01*
X126795239Y-79685714D02*
X126795239Y-80352381D01*
X126557143Y-79304762D02*
X126319048Y-80019048D01*
X126938096Y-80019048D01*
X126033334Y-97252381D02*
X125557143Y-97252381D01*
X125557143Y-96252381D01*
X126842858Y-96252381D02*
X126366667Y-96252381D01*
X126319048Y-96728571D01*
X126366667Y-96680952D01*
X126461905Y-96633333D01*
X126700001Y-96633333D01*
X126795239Y-96680952D01*
X126842858Y-96728571D01*
X126890477Y-96823810D01*
X126890477Y-97061905D01*
X126842858Y-97157143D01*
X126795239Y-97204762D01*
X126700001Y-97252381D01*
X126461905Y-97252381D01*
X126366667Y-97204762D01*
X126319048Y-97157143D01*
X105283334Y-81852381D02*
X104950000Y-81376190D01*
X104711905Y-81852381D02*
X104711905Y-80852381D01*
X105092858Y-80852381D01*
X105188096Y-80900000D01*
X105235715Y-80947619D01*
X105283334Y-81042857D01*
X105283334Y-81185714D01*
X105235715Y-81280952D01*
X105188096Y-81328571D01*
X105092858Y-81376190D01*
X104711905Y-81376190D01*
X105759524Y-81852381D02*
X105950000Y-81852381D01*
X106045239Y-81804762D01*
X106092858Y-81757143D01*
X106188096Y-81614286D01*
X106235715Y-81423810D01*
X106235715Y-81042857D01*
X106188096Y-80947619D01*
X106140477Y-80900000D01*
X106045239Y-80852381D01*
X105854762Y-80852381D01*
X105759524Y-80900000D01*
X105711905Y-80947619D01*
X105664286Y-81042857D01*
X105664286Y-81280952D01*
X105711905Y-81376190D01*
X105759524Y-81423810D01*
X105854762Y-81471429D01*
X106045239Y-81471429D01*
X106140477Y-81423810D01*
X106188096Y-81376190D01*
X106235715Y-81280952D01*
X106652381Y-95892857D02*
X106176190Y-96226191D01*
X106652381Y-96464286D02*
X105652381Y-96464286D01*
X105652381Y-96083333D01*
X105700000Y-95988095D01*
X105747619Y-95940476D01*
X105842857Y-95892857D01*
X105985714Y-95892857D01*
X106080952Y-95940476D01*
X106128571Y-95988095D01*
X106176190Y-96083333D01*
X106176190Y-96464286D01*
X106652381Y-94940476D02*
X106652381Y-95511905D01*
X106652381Y-95226191D02*
X105652381Y-95226191D01*
X105795238Y-95321429D01*
X105890476Y-95416667D01*
X105938095Y-95511905D01*
X105652381Y-94321429D02*
X105652381Y-94226190D01*
X105700000Y-94130952D01*
X105747619Y-94083333D01*
X105842857Y-94035714D01*
X106033333Y-93988095D01*
X106271429Y-93988095D01*
X106461905Y-94035714D01*
X106557143Y-94083333D01*
X106604762Y-94130952D01*
X106652381Y-94226190D01*
X106652381Y-94321429D01*
X106604762Y-94416667D01*
X106557143Y-94464286D01*
X106461905Y-94511905D01*
X106271429Y-94559524D01*
X106033333Y-94559524D01*
X105842857Y-94511905D01*
X105747619Y-94464286D01*
X105700000Y-94416667D01*
X105652381Y-94321429D01*
X106557143Y-88852381D02*
X106223809Y-88376190D01*
X105985714Y-88852381D02*
X105985714Y-87852381D01*
X106366667Y-87852381D01*
X106461905Y-87900000D01*
X106509524Y-87947619D01*
X106557143Y-88042857D01*
X106557143Y-88185714D01*
X106509524Y-88280952D01*
X106461905Y-88328571D01*
X106366667Y-88376190D01*
X105985714Y-88376190D01*
X107509524Y-88852381D02*
X106938095Y-88852381D01*
X107223809Y-88852381D02*
X107223809Y-87852381D01*
X107128571Y-87995238D01*
X107033333Y-88090476D01*
X106938095Y-88138095D01*
X108461905Y-88852381D02*
X107890476Y-88852381D01*
X108176190Y-88852381D02*
X108176190Y-87852381D01*
X108080952Y-87995238D01*
X107985714Y-88090476D01*
X107890476Y-88138095D01*
X108452381Y-95892857D02*
X107976190Y-96226191D01*
X108452381Y-96464286D02*
X107452381Y-96464286D01*
X107452381Y-96083333D01*
X107500000Y-95988095D01*
X107547619Y-95940476D01*
X107642857Y-95892857D01*
X107785714Y-95892857D01*
X107880952Y-95940476D01*
X107928571Y-95988095D01*
X107976190Y-96083333D01*
X107976190Y-96464286D01*
X108452381Y-94940476D02*
X108452381Y-95511905D01*
X108452381Y-95226191D02*
X107452381Y-95226191D01*
X107595238Y-95321429D01*
X107690476Y-95416667D01*
X107738095Y-95511905D01*
X107547619Y-94559524D02*
X107500000Y-94511905D01*
X107452381Y-94416667D01*
X107452381Y-94178571D01*
X107500000Y-94083333D01*
X107547619Y-94035714D01*
X107642857Y-93988095D01*
X107738095Y-93988095D01*
X107880952Y-94035714D01*
X108452381Y-94607143D01*
X108452381Y-93988095D01*
X112402381Y-93242857D02*
X111926190Y-93576191D01*
X112402381Y-93814286D02*
X111402381Y-93814286D01*
X111402381Y-93433333D01*
X111450000Y-93338095D01*
X111497619Y-93290476D01*
X111592857Y-93242857D01*
X111735714Y-93242857D01*
X111830952Y-93290476D01*
X111878571Y-93338095D01*
X111926190Y-93433333D01*
X111926190Y-93814286D01*
X112402381Y-92290476D02*
X112402381Y-92861905D01*
X112402381Y-92576191D02*
X111402381Y-92576191D01*
X111545238Y-92671429D01*
X111640476Y-92766667D01*
X111688095Y-92861905D01*
X111402381Y-91957143D02*
X111402381Y-91338095D01*
X111783333Y-91671429D01*
X111783333Y-91528571D01*
X111830952Y-91433333D01*
X111878571Y-91385714D01*
X111973810Y-91338095D01*
X112211905Y-91338095D01*
X112307143Y-91385714D01*
X112354762Y-91433333D01*
X112402381Y-91528571D01*
X112402381Y-91814286D01*
X112354762Y-91909524D01*
X112307143Y-91957143D01*
X108752381Y-88961905D02*
X109561905Y-88961905D01*
X109657143Y-88914286D01*
X109704762Y-88866667D01*
X109752381Y-88771429D01*
X109752381Y-88580952D01*
X109704762Y-88485714D01*
X109657143Y-88438095D01*
X109561905Y-88390476D01*
X108752381Y-88390476D01*
X108752381Y-88009524D02*
X108752381Y-87390476D01*
X109133333Y-87723810D01*
X109133333Y-87580952D01*
X109180952Y-87485714D01*
X109228571Y-87438095D01*
X109323810Y-87390476D01*
X109561905Y-87390476D01*
X109657143Y-87438095D01*
X109704762Y-87485714D01*
X109752381Y-87580952D01*
X109752381Y-87866667D01*
X109704762Y-87961905D01*
X109657143Y-88009524D01*
X108057143Y-103757143D02*
X108009524Y-103804762D01*
X107866667Y-103852381D01*
X107771429Y-103852381D01*
X107628571Y-103804762D01*
X107533333Y-103709524D01*
X107485714Y-103614286D01*
X107438095Y-103423810D01*
X107438095Y-103280952D01*
X107485714Y-103090476D01*
X107533333Y-102995238D01*
X107628571Y-102900000D01*
X107771429Y-102852381D01*
X107866667Y-102852381D01*
X108009524Y-102900000D01*
X108057143Y-102947619D01*
X108438095Y-102947619D02*
X108485714Y-102900000D01*
X108580952Y-102852381D01*
X108819048Y-102852381D01*
X108914286Y-102900000D01*
X108961905Y-102947619D01*
X109009524Y-103042857D01*
X109009524Y-103138095D01*
X108961905Y-103280952D01*
X108390476Y-103852381D01*
X109009524Y-103852381D01*
X109485714Y-103852381D02*
X109676190Y-103852381D01*
X109771429Y-103804762D01*
X109819048Y-103757143D01*
X109914286Y-103614286D01*
X109961905Y-103423810D01*
X109961905Y-103042857D01*
X109914286Y-102947619D01*
X109866667Y-102900000D01*
X109771429Y-102852381D01*
X109580952Y-102852381D01*
X109485714Y-102900000D01*
X109438095Y-102947619D01*
X109390476Y-103042857D01*
X109390476Y-103280952D01*
X109438095Y-103376190D01*
X109485714Y-103423810D01*
X109580952Y-103471429D01*
X109771429Y-103471429D01*
X109866667Y-103423810D01*
X109914286Y-103376190D01*
X109961905Y-103280952D01*
X108107143Y-105457143D02*
X108059524Y-105504762D01*
X107916667Y-105552381D01*
X107821429Y-105552381D01*
X107678571Y-105504762D01*
X107583333Y-105409524D01*
X107535714Y-105314286D01*
X107488095Y-105123810D01*
X107488095Y-104980952D01*
X107535714Y-104790476D01*
X107583333Y-104695238D01*
X107678571Y-104600000D01*
X107821429Y-104552381D01*
X107916667Y-104552381D01*
X108059524Y-104600000D01*
X108107143Y-104647619D01*
X108440476Y-104552381D02*
X109059524Y-104552381D01*
X108726190Y-104933333D01*
X108869048Y-104933333D01*
X108964286Y-104980952D01*
X109011905Y-105028571D01*
X109059524Y-105123810D01*
X109059524Y-105361905D01*
X109011905Y-105457143D01*
X108964286Y-105504762D01*
X108869048Y-105552381D01*
X108583333Y-105552381D01*
X108488095Y-105504762D01*
X108440476Y-105457143D01*
X109678571Y-104552381D02*
X109773810Y-104552381D01*
X109869048Y-104600000D01*
X109916667Y-104647619D01*
X109964286Y-104742857D01*
X110011905Y-104933333D01*
X110011905Y-105171429D01*
X109964286Y-105361905D01*
X109916667Y-105457143D01*
X109869048Y-105504762D01*
X109773810Y-105552381D01*
X109678571Y-105552381D01*
X109583333Y-105504762D01*
X109535714Y-105457143D01*
X109488095Y-105361905D01*
X109440476Y-105171429D01*
X109440476Y-104933333D01*
X109488095Y-104742857D01*
X109535714Y-104647619D01*
X109583333Y-104600000D01*
X109678571Y-104552381D01*
X111557143Y-104842857D02*
X111604762Y-104890476D01*
X111652381Y-105033333D01*
X111652381Y-105128571D01*
X111604762Y-105271429D01*
X111509524Y-105366667D01*
X111414286Y-105414286D01*
X111223810Y-105461905D01*
X111080952Y-105461905D01*
X110890476Y-105414286D01*
X110795238Y-105366667D01*
X110700000Y-105271429D01*
X110652381Y-105128571D01*
X110652381Y-105033333D01*
X110700000Y-104890476D01*
X110747619Y-104842857D01*
X110652381Y-104509524D02*
X110652381Y-103890476D01*
X111033333Y-104223810D01*
X111033333Y-104080952D01*
X111080952Y-103985714D01*
X111128571Y-103938095D01*
X111223810Y-103890476D01*
X111461905Y-103890476D01*
X111557143Y-103938095D01*
X111604762Y-103985714D01*
X111652381Y-104080952D01*
X111652381Y-104366667D01*
X111604762Y-104461905D01*
X111557143Y-104509524D01*
X111652381Y-102938095D02*
X111652381Y-103509524D01*
X111652381Y-103223810D02*
X110652381Y-103223810D01*
X110795238Y-103319048D01*
X110890476Y-103414286D01*
X110938095Y-103509524D01*
X110157143Y-120792857D02*
X110204762Y-120840476D01*
X110252381Y-120983333D01*
X110252381Y-121078571D01*
X110204762Y-121221429D01*
X110109524Y-121316667D01*
X110014286Y-121364286D01*
X109823810Y-121411905D01*
X109680952Y-121411905D01*
X109490476Y-121364286D01*
X109395238Y-121316667D01*
X109300000Y-121221429D01*
X109252381Y-121078571D01*
X109252381Y-120983333D01*
X109300000Y-120840476D01*
X109347619Y-120792857D01*
X109252381Y-120459524D02*
X109252381Y-119840476D01*
X109633333Y-120173810D01*
X109633333Y-120030952D01*
X109680952Y-119935714D01*
X109728571Y-119888095D01*
X109823810Y-119840476D01*
X110061905Y-119840476D01*
X110157143Y-119888095D01*
X110204762Y-119935714D01*
X110252381Y-120030952D01*
X110252381Y-120316667D01*
X110204762Y-120411905D01*
X110157143Y-120459524D01*
X109347619Y-119459524D02*
X109300000Y-119411905D01*
X109252381Y-119316667D01*
X109252381Y-119078571D01*
X109300000Y-118983333D01*
X109347619Y-118935714D01*
X109442857Y-118888095D01*
X109538095Y-118888095D01*
X109680952Y-118935714D01*
X110252381Y-119507143D01*
X110252381Y-118888095D01*
X113757143Y-120992857D02*
X113804762Y-121040476D01*
X113852381Y-121183333D01*
X113852381Y-121278571D01*
X113804762Y-121421429D01*
X113709524Y-121516667D01*
X113614286Y-121564286D01*
X113423810Y-121611905D01*
X113280952Y-121611905D01*
X113090476Y-121564286D01*
X112995238Y-121516667D01*
X112900000Y-121421429D01*
X112852381Y-121278571D01*
X112852381Y-121183333D01*
X112900000Y-121040476D01*
X112947619Y-120992857D01*
X112852381Y-120659524D02*
X112852381Y-120040476D01*
X113233333Y-120373810D01*
X113233333Y-120230952D01*
X113280952Y-120135714D01*
X113328571Y-120088095D01*
X113423810Y-120040476D01*
X113661905Y-120040476D01*
X113757143Y-120088095D01*
X113804762Y-120135714D01*
X113852381Y-120230952D01*
X113852381Y-120516667D01*
X113804762Y-120611905D01*
X113757143Y-120659524D01*
X112852381Y-119707143D02*
X112852381Y-119088095D01*
X113233333Y-119421429D01*
X113233333Y-119278571D01*
X113280952Y-119183333D01*
X113328571Y-119135714D01*
X113423810Y-119088095D01*
X113661905Y-119088095D01*
X113757143Y-119135714D01*
X113804762Y-119183333D01*
X113852381Y-119278571D01*
X113852381Y-119564286D01*
X113804762Y-119659524D01*
X113757143Y-119707143D01*
X113757143Y-104742857D02*
X113804762Y-104790476D01*
X113852381Y-104933333D01*
X113852381Y-105028571D01*
X113804762Y-105171429D01*
X113709524Y-105266667D01*
X113614286Y-105314286D01*
X113423810Y-105361905D01*
X113280952Y-105361905D01*
X113090476Y-105314286D01*
X112995238Y-105266667D01*
X112900000Y-105171429D01*
X112852381Y-105028571D01*
X112852381Y-104933333D01*
X112900000Y-104790476D01*
X112947619Y-104742857D01*
X112852381Y-104409524D02*
X112852381Y-103790476D01*
X113233333Y-104123810D01*
X113233333Y-103980952D01*
X113280952Y-103885714D01*
X113328571Y-103838095D01*
X113423810Y-103790476D01*
X113661905Y-103790476D01*
X113757143Y-103838095D01*
X113804762Y-103885714D01*
X113852381Y-103980952D01*
X113852381Y-104266667D01*
X113804762Y-104361905D01*
X113757143Y-104409524D01*
X113185714Y-102933333D02*
X113852381Y-102933333D01*
X112804762Y-103171429D02*
X113519048Y-103409524D01*
X113519048Y-102790476D01*
X122257143Y-101557143D02*
X122209524Y-101604762D01*
X122066667Y-101652381D01*
X121971429Y-101652381D01*
X121828571Y-101604762D01*
X121733333Y-101509524D01*
X121685714Y-101414286D01*
X121638095Y-101223810D01*
X121638095Y-101080952D01*
X121685714Y-100890476D01*
X121733333Y-100795238D01*
X121828571Y-100700000D01*
X121971429Y-100652381D01*
X122066667Y-100652381D01*
X122209524Y-100700000D01*
X122257143Y-100747619D01*
X122590476Y-100652381D02*
X123209524Y-100652381D01*
X122876190Y-101033333D01*
X123019048Y-101033333D01*
X123114286Y-101080952D01*
X123161905Y-101128571D01*
X123209524Y-101223810D01*
X123209524Y-101461905D01*
X123161905Y-101557143D01*
X123114286Y-101604762D01*
X123019048Y-101652381D01*
X122733333Y-101652381D01*
X122638095Y-101604762D01*
X122590476Y-101557143D01*
X124114286Y-100652381D02*
X123638095Y-100652381D01*
X123590476Y-101128571D01*
X123638095Y-101080952D01*
X123733333Y-101033333D01*
X123971429Y-101033333D01*
X124066667Y-101080952D01*
X124114286Y-101128571D01*
X124161905Y-101223810D01*
X124161905Y-101461905D01*
X124114286Y-101557143D01*
X124066667Y-101604762D01*
X123971429Y-101652381D01*
X123733333Y-101652381D01*
X123638095Y-101604762D01*
X123590476Y-101557143D01*
X121957143Y-113992857D02*
X122004762Y-114040476D01*
X122052381Y-114183333D01*
X122052381Y-114278571D01*
X122004762Y-114421429D01*
X121909524Y-114516667D01*
X121814286Y-114564286D01*
X121623810Y-114611905D01*
X121480952Y-114611905D01*
X121290476Y-114564286D01*
X121195238Y-114516667D01*
X121100000Y-114421429D01*
X121052381Y-114278571D01*
X121052381Y-114183333D01*
X121100000Y-114040476D01*
X121147619Y-113992857D01*
X121052381Y-113659524D02*
X121052381Y-113040476D01*
X121433333Y-113373810D01*
X121433333Y-113230952D01*
X121480952Y-113135714D01*
X121528571Y-113088095D01*
X121623810Y-113040476D01*
X121861905Y-113040476D01*
X121957143Y-113088095D01*
X122004762Y-113135714D01*
X122052381Y-113230952D01*
X122052381Y-113516667D01*
X122004762Y-113611905D01*
X121957143Y-113659524D01*
X121052381Y-112183333D02*
X121052381Y-112373810D01*
X121100000Y-112469048D01*
X121147619Y-112516667D01*
X121290476Y-112611905D01*
X121480952Y-112659524D01*
X121861905Y-112659524D01*
X121957143Y-112611905D01*
X122004762Y-112564286D01*
X122052381Y-112469048D01*
X122052381Y-112278571D01*
X122004762Y-112183333D01*
X121957143Y-112135714D01*
X121861905Y-112088095D01*
X121623810Y-112088095D01*
X121528571Y-112135714D01*
X121480952Y-112183333D01*
X121433333Y-112278571D01*
X121433333Y-112469048D01*
X121480952Y-112564286D01*
X121528571Y-112611905D01*
X121623810Y-112659524D01*
X121957143Y-110792857D02*
X122004762Y-110840476D01*
X122052381Y-110983333D01*
X122052381Y-111078571D01*
X122004762Y-111221429D01*
X121909524Y-111316667D01*
X121814286Y-111364286D01*
X121623810Y-111411905D01*
X121480952Y-111411905D01*
X121290476Y-111364286D01*
X121195238Y-111316667D01*
X121100000Y-111221429D01*
X121052381Y-111078571D01*
X121052381Y-110983333D01*
X121100000Y-110840476D01*
X121147619Y-110792857D01*
X121052381Y-110459524D02*
X121052381Y-109840476D01*
X121433333Y-110173810D01*
X121433333Y-110030952D01*
X121480952Y-109935714D01*
X121528571Y-109888095D01*
X121623810Y-109840476D01*
X121861905Y-109840476D01*
X121957143Y-109888095D01*
X122004762Y-109935714D01*
X122052381Y-110030952D01*
X122052381Y-110316667D01*
X122004762Y-110411905D01*
X121957143Y-110459524D01*
X121052381Y-109507143D02*
X121052381Y-108840476D01*
X122052381Y-109269048D01*
X122157143Y-122957143D02*
X122109524Y-123004762D01*
X121966667Y-123052381D01*
X121871429Y-123052381D01*
X121728571Y-123004762D01*
X121633333Y-122909524D01*
X121585714Y-122814286D01*
X121538095Y-122623810D01*
X121538095Y-122480952D01*
X121585714Y-122290476D01*
X121633333Y-122195238D01*
X121728571Y-122100000D01*
X121871429Y-122052381D01*
X121966667Y-122052381D01*
X122109524Y-122100000D01*
X122157143Y-122147619D01*
X122490476Y-122052381D02*
X123109524Y-122052381D01*
X122776190Y-122433333D01*
X122919048Y-122433333D01*
X123014286Y-122480952D01*
X123061905Y-122528571D01*
X123109524Y-122623810D01*
X123109524Y-122861905D01*
X123061905Y-122957143D01*
X123014286Y-123004762D01*
X122919048Y-123052381D01*
X122633333Y-123052381D01*
X122538095Y-123004762D01*
X122490476Y-122957143D01*
X123680952Y-122480952D02*
X123585714Y-122433333D01*
X123538095Y-122385714D01*
X123490476Y-122290476D01*
X123490476Y-122242857D01*
X123538095Y-122147619D01*
X123585714Y-122100000D01*
X123680952Y-122052381D01*
X123871429Y-122052381D01*
X123966667Y-122100000D01*
X124014286Y-122147619D01*
X124061905Y-122242857D01*
X124061905Y-122290476D01*
X124014286Y-122385714D01*
X123966667Y-122433333D01*
X123871429Y-122480952D01*
X123680952Y-122480952D01*
X123585714Y-122528571D01*
X123538095Y-122576190D01*
X123490476Y-122671429D01*
X123490476Y-122861905D01*
X123538095Y-122957143D01*
X123585714Y-123004762D01*
X123680952Y-123052381D01*
X123871429Y-123052381D01*
X123966667Y-123004762D01*
X124014286Y-122957143D01*
X124061905Y-122861905D01*
X124061905Y-122671429D01*
X124014286Y-122576190D01*
X123966667Y-122528571D01*
X123871429Y-122480952D01*
X130457143Y-106557143D02*
X130409524Y-106604762D01*
X130266667Y-106652381D01*
X130171429Y-106652381D01*
X130028571Y-106604762D01*
X129933333Y-106509524D01*
X129885714Y-106414286D01*
X129838095Y-106223810D01*
X129838095Y-106080952D01*
X129885714Y-105890476D01*
X129933333Y-105795238D01*
X130028571Y-105700000D01*
X130171429Y-105652381D01*
X130266667Y-105652381D01*
X130409524Y-105700000D01*
X130457143Y-105747619D01*
X130790476Y-105652381D02*
X131409524Y-105652381D01*
X131076190Y-106033333D01*
X131219048Y-106033333D01*
X131314286Y-106080952D01*
X131361905Y-106128571D01*
X131409524Y-106223810D01*
X131409524Y-106461905D01*
X131361905Y-106557143D01*
X131314286Y-106604762D01*
X131219048Y-106652381D01*
X130933333Y-106652381D01*
X130838095Y-106604762D01*
X130790476Y-106557143D01*
X131885714Y-106652381D02*
X132076190Y-106652381D01*
X132171429Y-106604762D01*
X132219048Y-106557143D01*
X132314286Y-106414286D01*
X132361905Y-106223810D01*
X132361905Y-105842857D01*
X132314286Y-105747619D01*
X132266667Y-105700000D01*
X132171429Y-105652381D01*
X131980952Y-105652381D01*
X131885714Y-105700000D01*
X131838095Y-105747619D01*
X131790476Y-105842857D01*
X131790476Y-106080952D01*
X131838095Y-106176190D01*
X131885714Y-106223810D01*
X131980952Y-106271429D01*
X132171429Y-106271429D01*
X132266667Y-106223810D01*
X132314286Y-106176190D01*
X132361905Y-106080952D01*
X130457143Y-117757143D02*
X130409524Y-117804762D01*
X130266667Y-117852381D01*
X130171429Y-117852381D01*
X130028571Y-117804762D01*
X129933333Y-117709524D01*
X129885714Y-117614286D01*
X129838095Y-117423810D01*
X129838095Y-117280952D01*
X129885714Y-117090476D01*
X129933333Y-116995238D01*
X130028571Y-116900000D01*
X130171429Y-116852381D01*
X130266667Y-116852381D01*
X130409524Y-116900000D01*
X130457143Y-116947619D01*
X131314286Y-117185714D02*
X131314286Y-117852381D01*
X131076190Y-116804762D02*
X130838095Y-117519048D01*
X131457143Y-117519048D01*
X132028571Y-116852381D02*
X132123810Y-116852381D01*
X132219048Y-116900000D01*
X132266667Y-116947619D01*
X132314286Y-117042857D01*
X132361905Y-117233333D01*
X132361905Y-117471429D01*
X132314286Y-117661905D01*
X132266667Y-117757143D01*
X132219048Y-117804762D01*
X132123810Y-117852381D01*
X132028571Y-117852381D01*
X131933333Y-117804762D01*
X131885714Y-117757143D01*
X131838095Y-117661905D01*
X131790476Y-117471429D01*
X131790476Y-117233333D01*
X131838095Y-117042857D01*
X131885714Y-116947619D01*
X131933333Y-116900000D01*
X132028571Y-116852381D01*
X104661905Y-103852381D02*
X104661905Y-102852381D01*
X104900000Y-102852381D01*
X105042858Y-102900000D01*
X105138096Y-102995238D01*
X105185715Y-103090476D01*
X105233334Y-103280952D01*
X105233334Y-103423810D01*
X105185715Y-103614286D01*
X105138096Y-103709524D01*
X105042858Y-103804762D01*
X104900000Y-103852381D01*
X104661905Y-103852381D01*
X105566667Y-102852381D02*
X106233334Y-102852381D01*
X105804762Y-103852381D01*
X126033334Y-103952381D02*
X125557143Y-103952381D01*
X125557143Y-102952381D01*
X126795239Y-102952381D02*
X126604762Y-102952381D01*
X126509524Y-103000000D01*
X126461905Y-103047619D01*
X126366667Y-103190476D01*
X126319048Y-103380952D01*
X126319048Y-103761905D01*
X126366667Y-103857143D01*
X126414286Y-103904762D01*
X126509524Y-103952381D01*
X126700001Y-103952381D01*
X126795239Y-103904762D01*
X126842858Y-103857143D01*
X126890477Y-103761905D01*
X126890477Y-103523810D01*
X126842858Y-103428571D01*
X126795239Y-103380952D01*
X126700001Y-103333333D01*
X126509524Y-103333333D01*
X126414286Y-103380952D01*
X126366667Y-103428571D01*
X126319048Y-103523810D01*
X126033334Y-120652381D02*
X125557143Y-120652381D01*
X125557143Y-119652381D01*
X126271429Y-119652381D02*
X126938096Y-119652381D01*
X126509524Y-120652381D01*
X104757143Y-105552381D02*
X104423809Y-105076190D01*
X104185714Y-105552381D02*
X104185714Y-104552381D01*
X104566667Y-104552381D01*
X104661905Y-104600000D01*
X104709524Y-104647619D01*
X104757143Y-104742857D01*
X104757143Y-104885714D01*
X104709524Y-104980952D01*
X104661905Y-105028571D01*
X104566667Y-105076190D01*
X104185714Y-105076190D01*
X105709524Y-105552381D02*
X105138095Y-105552381D01*
X105423809Y-105552381D02*
X105423809Y-104552381D01*
X105328571Y-104695238D01*
X105233333Y-104790476D01*
X105138095Y-104838095D01*
X106566667Y-104885714D02*
X106566667Y-105552381D01*
X106328571Y-104504762D02*
X106090476Y-105219048D01*
X106709524Y-105219048D01*
X105152381Y-119642857D02*
X104676190Y-119976191D01*
X105152381Y-120214286D02*
X104152381Y-120214286D01*
X104152381Y-119833333D01*
X104200000Y-119738095D01*
X104247619Y-119690476D01*
X104342857Y-119642857D01*
X104485714Y-119642857D01*
X104580952Y-119690476D01*
X104628571Y-119738095D01*
X104676190Y-119833333D01*
X104676190Y-120214286D01*
X105152381Y-118690476D02*
X105152381Y-119261905D01*
X105152381Y-118976191D02*
X104152381Y-118976191D01*
X104295238Y-119071429D01*
X104390476Y-119166667D01*
X104438095Y-119261905D01*
X104152381Y-117785714D02*
X104152381Y-118261905D01*
X104628571Y-118309524D01*
X104580952Y-118261905D01*
X104533333Y-118166667D01*
X104533333Y-117928571D01*
X104580952Y-117833333D01*
X104628571Y-117785714D01*
X104723810Y-117738095D01*
X104961905Y-117738095D01*
X105057143Y-117785714D01*
X105104762Y-117833333D01*
X105152381Y-117928571D01*
X105152381Y-118166667D01*
X105104762Y-118261905D01*
X105057143Y-118309524D01*
X106557143Y-112652381D02*
X106223809Y-112176190D01*
X105985714Y-112652381D02*
X105985714Y-111652381D01*
X106366667Y-111652381D01*
X106461905Y-111700000D01*
X106509524Y-111747619D01*
X106557143Y-111842857D01*
X106557143Y-111985714D01*
X106509524Y-112080952D01*
X106461905Y-112128571D01*
X106366667Y-112176190D01*
X105985714Y-112176190D01*
X107509524Y-112652381D02*
X106938095Y-112652381D01*
X107223809Y-112652381D02*
X107223809Y-111652381D01*
X107128571Y-111795238D01*
X107033333Y-111890476D01*
X106938095Y-111938095D01*
X108366667Y-111652381D02*
X108176190Y-111652381D01*
X108080952Y-111700000D01*
X108033333Y-111747619D01*
X107938095Y-111890476D01*
X107890476Y-112080952D01*
X107890476Y-112461905D01*
X107938095Y-112557143D01*
X107985714Y-112604762D01*
X108080952Y-112652381D01*
X108271429Y-112652381D01*
X108366667Y-112604762D01*
X108414286Y-112557143D01*
X108461905Y-112461905D01*
X108461905Y-112223810D01*
X108414286Y-112128571D01*
X108366667Y-112080952D01*
X108271429Y-112033333D01*
X108080952Y-112033333D01*
X107985714Y-112080952D01*
X107938095Y-112128571D01*
X107890476Y-112223810D01*
X106752381Y-119592857D02*
X106276190Y-119926191D01*
X106752381Y-120164286D02*
X105752381Y-120164286D01*
X105752381Y-119783333D01*
X105800000Y-119688095D01*
X105847619Y-119640476D01*
X105942857Y-119592857D01*
X106085714Y-119592857D01*
X106180952Y-119640476D01*
X106228571Y-119688095D01*
X106276190Y-119783333D01*
X106276190Y-120164286D01*
X106752381Y-118640476D02*
X106752381Y-119211905D01*
X106752381Y-118926191D02*
X105752381Y-118926191D01*
X105895238Y-119021429D01*
X105990476Y-119116667D01*
X106038095Y-119211905D01*
X105752381Y-118307143D02*
X105752381Y-117640476D01*
X106752381Y-118069048D01*
X108452381Y-122992857D02*
X107976190Y-123326191D01*
X108452381Y-123564286D02*
X107452381Y-123564286D01*
X107452381Y-123183333D01*
X107500000Y-123088095D01*
X107547619Y-123040476D01*
X107642857Y-122992857D01*
X107785714Y-122992857D01*
X107880952Y-123040476D01*
X107928571Y-123088095D01*
X107976190Y-123183333D01*
X107976190Y-123564286D01*
X108452381Y-122040476D02*
X108452381Y-122611905D01*
X108452381Y-122326191D02*
X107452381Y-122326191D01*
X107595238Y-122421429D01*
X107690476Y-122516667D01*
X107738095Y-122611905D01*
X107880952Y-121469048D02*
X107833333Y-121564286D01*
X107785714Y-121611905D01*
X107690476Y-121659524D01*
X107642857Y-121659524D01*
X107547619Y-121611905D01*
X107500000Y-121564286D01*
X107452381Y-121469048D01*
X107452381Y-121278571D01*
X107500000Y-121183333D01*
X107547619Y-121135714D01*
X107642857Y-121088095D01*
X107690476Y-121088095D01*
X107785714Y-121135714D01*
X107833333Y-121183333D01*
X107880952Y-121278571D01*
X107880952Y-121469048D01*
X107928571Y-121564286D01*
X107976190Y-121611905D01*
X108071429Y-121659524D01*
X108261905Y-121659524D01*
X108357143Y-121611905D01*
X108404762Y-121564286D01*
X108452381Y-121469048D01*
X108452381Y-121278571D01*
X108404762Y-121183333D01*
X108357143Y-121135714D01*
X108261905Y-121088095D01*
X108071429Y-121088095D01*
X107976190Y-121135714D01*
X107928571Y-121183333D01*
X107880952Y-121278571D01*
X108752381Y-112561905D02*
X109561905Y-112561905D01*
X109657143Y-112514286D01*
X109704762Y-112466667D01*
X109752381Y-112371429D01*
X109752381Y-112180952D01*
X109704762Y-112085714D01*
X109657143Y-112038095D01*
X109561905Y-111990476D01*
X108752381Y-111990476D01*
X109085714Y-111085714D02*
X109752381Y-111085714D01*
X108704762Y-111323810D02*
X109419048Y-111561905D01*
X109419048Y-110942857D01*
X108057143Y-127557143D02*
X108009524Y-127604762D01*
X107866667Y-127652381D01*
X107771429Y-127652381D01*
X107628571Y-127604762D01*
X107533333Y-127509524D01*
X107485714Y-127414286D01*
X107438095Y-127223810D01*
X107438095Y-127080952D01*
X107485714Y-126890476D01*
X107533333Y-126795238D01*
X107628571Y-126700000D01*
X107771429Y-126652381D01*
X107866667Y-126652381D01*
X108009524Y-126700000D01*
X108057143Y-126747619D01*
X108914286Y-126985714D02*
X108914286Y-127652381D01*
X108676190Y-126604762D02*
X108438095Y-127319048D01*
X109057143Y-127319048D01*
X109961905Y-127652381D02*
X109390476Y-127652381D01*
X109676190Y-127652381D02*
X109676190Y-126652381D01*
X109580952Y-126795238D01*
X109485714Y-126890476D01*
X109390476Y-126938095D01*
X108057143Y-129307143D02*
X108009524Y-129354762D01*
X107866667Y-129402381D01*
X107771429Y-129402381D01*
X107628571Y-129354762D01*
X107533333Y-129259524D01*
X107485714Y-129164286D01*
X107438095Y-128973810D01*
X107438095Y-128830952D01*
X107485714Y-128640476D01*
X107533333Y-128545238D01*
X107628571Y-128450000D01*
X107771429Y-128402381D01*
X107866667Y-128402381D01*
X108009524Y-128450000D01*
X108057143Y-128497619D01*
X108914286Y-128735714D02*
X108914286Y-129402381D01*
X108676190Y-128354762D02*
X108438095Y-129069048D01*
X109057143Y-129069048D01*
X109390476Y-128497619D02*
X109438095Y-128450000D01*
X109533333Y-128402381D01*
X109771429Y-128402381D01*
X109866667Y-128450000D01*
X109914286Y-128497619D01*
X109961905Y-128592857D01*
X109961905Y-128688095D01*
X109914286Y-128830952D01*
X109342857Y-129402381D01*
X109961905Y-129402381D01*
X111557143Y-128642857D02*
X111604762Y-128690476D01*
X111652381Y-128833333D01*
X111652381Y-128928571D01*
X111604762Y-129071429D01*
X111509524Y-129166667D01*
X111414286Y-129214286D01*
X111223810Y-129261905D01*
X111080952Y-129261905D01*
X110890476Y-129214286D01*
X110795238Y-129166667D01*
X110700000Y-129071429D01*
X110652381Y-128928571D01*
X110652381Y-128833333D01*
X110700000Y-128690476D01*
X110747619Y-128642857D01*
X110985714Y-127785714D02*
X111652381Y-127785714D01*
X110604762Y-128023810D02*
X111319048Y-128261905D01*
X111319048Y-127642857D01*
X110652381Y-127357143D02*
X110652381Y-126738095D01*
X111033333Y-127071429D01*
X111033333Y-126928571D01*
X111080952Y-126833333D01*
X111128571Y-126785714D01*
X111223810Y-126738095D01*
X111461905Y-126738095D01*
X111557143Y-126785714D01*
X111604762Y-126833333D01*
X111652381Y-126928571D01*
X111652381Y-127214286D01*
X111604762Y-127309524D01*
X111557143Y-127357143D01*
X110157143Y-145042857D02*
X110204762Y-145090476D01*
X110252381Y-145233333D01*
X110252381Y-145328571D01*
X110204762Y-145471429D01*
X110109524Y-145566667D01*
X110014286Y-145614286D01*
X109823810Y-145661905D01*
X109680952Y-145661905D01*
X109490476Y-145614286D01*
X109395238Y-145566667D01*
X109300000Y-145471429D01*
X109252381Y-145328571D01*
X109252381Y-145233333D01*
X109300000Y-145090476D01*
X109347619Y-145042857D01*
X109585714Y-144185714D02*
X110252381Y-144185714D01*
X109204762Y-144423810D02*
X109919048Y-144661905D01*
X109919048Y-144042857D01*
X109585714Y-143233333D02*
X110252381Y-143233333D01*
X109204762Y-143471429D02*
X109919048Y-143709524D01*
X109919048Y-143090476D01*
X113757143Y-145042857D02*
X113804762Y-145090476D01*
X113852381Y-145233333D01*
X113852381Y-145328571D01*
X113804762Y-145471429D01*
X113709524Y-145566667D01*
X113614286Y-145614286D01*
X113423810Y-145661905D01*
X113280952Y-145661905D01*
X113090476Y-145614286D01*
X112995238Y-145566667D01*
X112900000Y-145471429D01*
X112852381Y-145328571D01*
X112852381Y-145233333D01*
X112900000Y-145090476D01*
X112947619Y-145042857D01*
X113185714Y-144185714D02*
X113852381Y-144185714D01*
X112804762Y-144423810D02*
X113519048Y-144661905D01*
X113519048Y-144042857D01*
X112852381Y-143185714D02*
X112852381Y-143661905D01*
X113328571Y-143709524D01*
X113280952Y-143661905D01*
X113233333Y-143566667D01*
X113233333Y-143328571D01*
X113280952Y-143233333D01*
X113328571Y-143185714D01*
X113423810Y-143138095D01*
X113661905Y-143138095D01*
X113757143Y-143185714D01*
X113804762Y-143233333D01*
X113852381Y-143328571D01*
X113852381Y-143566667D01*
X113804762Y-143661905D01*
X113757143Y-143709524D01*
X113707143Y-127442857D02*
X113754762Y-127490476D01*
X113802381Y-127633333D01*
X113802381Y-127728571D01*
X113754762Y-127871429D01*
X113659524Y-127966667D01*
X113564286Y-128014286D01*
X113373810Y-128061905D01*
X113230952Y-128061905D01*
X113040476Y-128014286D01*
X112945238Y-127966667D01*
X112850000Y-127871429D01*
X112802381Y-127728571D01*
X112802381Y-127633333D01*
X112850000Y-127490476D01*
X112897619Y-127442857D01*
X113135714Y-126585714D02*
X113802381Y-126585714D01*
X112754762Y-126823810D02*
X113469048Y-127061905D01*
X113469048Y-126442857D01*
X112802381Y-125633333D02*
X112802381Y-125823810D01*
X112850000Y-125919048D01*
X112897619Y-125966667D01*
X113040476Y-126061905D01*
X113230952Y-126109524D01*
X113611905Y-126109524D01*
X113707143Y-126061905D01*
X113754762Y-126014286D01*
X113802381Y-125919048D01*
X113802381Y-125728571D01*
X113754762Y-125633333D01*
X113707143Y-125585714D01*
X113611905Y-125538095D01*
X113373810Y-125538095D01*
X113278571Y-125585714D01*
X113230952Y-125633333D01*
X113183333Y-125728571D01*
X113183333Y-125919048D01*
X113230952Y-126014286D01*
X113278571Y-126061905D01*
X113373810Y-126109524D01*
X122157143Y-125407143D02*
X122109524Y-125454762D01*
X121966667Y-125502381D01*
X121871429Y-125502381D01*
X121728571Y-125454762D01*
X121633333Y-125359524D01*
X121585714Y-125264286D01*
X121538095Y-125073810D01*
X121538095Y-124930952D01*
X121585714Y-124740476D01*
X121633333Y-124645238D01*
X121728571Y-124550000D01*
X121871429Y-124502381D01*
X121966667Y-124502381D01*
X122109524Y-124550000D01*
X122157143Y-124597619D01*
X123014286Y-124835714D02*
X123014286Y-125502381D01*
X122776190Y-124454762D02*
X122538095Y-125169048D01*
X123157143Y-125169048D01*
X123442857Y-124502381D02*
X124109524Y-124502381D01*
X123680952Y-125502381D01*
X122107143Y-146857143D02*
X122059524Y-146904762D01*
X121916667Y-146952381D01*
X121821429Y-146952381D01*
X121678571Y-146904762D01*
X121583333Y-146809524D01*
X121535714Y-146714286D01*
X121488095Y-146523810D01*
X121488095Y-146380952D01*
X121535714Y-146190476D01*
X121583333Y-146095238D01*
X121678571Y-146000000D01*
X121821429Y-145952381D01*
X121916667Y-145952381D01*
X122059524Y-146000000D01*
X122107143Y-146047619D01*
X122964286Y-146285714D02*
X122964286Y-146952381D01*
X122726190Y-145904762D02*
X122488095Y-146619048D01*
X123107143Y-146619048D01*
X123630952Y-146380952D02*
X123535714Y-146333333D01*
X123488095Y-146285714D01*
X123440476Y-146190476D01*
X123440476Y-146142857D01*
X123488095Y-146047619D01*
X123535714Y-146000000D01*
X123630952Y-145952381D01*
X123821429Y-145952381D01*
X123916667Y-146000000D01*
X123964286Y-146047619D01*
X124011905Y-146142857D01*
X124011905Y-146190476D01*
X123964286Y-146285714D01*
X123916667Y-146333333D01*
X123821429Y-146380952D01*
X123630952Y-146380952D01*
X123535714Y-146428571D01*
X123488095Y-146476190D01*
X123440476Y-146571429D01*
X123440476Y-146761905D01*
X123488095Y-146857143D01*
X123535714Y-146904762D01*
X123630952Y-146952381D01*
X123821429Y-146952381D01*
X123916667Y-146904762D01*
X123964286Y-146857143D01*
X124011905Y-146761905D01*
X124011905Y-146571429D01*
X123964286Y-146476190D01*
X123916667Y-146428571D01*
X123821429Y-146380952D01*
X122007143Y-134742857D02*
X122054762Y-134790476D01*
X122102381Y-134933333D01*
X122102381Y-135028571D01*
X122054762Y-135171429D01*
X121959524Y-135266667D01*
X121864286Y-135314286D01*
X121673810Y-135361905D01*
X121530952Y-135361905D01*
X121340476Y-135314286D01*
X121245238Y-135266667D01*
X121150000Y-135171429D01*
X121102381Y-135028571D01*
X121102381Y-134933333D01*
X121150000Y-134790476D01*
X121197619Y-134742857D01*
X121435714Y-133885714D02*
X122102381Y-133885714D01*
X121054762Y-134123810D02*
X121769048Y-134361905D01*
X121769048Y-133742857D01*
X122102381Y-133314286D02*
X122102381Y-133123810D01*
X122054762Y-133028571D01*
X122007143Y-132980952D01*
X121864286Y-132885714D01*
X121673810Y-132838095D01*
X121292857Y-132838095D01*
X121197619Y-132885714D01*
X121150000Y-132933333D01*
X121102381Y-133028571D01*
X121102381Y-133219048D01*
X121150000Y-133314286D01*
X121197619Y-133361905D01*
X121292857Y-133409524D01*
X121530952Y-133409524D01*
X121626190Y-133361905D01*
X121673810Y-133314286D01*
X121721429Y-133219048D01*
X121721429Y-133028571D01*
X121673810Y-132933333D01*
X121626190Y-132885714D01*
X121530952Y-132838095D01*
X122007143Y-138042857D02*
X122054762Y-138090476D01*
X122102381Y-138233333D01*
X122102381Y-138328571D01*
X122054762Y-138471429D01*
X121959524Y-138566667D01*
X121864286Y-138614286D01*
X121673810Y-138661905D01*
X121530952Y-138661905D01*
X121340476Y-138614286D01*
X121245238Y-138566667D01*
X121150000Y-138471429D01*
X121102381Y-138328571D01*
X121102381Y-138233333D01*
X121150000Y-138090476D01*
X121197619Y-138042857D01*
X121102381Y-137138095D02*
X121102381Y-137614286D01*
X121578571Y-137661905D01*
X121530952Y-137614286D01*
X121483333Y-137519048D01*
X121483333Y-137280952D01*
X121530952Y-137185714D01*
X121578571Y-137138095D01*
X121673810Y-137090476D01*
X121911905Y-137090476D01*
X122007143Y-137138095D01*
X122054762Y-137185714D01*
X122102381Y-137280952D01*
X122102381Y-137519048D01*
X122054762Y-137614286D01*
X122007143Y-137661905D01*
X121102381Y-136471429D02*
X121102381Y-136376190D01*
X121150000Y-136280952D01*
X121197619Y-136233333D01*
X121292857Y-136185714D01*
X121483333Y-136138095D01*
X121721429Y-136138095D01*
X121911905Y-136185714D01*
X122007143Y-136233333D01*
X122054762Y-136280952D01*
X122102381Y-136376190D01*
X122102381Y-136471429D01*
X122054762Y-136566667D01*
X122007143Y-136614286D01*
X121911905Y-136661905D01*
X121721429Y-136709524D01*
X121483333Y-136709524D01*
X121292857Y-136661905D01*
X121197619Y-136614286D01*
X121150000Y-136566667D01*
X121102381Y-136471429D01*
X130457143Y-130557143D02*
X130409524Y-130604762D01*
X130266667Y-130652381D01*
X130171429Y-130652381D01*
X130028571Y-130604762D01*
X129933333Y-130509524D01*
X129885714Y-130414286D01*
X129838095Y-130223810D01*
X129838095Y-130080952D01*
X129885714Y-129890476D01*
X129933333Y-129795238D01*
X130028571Y-129700000D01*
X130171429Y-129652381D01*
X130266667Y-129652381D01*
X130409524Y-129700000D01*
X130457143Y-129747619D01*
X131361905Y-129652381D02*
X130885714Y-129652381D01*
X130838095Y-130128571D01*
X130885714Y-130080952D01*
X130980952Y-130033333D01*
X131219048Y-130033333D01*
X131314286Y-130080952D01*
X131361905Y-130128571D01*
X131409524Y-130223810D01*
X131409524Y-130461905D01*
X131361905Y-130557143D01*
X131314286Y-130604762D01*
X131219048Y-130652381D01*
X130980952Y-130652381D01*
X130885714Y-130604762D01*
X130838095Y-130557143D01*
X132361905Y-130652381D02*
X131790476Y-130652381D01*
X132076190Y-130652381D02*
X132076190Y-129652381D01*
X131980952Y-129795238D01*
X131885714Y-129890476D01*
X131790476Y-129938095D01*
X130457143Y-141757143D02*
X130409524Y-141804762D01*
X130266667Y-141852381D01*
X130171429Y-141852381D01*
X130028571Y-141804762D01*
X129933333Y-141709524D01*
X129885714Y-141614286D01*
X129838095Y-141423810D01*
X129838095Y-141280952D01*
X129885714Y-141090476D01*
X129933333Y-140995238D01*
X130028571Y-140900000D01*
X130171429Y-140852381D01*
X130266667Y-140852381D01*
X130409524Y-140900000D01*
X130457143Y-140947619D01*
X131361905Y-140852381D02*
X130885714Y-140852381D01*
X130838095Y-141328571D01*
X130885714Y-141280952D01*
X130980952Y-141233333D01*
X131219048Y-141233333D01*
X131314286Y-141280952D01*
X131361905Y-141328571D01*
X131409524Y-141423810D01*
X131409524Y-141661905D01*
X131361905Y-141757143D01*
X131314286Y-141804762D01*
X131219048Y-141852381D01*
X130980952Y-141852381D01*
X130885714Y-141804762D01*
X130838095Y-141757143D01*
X131790476Y-140947619D02*
X131838095Y-140900000D01*
X131933333Y-140852381D01*
X132171429Y-140852381D01*
X132266667Y-140900000D01*
X132314286Y-140947619D01*
X132361905Y-141042857D01*
X132361905Y-141138095D01*
X132314286Y-141280952D01*
X131742857Y-141852381D01*
X132361905Y-141852381D01*
X104711905Y-127752381D02*
X104711905Y-126752381D01*
X104950000Y-126752381D01*
X105092858Y-126800000D01*
X105188096Y-126895238D01*
X105235715Y-126990476D01*
X105283334Y-127180952D01*
X105283334Y-127323810D01*
X105235715Y-127514286D01*
X105188096Y-127609524D01*
X105092858Y-127704762D01*
X104950000Y-127752381D01*
X104711905Y-127752381D01*
X105854762Y-127180952D02*
X105759524Y-127133333D01*
X105711905Y-127085714D01*
X105664286Y-126990476D01*
X105664286Y-126942857D01*
X105711905Y-126847619D01*
X105759524Y-126800000D01*
X105854762Y-126752381D01*
X106045239Y-126752381D01*
X106140477Y-126800000D01*
X106188096Y-126847619D01*
X106235715Y-126942857D01*
X106235715Y-126990476D01*
X106188096Y-127085714D01*
X106140477Y-127133333D01*
X106045239Y-127180952D01*
X105854762Y-127180952D01*
X105759524Y-127228571D01*
X105711905Y-127276190D01*
X105664286Y-127371429D01*
X105664286Y-127561905D01*
X105711905Y-127657143D01*
X105759524Y-127704762D01*
X105854762Y-127752381D01*
X106045239Y-127752381D01*
X106140477Y-127704762D01*
X106188096Y-127657143D01*
X106235715Y-127561905D01*
X106235715Y-127371429D01*
X106188096Y-127276190D01*
X106140477Y-127228571D01*
X106045239Y-127180952D01*
X126033334Y-127952381D02*
X125557143Y-127952381D01*
X125557143Y-126952381D01*
X126509524Y-127380952D02*
X126414286Y-127333333D01*
X126366667Y-127285714D01*
X126319048Y-127190476D01*
X126319048Y-127142857D01*
X126366667Y-127047619D01*
X126414286Y-127000000D01*
X126509524Y-126952381D01*
X126700001Y-126952381D01*
X126795239Y-127000000D01*
X126842858Y-127047619D01*
X126890477Y-127142857D01*
X126890477Y-127190476D01*
X126842858Y-127285714D01*
X126795239Y-127333333D01*
X126700001Y-127380952D01*
X126509524Y-127380952D01*
X126414286Y-127428571D01*
X126366667Y-127476190D01*
X126319048Y-127571429D01*
X126319048Y-127761905D01*
X126366667Y-127857143D01*
X126414286Y-127904762D01*
X126509524Y-127952381D01*
X126700001Y-127952381D01*
X126795239Y-127904762D01*
X126842858Y-127857143D01*
X126890477Y-127761905D01*
X126890477Y-127571429D01*
X126842858Y-127476190D01*
X126795239Y-127428571D01*
X126700001Y-127380952D01*
X126083334Y-144602381D02*
X125607143Y-144602381D01*
X125607143Y-143602381D01*
X126464286Y-144602381D02*
X126654762Y-144602381D01*
X126750001Y-144554762D01*
X126797620Y-144507143D01*
X126892858Y-144364286D01*
X126940477Y-144173810D01*
X126940477Y-143792857D01*
X126892858Y-143697619D01*
X126845239Y-143650000D01*
X126750001Y-143602381D01*
X126559524Y-143602381D01*
X126464286Y-143650000D01*
X126416667Y-143697619D01*
X126369048Y-143792857D01*
X126369048Y-144030952D01*
X126416667Y-144126190D01*
X126464286Y-144173810D01*
X126559524Y-144221429D01*
X126750001Y-144221429D01*
X126845239Y-144173810D01*
X126892858Y-144126190D01*
X126940477Y-144030952D01*
X104807143Y-129452381D02*
X104473809Y-128976190D01*
X104235714Y-129452381D02*
X104235714Y-128452381D01*
X104616667Y-128452381D01*
X104711905Y-128500000D01*
X104759524Y-128547619D01*
X104807143Y-128642857D01*
X104807143Y-128785714D01*
X104759524Y-128880952D01*
X104711905Y-128928571D01*
X104616667Y-128976190D01*
X104235714Y-128976190D01*
X105759524Y-129452381D02*
X105188095Y-129452381D01*
X105473809Y-129452381D02*
X105473809Y-128452381D01*
X105378571Y-128595238D01*
X105283333Y-128690476D01*
X105188095Y-128738095D01*
X106235714Y-129452381D02*
X106426190Y-129452381D01*
X106521429Y-129404762D01*
X106569048Y-129357143D01*
X106664286Y-129214286D01*
X106711905Y-129023810D01*
X106711905Y-128642857D01*
X106664286Y-128547619D01*
X106616667Y-128500000D01*
X106521429Y-128452381D01*
X106330952Y-128452381D01*
X106235714Y-128500000D01*
X106188095Y-128547619D01*
X106140476Y-128642857D01*
X106140476Y-128880952D01*
X106188095Y-128976190D01*
X106235714Y-129023810D01*
X106330952Y-129071429D01*
X106521429Y-129071429D01*
X106616667Y-129023810D01*
X106664286Y-128976190D01*
X106711905Y-128880952D01*
X106652381Y-143742857D02*
X106176190Y-144076191D01*
X106652381Y-144314286D02*
X105652381Y-144314286D01*
X105652381Y-143933333D01*
X105700000Y-143838095D01*
X105747619Y-143790476D01*
X105842857Y-143742857D01*
X105985714Y-143742857D01*
X106080952Y-143790476D01*
X106128571Y-143838095D01*
X106176190Y-143933333D01*
X106176190Y-144314286D01*
X105747619Y-143361905D02*
X105700000Y-143314286D01*
X105652381Y-143219048D01*
X105652381Y-142980952D01*
X105700000Y-142885714D01*
X105747619Y-142838095D01*
X105842857Y-142790476D01*
X105938095Y-142790476D01*
X106080952Y-142838095D01*
X106652381Y-143409524D01*
X106652381Y-142790476D01*
X105652381Y-142171429D02*
X105652381Y-142076190D01*
X105700000Y-141980952D01*
X105747619Y-141933333D01*
X105842857Y-141885714D01*
X106033333Y-141838095D01*
X106271429Y-141838095D01*
X106461905Y-141885714D01*
X106557143Y-141933333D01*
X106604762Y-141980952D01*
X106652381Y-142076190D01*
X106652381Y-142171429D01*
X106604762Y-142266667D01*
X106557143Y-142314286D01*
X106461905Y-142361905D01*
X106271429Y-142409524D01*
X106033333Y-142409524D01*
X105842857Y-142361905D01*
X105747619Y-142314286D01*
X105700000Y-142266667D01*
X105652381Y-142171429D01*
X106557143Y-136652381D02*
X106223809Y-136176190D01*
X105985714Y-136652381D02*
X105985714Y-135652381D01*
X106366667Y-135652381D01*
X106461905Y-135700000D01*
X106509524Y-135747619D01*
X106557143Y-135842857D01*
X106557143Y-135985714D01*
X106509524Y-136080952D01*
X106461905Y-136128571D01*
X106366667Y-136176190D01*
X105985714Y-136176190D01*
X106938095Y-135747619D02*
X106985714Y-135700000D01*
X107080952Y-135652381D01*
X107319048Y-135652381D01*
X107414286Y-135700000D01*
X107461905Y-135747619D01*
X107509524Y-135842857D01*
X107509524Y-135938095D01*
X107461905Y-136080952D01*
X106890476Y-136652381D01*
X107509524Y-136652381D01*
X108461905Y-136652381D02*
X107890476Y-136652381D01*
X108176190Y-136652381D02*
X108176190Y-135652381D01*
X108080952Y-135795238D01*
X107985714Y-135890476D01*
X107890476Y-135938095D01*
X108452381Y-143742857D02*
X107976190Y-144076191D01*
X108452381Y-144314286D02*
X107452381Y-144314286D01*
X107452381Y-143933333D01*
X107500000Y-143838095D01*
X107547619Y-143790476D01*
X107642857Y-143742857D01*
X107785714Y-143742857D01*
X107880952Y-143790476D01*
X107928571Y-143838095D01*
X107976190Y-143933333D01*
X107976190Y-144314286D01*
X107547619Y-143361905D02*
X107500000Y-143314286D01*
X107452381Y-143219048D01*
X107452381Y-142980952D01*
X107500000Y-142885714D01*
X107547619Y-142838095D01*
X107642857Y-142790476D01*
X107738095Y-142790476D01*
X107880952Y-142838095D01*
X108452381Y-143409524D01*
X108452381Y-142790476D01*
X107547619Y-142409524D02*
X107500000Y-142361905D01*
X107452381Y-142266667D01*
X107452381Y-142028571D01*
X107500000Y-141933333D01*
X107547619Y-141885714D01*
X107642857Y-141838095D01*
X107738095Y-141838095D01*
X107880952Y-141885714D01*
X108452381Y-142457143D01*
X108452381Y-141838095D01*
X108702381Y-136511905D02*
X109511905Y-136511905D01*
X109607143Y-136464286D01*
X109654762Y-136416667D01*
X109702381Y-136321429D01*
X109702381Y-136130952D01*
X109654762Y-136035714D01*
X109607143Y-135988095D01*
X109511905Y-135940476D01*
X108702381Y-135940476D01*
X108702381Y-134988095D02*
X108702381Y-135464286D01*
X109178571Y-135511905D01*
X109130952Y-135464286D01*
X109083333Y-135369048D01*
X109083333Y-135130952D01*
X109130952Y-135035714D01*
X109178571Y-134988095D01*
X109273810Y-134940476D01*
X109511905Y-134940476D01*
X109607143Y-134988095D01*
X109654762Y-135035714D01*
X109702381Y-135130952D01*
X109702381Y-135369048D01*
X109654762Y-135464286D01*
X109607143Y-135511905D01*
M02*
